<?xml version="1.0" encoding="UTF-8"?><svg xmlns="http://www.w3.org/2000/svg" xmlns:xlink="http://www.w3.org/1999/xlink" fill-opacity="1" color-rendering="auto" color-interpolation="auto" text-rendering="auto" stroke="black" stroke-linecap="square" width="668" stroke-miterlimit="10" shape-rendering="auto" stroke-opacity="1" fill="black" stroke-dasharray="none" font-weight="normal" stroke-width="1" height="447" font-family="'Dialog'" font-style="normal" stroke-linejoin="miter" font-size="12px" stroke-dashoffset="0" image-rendering="auto">
  <!--Generated by ySVG 2.5-->
  <defs id="genericDefs"/>
  <g>
    <defs id="defs1">
      <clipPath clipPathUnits="userSpaceOnUse" id="clipPath1">
        <path d="M0 0 L668 0 L668 447 L0 447 L0 0 Z"/>
      </clipPath>
      <clipPath clipPathUnits="userSpaceOnUse" id="clipPath2">
        <path d="M384 90 L1052 90 L1052 537 L384 537 L384 90 Z"/>
      </clipPath>
      <clipPath clipPathUnits="userSpaceOnUse" id="clipPath3">
        <path d="M742 105 L742 165 L920 165 L920 105 Z"/>
      </clipPath>
      <clipPath clipPathUnits="userSpaceOnUse" id="clipPath4">
        <path d="M568 243 L568 303 L708 303 L708 243 Z"/>
      </clipPath>
      <clipPath clipPathUnits="userSpaceOnUse" id="clipPath5">
        <path d="M858 243 L858 303 L1036 303 L1036 243 Z"/>
      </clipPath>
      <clipPath clipPathUnits="userSpaceOnUse" id="clipPath6">
        <path d="M457 361 L457 389 L597 389 L597 361 Z"/>
      </clipPath>
      <clipPath clipPathUnits="userSpaceOnUse" id="clipPath7">
        <path d="M657 361 L657 397 L797 397 L797 361 Z"/>
      </clipPath>
      <clipPath clipPathUnits="userSpaceOnUse" id="clipPath8">
        <path d="M399 467 L399 522 L562 522 L562 467 Z"/>
      </clipPath>
    </defs>
    <g fill="white" text-rendering="geometricPrecision" shape-rendering="geometricPrecision" transform="translate(-384,-90)" stroke="white">
      <rect x="384" width="668" height="447" y="90" clip-path="url(#clipPath2)" stroke="none"/>
    </g>
    <g fill="rgb(204,255,255)" text-rendering="geometricPrecision" shape-rendering="geometricPrecision" transform="matrix(1,0,0,1,-384,-90)" stroke="rgb(204,255,255)">
      <rect x="743" width="176" height="58" y="106" clip-path="url(#clipPath2)" stroke="none"/>
      <rect x="742" y="105" clip-path="url(#clipPath2)" fill="white" width="1" height="60" stroke="none"/>
      <rect x="743" y="105" clip-path="url(#clipPath2)" fill="white" width="176" height="1" stroke="none"/>
      <rect x="743" y="164" clip-path="url(#clipPath2)" fill="rgb(142,178,178)" width="177" height="1" stroke="none"/>
      <rect x="919" y="105" clip-path="url(#clipPath2)" fill="rgb(142,178,178)" width="1" height="59" stroke="none"/>
    </g>
    <g font-size="13px" stroke-linecap="butt" transform="matrix(1,0,0,1,-384,-90)" text-rendering="geometricPrecision" font-family="sans-serif" shape-rendering="geometricPrecision" font-weight="bold" stroke-miterlimit="1.45">
      <text x="804.2122" xml:space="preserve" y="122.0669" clip-path="url(#clipPath3)" stroke="none">Symbol</text>
      <text x="769.2017" xml:space="preserve" y="137.1997" clip-path="url(#clipPath3)" stroke="none">-----------------------</text>
      <text x="762.9048" xml:space="preserve" y="152.3325" clip-path="url(#clipPath3)" stroke="none">lineDeclaration:int</text>
    </g>
    <g fill="rgb(204,255,255)" text-rendering="geometricPrecision" shape-rendering="geometricPrecision" transform="matrix(1,0,0,1,-384,-90)" stroke="rgb(204,255,255)">
      <rect x="569" width="138" height="58" y="244" clip-path="url(#clipPath2)" stroke="none"/>
      <rect x="568" y="243" clip-path="url(#clipPath2)" fill="white" width="1" height="60" stroke="none"/>
      <rect x="569" y="243" clip-path="url(#clipPath2)" fill="white" width="138" height="1" stroke="none"/>
      <rect x="569" y="302" clip-path="url(#clipPath2)" fill="rgb(142,178,178)" width="139" height="1" stroke="none"/>
      <rect x="707" y="243" clip-path="url(#clipPath2)" fill="rgb(142,178,178)" width="1" height="59" stroke="none"/>
    </g>
    <g font-size="13px" stroke-linecap="butt" transform="matrix(1,0,0,1,-384,-90)" text-rendering="geometricPrecision" font-family="sans-serif" shape-rendering="geometricPrecision" font-weight="bold" stroke-miterlimit="1.45">
      <text x="580.6863" xml:space="preserve" y="260.0669" clip-path="url(#clipPath4)" stroke="none">VariableSymbol</text>
      <text x="576.2017" xml:space="preserve" y="275.1997" clip-path="url(#clipPath4)" stroke="none">-----------------------</text>
      <text x="581.0449" xml:space="preserve" y="290.3325" clip-path="url(#clipPath4)" stroke="none">type:TypeEnum</text>
    </g>
    <g fill="rgb(204,255,255)" text-rendering="geometricPrecision" shape-rendering="geometricPrecision" transform="matrix(1,0,0,1,-384,-90)" stroke="rgb(204,255,255)">
      <rect x="859" width="176" height="58" y="244" clip-path="url(#clipPath2)" stroke="none"/>
      <rect x="858" y="243" clip-path="url(#clipPath2)" fill="white" width="1" height="60" stroke="none"/>
      <rect x="859" y="243" clip-path="url(#clipPath2)" fill="white" width="176" height="1" stroke="none"/>
      <rect x="859" y="302" clip-path="url(#clipPath2)" fill="rgb(142,178,178)" width="177" height="1" stroke="none"/>
      <rect x="1035" y="243" clip-path="url(#clipPath2)" fill="rgb(142,178,178)" width="1" height="59" stroke="none"/>
    </g>
    <g font-size="13px" stroke-linecap="butt" transform="matrix(1,0,0,1,-384,-90)" text-rendering="geometricPrecision" font-family="sans-serif" shape-rendering="geometricPrecision" font-weight="bold" stroke-miterlimit="1.45">
      <text x="888.2358" xml:space="preserve" y="260.0669" clip-path="url(#clipPath5)" stroke="none">FunctionSymbol</text>
      <text x="882.5039" xml:space="preserve" y="275.1997" clip-path="url(#clipPath5)" stroke="none">------------------------</text>
      <text x="865.5366" xml:space="preserve" y="290.3325" clip-path="url(#clipPath5)" stroke="none">returnType:TypeEnum</text>
    </g>
    <g fill="rgb(204,255,255)" text-rendering="geometricPrecision" shape-rendering="geometricPrecision" transform="matrix(1,0,0,1,-384,-90)" stroke="rgb(204,255,255)">
      <rect x="458" width="138" height="26" y="362" clip-path="url(#clipPath2)" stroke="none"/>
      <rect x="457" y="361" clip-path="url(#clipPath2)" fill="white" width="1" height="28" stroke="none"/>
      <rect x="458" y="361" clip-path="url(#clipPath2)" fill="white" width="138" height="1" stroke="none"/>
      <rect x="458" y="388" clip-path="url(#clipPath2)" fill="rgb(142,178,178)" width="139" height="1" stroke="none"/>
      <rect x="596" y="361" clip-path="url(#clipPath2)" fill="rgb(142,178,178)" width="1" height="27" stroke="none"/>
    </g>
    <g font-size="13px" stroke-linecap="butt" transform="matrix(1,0,0,1,-384,-90)" text-rendering="geometricPrecision" font-family="sans-serif" shape-rendering="geometricPrecision" font-weight="bold" stroke-miterlimit="1.45">
      <text x="474.4456" xml:space="preserve" y="378.0669" clip-path="url(#clipPath6)" stroke="none">IntBoolSymbol</text>
    </g>
    <g fill="rgb(204,255,255)" text-rendering="geometricPrecision" shape-rendering="geometricPrecision" transform="matrix(1,0,0,1,-384,-90)" stroke="rgb(204,255,255)">
      <rect x="658" width="138" height="34" y="362" clip-path="url(#clipPath2)" stroke="none"/>
      <rect x="657" y="361" clip-path="url(#clipPath2)" fill="white" width="1" height="36" stroke="none"/>
      <rect x="658" y="361" clip-path="url(#clipPath2)" fill="white" width="138" height="1" stroke="none"/>
      <rect x="658" y="396" clip-path="url(#clipPath2)" fill="rgb(142,178,178)" width="139" height="1" stroke="none"/>
      <rect x="796" y="361" clip-path="url(#clipPath2)" fill="rgb(142,178,178)" width="1" height="35" stroke="none"/>
    </g>
    <g font-size="13px" stroke-linecap="butt" transform="matrix(1,0,0,1,-384,-90)" text-rendering="geometricPrecision" font-family="sans-serif" shape-rendering="geometricPrecision" font-weight="bold" stroke-miterlimit="1.45">
      <text x="680.1472" xml:space="preserve" y="378.0669" clip-path="url(#clipPath7)" stroke="none">ArraySymbol</text>
      <text x="665.2017" xml:space="preserve" y="393.1997" clip-path="url(#clipPath7)" stroke="none">-----------------------</text>
    </g>
    <g fill="rgb(204,255,255)" text-rendering="geometricPrecision" shape-rendering="geometricPrecision" transform="matrix(1,0,0,1,-384,-90)" stroke="rgb(204,255,255)">
      <rect x="400" width="161" height="53" y="468" clip-path="url(#clipPath2)" stroke="none"/>
      <rect x="399" y="467" clip-path="url(#clipPath2)" fill="white" width="1" height="55" stroke="none"/>
      <rect x="400" y="467" clip-path="url(#clipPath2)" fill="white" width="161" height="1" stroke="none"/>
      <rect x="400" y="521" clip-path="url(#clipPath2)" fill="rgb(142,178,178)" width="162" height="1" stroke="none"/>
      <rect x="561" y="467" clip-path="url(#clipPath2)" fill="rgb(142,178,178)" width="1" height="54" stroke="none"/>
    </g>
    <g font-size="13px" stroke-linecap="butt" transform="matrix(1,0,0,1,-384,-90)" text-rendering="geometricPrecision" font-family="sans-serif" shape-rendering="geometricPrecision" font-weight="bold" stroke-miterlimit="1.45">
      <text x="415.6992" xml:space="preserve" y="484.0669" clip-path="url(#clipPath8)" stroke="none">CstIntBoolSymbol</text>
      <text x="413.3062" xml:space="preserve" y="499.1997" clip-path="url(#clipPath8)" stroke="none">-------------------------</text>
      <text x="418.3049" xml:space="preserve" y="514.3325" clip-path="url(#clipPath8)" stroke="none">value:Expression</text>
      <path fill="none" d="M680.2096 242.9978 L782.8154 169.632" clip-path="url(#clipPath2)"/>
      <path d="M789.323 164.9789 L776.6534 167.8913 L782.002 170.2136 L782.4698 176.0258 Z" stroke="none" clip-path="url(#clipPath2)"/>
      <path fill="none" d="M922.0166 242.981 L861.5933 171.0981" clip-path="url(#clipPath2)"/>
      <path d="M856.4457 164.9742 L860.3397 177.3773 L862.2368 171.8636 L867.9946 170.9428 Z" stroke="none" clip-path="url(#clipPath2)"/>
      <path fill="none" d="M542.9384 360.98 L599.8641 308.4331" clip-path="url(#clipPath2)"/>
      <path d="M605.7426 303.0069 L593.5336 307.4722 L599.1293 309.1114 L600.3163 314.8202 Z" stroke="none" clip-path="url(#clipPath2)"/>
      <path fill="none" d="M712.1487 361.0142 L668.5984 309.1453" clip-path="url(#clipPath2)"/>
      <path d="M663.4542 303.0185 L667.3412 315.4238 L669.2414 309.9111 L674.9998 308.9936 Z" stroke="none" clip-path="url(#clipPath2)"/>
      <path fill="none" d="M491.5706 466.9882 L519.3278 396.4138" clip-path="url(#clipPath2)"/>
      <path d="M522.256 388.9689 L513.2107 398.3061 L518.9618 397.3444 L522.5168 401.9663 Z" stroke="none" clip-path="url(#clipPath2)"/>
    </g>
  </g>
</svg>
