<?xml version="1.0" encoding="UTF-8"?><svg xmlns="http://www.w3.org/2000/svg" xmlns:xlink="http://www.w3.org/1999/xlink" fill-opacity="1" color-rendering="auto" color-interpolation="auto" text-rendering="auto" stroke="black" stroke-linecap="square" width="1384" stroke-miterlimit="10" shape-rendering="auto" stroke-opacity="1" fill="black" stroke-dasharray="none" font-weight="normal" stroke-width="1" height="596" font-family="'Dialog'" font-style="normal" stroke-linejoin="miter" font-size="12px" stroke-dashoffset="0" image-rendering="auto">
  <!--Generated by ySVG 2.5-->
  <defs id="genericDefs"/>
  <g>
    <defs id="defs1">
      <clipPath clipPathUnits="userSpaceOnUse" id="clipPath1">
        <path d="M0 0 L1384 0 L1384 596 L0 596 L0 0 Z"/>
      </clipPath>
      <clipPath clipPathUnits="userSpaceOnUse" id="clipPath2">
        <path d="M-355 54 L1029 54 L1029 650 L-355 650 L-355 54 Z"/>
      </clipPath>
      <clipPath clipPathUnits="userSpaceOnUse" id="clipPath3">
        <path d="M200 69 L200 97 L319 97 L319 69 Z"/>
      </clipPath>
      <clipPath clipPathUnits="userSpaceOnUse" id="clipPath4">
        <path d="M13 133 L13 189 L505 189 L505 133 Z"/>
      </clipPath>
      <clipPath clipPathUnits="userSpaceOnUse" id="clipPath5">
        <path d="M-158 288 L-158 344 L-8 344 L-8 288 Z"/>
      </clipPath>
      <clipPath clipPathUnits="userSpaceOnUse" id="clipPath6">
        <path d="M-109 448 L-109 476 L62 476 L62 448 Z"/>
      </clipPath>
      <clipPath clipPathUnits="userSpaceOnUse" id="clipPath7">
        <path d="M-258 566 L-258 594 L-104 594 L-104 566 Z"/>
      </clipPath>
      <clipPath clipPathUnits="userSpaceOnUse" id="clipPath8">
        <path d="M-183 606 L-183 634 L13 634 L13 606 Z"/>
      </clipPath>
      <clipPath clipPathUnits="userSpaceOnUse" id="clipPath9">
        <path d="M235 286 L235 359 L441 359 L441 286 Z"/>
      </clipPath>
      <clipPath clipPathUnits="userSpaceOnUse" id="clipPath10">
        <path d="M482 284 L482 359 L632 359 L632 284 Z"/>
      </clipPath>
      <clipPath clipPathUnits="userSpaceOnUse" id="clipPath11">
        <path d="M410 419 L410 447 L583 447 L583 419 Z"/>
      </clipPath>
      <clipPath clipPathUnits="userSpaceOnUse" id="clipPath12">
        <path d="M-67 566 L-67 594 L81 594 L81 566 Z"/>
      </clipPath>
      <clipPath clipPathUnits="userSpaceOnUse" id="clipPath13">
        <path d="M38 606 L38 634 L178 634 L178 606 Z"/>
      </clipPath>
      <clipPath clipPathUnits="userSpaceOnUse" id="clipPath14">
        <path d="M170 566 L170 594 L343 594 L343 566 Z"/>
      </clipPath>
      <clipPath clipPathUnits="userSpaceOnUse" id="clipPath15">
        <path d="M238 606 L238 634 L438 634 L438 606 Z"/>
      </clipPath>
      <clipPath clipPathUnits="userSpaceOnUse" id="clipPath16">
        <path d="M373 566 L373 594 L546 594 L546 566 Z"/>
      </clipPath>
      <clipPath clipPathUnits="userSpaceOnUse" id="clipPath17">
        <path d="M449 606 L449 634 L649 634 L649 606 Z"/>
      </clipPath>
      <clipPath clipPathUnits="userSpaceOnUse" id="clipPath18">
        <path d="M562 566 L562 594 L751 594 L751 566 Z"/>
      </clipPath>
      <clipPath clipPathUnits="userSpaceOnUse" id="clipPath19">
        <path d="M660 606 L660 634 L849 634 L849 606 Z"/>
      </clipPath>
      <clipPath clipPathUnits="userSpaceOnUse" id="clipPath20">
        <path d="M21 286 L21 345 L194 345 L194 286 Z"/>
      </clipPath>
      <clipPath clipPathUnits="userSpaceOnUse" id="clipPath21">
        <path d="M-33 375 L-33 403 L102 403 L102 375 Z"/>
      </clipPath>
      <clipPath clipPathUnits="userSpaceOnUse" id="clipPath22">
        <path d="M757 565 L757 593 L892 593 L892 565 Z"/>
      </clipPath>
      <clipPath clipPathUnits="userSpaceOnUse" id="clipPath23">
        <path d="M860 606 L860 634 L987 634 L987 606 Z"/>
      </clipPath>
      <clipPath clipPathUnits="userSpaceOnUse" id="clipPath24">
        <path d="M-339 288 L-339 344 L-189 344 L-189 288 Z"/>
      </clipPath>
      <clipPath clipPathUnits="userSpaceOnUse" id="clipPath25">
        <path d="M716 369 L716 442 L1012 442 L1012 369 Z"/>
      </clipPath>
      <clipPath clipPathUnits="userSpaceOnUse" id="clipPath26">
        <path d="M667 255 L667 314 L968 314 L968 255 Z"/>
      </clipPath>
      <clipPath clipPathUnits="userSpaceOnUse" id="clipPath27">
        <path d="M-276 178 L-276 234 L-126 234 L-126 178 Z"/>
      </clipPath>
      <clipPath clipPathUnits="userSpaceOnUse" id="clipPath28">
        <path d="M692 133 L692 206 L944 206 L944 133 Z"/>
      </clipPath>
      <clipPath clipPathUnits="userSpaceOnUse" id="clipPath29">
        <path d="M452 496 L452 524 L679 524 L679 496 Z"/>
      </clipPath>
    </defs>
    <g fill="white" text-rendering="geometricPrecision" shape-rendering="geometricPrecision" transform="translate(355,-54)" stroke="white">
      <rect x="-355" width="1384" height="596" y="54" clip-path="url(#clipPath2)" stroke="none"/>
    </g>
    <g fill="rgb(204,255,255)" text-rendering="geometricPrecision" shape-rendering="geometricPrecision" transform="matrix(1,0,0,1,355,-54)" stroke="rgb(204,255,255)">
      <rect x="201" width="117" height="26" y="70" clip-path="url(#clipPath2)" stroke="none"/>
      <rect x="200" y="69" clip-path="url(#clipPath2)" fill="white" width="1" height="28" stroke="none"/>
      <rect x="201" y="69" clip-path="url(#clipPath2)" fill="white" width="117" height="1" stroke="none"/>
      <rect x="201" y="96" clip-path="url(#clipPath2)" fill="rgb(142,178,178)" width="118" height="1" stroke="none"/>
      <rect x="318" y="69" clip-path="url(#clipPath2)" fill="rgb(142,178,178)" width="1" height="27" stroke="none"/>
    </g>
    <g font-size="13px" stroke-linecap="butt" transform="matrix(1,0,0,1,355,-54)" text-rendering="geometricPrecision" font-family="sans-serif" shape-rendering="geometricPrecision" font-weight="bold" stroke-miterlimit="1.45">
      <text x="212.0823" xml:space="preserve" y="86.0669" clip-path="url(#clipPath3)" stroke="none">AbstractTree</text>
    </g>
    <g fill="rgb(204,255,255)" text-rendering="geometricPrecision" shape-rendering="geometricPrecision" transform="matrix(1,0,0,1,355,-54)" stroke="rgb(204,255,255)">
      <rect x="14" width="490" height="54" y="134" clip-path="url(#clipPath2)" stroke="none"/>
      <rect x="13" y="133" clip-path="url(#clipPath2)" fill="white" width="1" height="56" stroke="none"/>
      <rect x="14" y="133" clip-path="url(#clipPath2)" fill="white" width="490" height="1" stroke="none"/>
      <rect x="14" y="188" clip-path="url(#clipPath2)" fill="rgb(142,178,178)" width="491" height="1" stroke="none"/>
      <rect x="504" y="133" clip-path="url(#clipPath2)" fill="rgb(142,178,178)" width="1" height="55" stroke="none"/>
    </g>
    <g font-size="13px" stroke-linecap="butt" transform="matrix(1,0,0,1,355,-54)" text-rendering="geometricPrecision" font-family="sans-serif" shape-rendering="geometricPrecision" font-weight="bold" stroke-miterlimit="1.45">
      <text x="219.7915" xml:space="preserve" y="150.0669" clip-path="url(#clipPath4)" stroke="none">Expression</text>
      <text x="25.0454" xml:space="preserve" y="165.1997" clip-path="url(#clipPath4)" stroke="none">---------------------------------------------------------------------------------------</text>
      <text x="32.4404" xml:space="preserve" y="180.3325" clip-path="url(#clipPath4)" stroke="none">semanticErrorsDetected(int declarationLineNumber): boolean</text>
    </g>
    <g fill="rgb(204,255,255)" text-rendering="geometricPrecision" shape-rendering="geometricPrecision" transform="matrix(1,0,0,1,355,-54)" stroke="rgb(204,255,255)">
      <rect x="-157" width="148" height="54" y="289" clip-path="url(#clipPath2)" stroke="none"/>
      <rect x="-158" y="288" clip-path="url(#clipPath2)" fill="white" width="1" height="56" stroke="none"/>
      <rect x="-157" y="288" clip-path="url(#clipPath2)" fill="white" width="148" height="1" stroke="none"/>
      <rect x="-157" y="343" clip-path="url(#clipPath2)" fill="rgb(142,178,178)" width="149" height="1" stroke="none"/>
      <rect x="-9" y="288" clip-path="url(#clipPath2)" fill="rgb(142,178,178)" width="1" height="55" stroke="none"/>
    </g>
    <g font-size="13px" stroke-linecap="butt" transform="matrix(1,0,0,1,355,-54)" text-rendering="geometricPrecision" font-family="sans-serif" shape-rendering="geometricPrecision" font-weight="bold" stroke-miterlimit="1.45">
      <text x="-122.6553" xml:space="preserve" y="305.5669" clip-path="url(#clipPath5)" stroke="none">IntNumber</text>
      <text x="-156.2344" xml:space="preserve" y="320.6997" clip-path="url(#clipPath5)" stroke="none">---------------------------</text>
      <text x="-116.0346" xml:space="preserve" y="335.8325" clip-path="url(#clipPath5)" stroke="none">value:Int</text>
    </g>
    <g fill="rgb(204,255,255)" text-rendering="geometricPrecision" shape-rendering="geometricPrecision" transform="matrix(1,0,0,1,355,-54)" stroke="rgb(204,255,255)">
      <rect x="-108" width="169" height="26" y="449" clip-path="url(#clipPath2)" stroke="none"/>
      <rect x="-109" y="448" clip-path="url(#clipPath2)" fill="white" width="1" height="28" stroke="none"/>
      <rect x="-108" y="448" clip-path="url(#clipPath2)" fill="white" width="169" height="1" stroke="none"/>
      <rect x="-108" y="475" clip-path="url(#clipPath2)" fill="rgb(142,178,178)" width="170" height="1" stroke="none"/>
      <rect x="61" y="448" clip-path="url(#clipPath2)" fill="rgb(142,178,178)" width="1" height="27" stroke="none"/>
    </g>
    <g font-size="13px" stroke-linecap="butt" transform="matrix(1,0,0,1,355,-54)" text-rendering="geometricPrecision" font-family="sans-serif" shape-rendering="geometricPrecision" font-weight="bold" stroke-miterlimit="1.45">
      <text x="-101.6519" xml:space="preserve" y="465.0669" clip-path="url(#clipPath6)" stroke="none">ArithmeticExpression</text>
    </g>
    <g fill="rgb(204,255,255)" text-rendering="geometricPrecision" shape-rendering="geometricPrecision" transform="matrix(1,0,0,1,355,-54)" stroke="rgb(204,255,255)">
      <rect x="-257" width="152" height="26" y="567" clip-path="url(#clipPath2)" stroke="none"/>
      <rect x="-258" y="566" clip-path="url(#clipPath2)" fill="white" width="1" height="28" stroke="none"/>
      <rect x="-257" y="566" clip-path="url(#clipPath2)" fill="white" width="152" height="1" stroke="none"/>
      <rect x="-257" y="593" clip-path="url(#clipPath2)" fill="rgb(142,178,178)" width="153" height="1" stroke="none"/>
      <rect x="-105" y="566" clip-path="url(#clipPath2)" fill="rgb(142,178,178)" width="1" height="27" stroke="none"/>
    </g>
    <g font-size="13px" stroke-linecap="butt" transform="matrix(1,0,0,1,355,-54)" text-rendering="geometricPrecision" font-family="sans-serif" shape-rendering="geometricPrecision" font-weight="bold" stroke-miterlimit="1.45">
      <text x="-251.8309" xml:space="preserve" y="583.0669" clip-path="url(#clipPath7)" stroke="none">AdditionExpression</text>
    </g>
    <g fill="rgb(204,255,255)" text-rendering="geometricPrecision" shape-rendering="geometricPrecision" transform="matrix(1,0,0,1,355,-54)" stroke="rgb(204,255,255)">
      <rect x="-182" width="194" height="26" y="607" clip-path="url(#clipPath2)" stroke="none"/>
      <rect x="-183" y="606" clip-path="url(#clipPath2)" fill="white" width="1" height="28" stroke="none"/>
      <rect x="-182" y="606" clip-path="url(#clipPath2)" fill="white" width="194" height="1" stroke="none"/>
      <rect x="-182" y="633" clip-path="url(#clipPath2)" fill="rgb(142,178,178)" width="195" height="1" stroke="none"/>
      <rect x="12" y="606" clip-path="url(#clipPath2)" fill="rgb(142,178,178)" width="1" height="27" stroke="none"/>
    </g>
    <g font-size="13px" stroke-linecap="butt" transform="matrix(1,0,0,1,355,-54)" text-rendering="geometricPrecision" font-family="sans-serif" shape-rendering="geometricPrecision" font-weight="bold" stroke-miterlimit="1.45">
      <text x="-172.0093" xml:space="preserve" y="623.5669" clip-path="url(#clipPath8)" stroke="none">SubstractionExpression</text>
    </g>
    <g fill="rgb(204,255,255)" text-rendering="geometricPrecision" shape-rendering="geometricPrecision" transform="matrix(1,0,0,1,355,-54)" stroke="rgb(204,255,255)">
      <rect x="236" width="204" height="71" y="287" clip-path="url(#clipPath2)" stroke="none"/>
      <rect x="235" y="286" clip-path="url(#clipPath2)" fill="white" width="1" height="73" stroke="none"/>
      <rect x="236" y="286" clip-path="url(#clipPath2)" fill="white" width="204" height="1" stroke="none"/>
      <rect x="236" y="358" clip-path="url(#clipPath2)" fill="rgb(142,178,178)" width="205" height="1" stroke="none"/>
      <rect x="440" y="286" clip-path="url(#clipPath2)" fill="rgb(142,178,178)" width="1" height="72" stroke="none"/>
    </g>
    <g font-size="13px" stroke-linecap="butt" transform="matrix(1,0,0,1,355,-54)" text-rendering="geometricPrecision" font-family="sans-serif" shape-rendering="geometricPrecision" font-weight="bold" stroke-miterlimit="1.45">
      <text x="275.1528" xml:space="preserve" y="303.0669" clip-path="url(#clipPath9)" stroke="none">BinaryExpression</text>
      <text x="265.9106" xml:space="preserve" y="318.1997" clip-path="url(#clipPath9)" stroke="none">---------------------------</text>
      <text x="252.1616" xml:space="preserve" y="333.3325" clip-path="url(#clipPath9)" stroke="none">leftOperand:Expression</text>
      <text x="246.9121" xml:space="preserve" y="348.4653" clip-path="url(#clipPath9)" stroke="none">rightOperand:Expression</text>
    </g>
    <g fill="rgb(204,255,255)" text-rendering="geometricPrecision" shape-rendering="geometricPrecision" transform="matrix(1,0,0,1,355,-54)" stroke="rgb(204,255,255)">
      <rect x="483" width="148" height="73" y="285" clip-path="url(#clipPath2)" stroke="none"/>
      <rect x="482" y="284" clip-path="url(#clipPath2)" fill="white" width="1" height="75" stroke="none"/>
      <rect x="483" y="284" clip-path="url(#clipPath2)" fill="white" width="148" height="1" stroke="none"/>
      <rect x="483" y="358" clip-path="url(#clipPath2)" fill="rgb(142,178,178)" width="149" height="1" stroke="none"/>
      <rect x="631" y="284" clip-path="url(#clipPath2)" fill="rgb(142,178,178)" width="1" height="74" stroke="none"/>
    </g>
    <g font-size="13px" stroke-linecap="butt" transform="matrix(1,0,0,1,355,-54)" text-rendering="geometricPrecision" font-family="sans-serif" shape-rendering="geometricPrecision" font-weight="bold" stroke-miterlimit="1.45">
      <text x="523.4827" xml:space="preserve" y="301.0669" clip-path="url(#clipPath10)" stroke="none">Identifier</text>
      <text x="484.7556" xml:space="preserve" y="316.1997" clip-path="url(#clipPath10)" stroke="none">---------------------------</text>
      <text x="512.2981" xml:space="preserve" y="331.3325" clip-path="url(#clipPath10)" stroke="none">name:String</text>
    </g>
    <g fill="rgb(204,255,255)" text-rendering="geometricPrecision" shape-rendering="geometricPrecision" transform="matrix(1,0,0,1,355,-54)" stroke="rgb(204,255,255)">
      <rect x="411" width="171" height="26" y="420" clip-path="url(#clipPath2)" stroke="none"/>
      <rect x="410" y="419" clip-path="url(#clipPath2)" fill="white" width="1" height="28" stroke="none"/>
      <rect x="411" y="419" clip-path="url(#clipPath2)" fill="white" width="171" height="1" stroke="none"/>
      <rect x="411" y="446" clip-path="url(#clipPath2)" fill="rgb(142,178,178)" width="172" height="1" stroke="none"/>
      <rect x="582" y="419" clip-path="url(#clipPath2)" fill="rgb(142,178,178)" width="1" height="27" stroke="none"/>
    </g>
    <g font-size="13px" stroke-linecap="butt" transform="matrix(1,0,0,1,355,-54)" text-rendering="geometricPrecision" font-family="sans-serif" shape-rendering="geometricPrecision" font-weight="bold" stroke-miterlimit="1.45">
      <text x="419.6962" xml:space="preserve" y="436.0669" clip-path="url(#clipPath11)" stroke="none">RelationalExpression</text>
    </g>
    <g fill="rgb(204,255,255)" text-rendering="geometricPrecision" shape-rendering="geometricPrecision" transform="matrix(1,0,0,1,355,-54)" stroke="rgb(204,255,255)">
      <rect x="-66" width="146" height="26" y="567" clip-path="url(#clipPath2)" stroke="none"/>
      <rect x="-67" y="566" clip-path="url(#clipPath2)" fill="white" width="1" height="28" stroke="none"/>
      <rect x="-66" y="566" clip-path="url(#clipPath2)" fill="white" width="146" height="1" stroke="none"/>
      <rect x="-66" y="593" clip-path="url(#clipPath2)" fill="rgb(142,178,178)" width="147" height="1" stroke="none"/>
      <rect x="80" y="566" clip-path="url(#clipPath2)" fill="rgb(142,178,178)" width="1" height="27" stroke="none"/>
    </g>
    <g font-size="13px" stroke-linecap="butt" transform="matrix(1,0,0,1,355,-54)" text-rendering="geometricPrecision" font-family="sans-serif" shape-rendering="geometricPrecision" font-weight="bold" stroke-miterlimit="1.45">
      <text x="-62.8679" xml:space="preserve" y="583.0669" clip-path="url(#clipPath12)" stroke="none">MultiplyExpression</text>
    </g>
    <g fill="rgb(204,255,255)" text-rendering="geometricPrecision" shape-rendering="geometricPrecision" transform="matrix(1,0,0,1,355,-54)" stroke="rgb(204,255,255)">
      <rect x="39" width="138" height="26" y="607" clip-path="url(#clipPath2)" stroke="none"/>
      <rect x="38" y="606" clip-path="url(#clipPath2)" fill="white" width="1" height="28" stroke="none"/>
      <rect x="39" y="606" clip-path="url(#clipPath2)" fill="white" width="138" height="1" stroke="none"/>
      <rect x="39" y="633" clip-path="url(#clipPath2)" fill="rgb(142,178,178)" width="139" height="1" stroke="none"/>
      <rect x="177" y="606" clip-path="url(#clipPath2)" fill="rgb(142,178,178)" width="1" height="27" stroke="none"/>
    </g>
    <g font-size="13px" stroke-linecap="butt" transform="matrix(1,0,0,1,355,-54)" text-rendering="geometricPrecision" font-family="sans-serif" shape-rendering="geometricPrecision" font-weight="bold" stroke-miterlimit="1.45">
      <text x="45.5216" xml:space="preserve" y="623.5669" clip-path="url(#clipPath13)" stroke="none">DivideExpression</text>
    </g>
    <g fill="rgb(204,255,255)" text-rendering="geometricPrecision" shape-rendering="geometricPrecision" transform="matrix(1,0,0,1,355,-54)" stroke="rgb(204,255,255)">
      <rect x="171" width="171" height="26" y="567" clip-path="url(#clipPath2)" stroke="none"/>
      <rect x="170" y="566" clip-path="url(#clipPath2)" fill="white" width="1" height="28" stroke="none"/>
      <rect x="171" y="566" clip-path="url(#clipPath2)" fill="white" width="171" height="1" stroke="none"/>
      <rect x="171" y="593" clip-path="url(#clipPath2)" fill="rgb(142,178,178)" width="172" height="1" stroke="none"/>
      <rect x="342" y="566" clip-path="url(#clipPath2)" fill="rgb(142,178,178)" width="1" height="27" stroke="none"/>
    </g>
    <g font-size="13px" stroke-linecap="butt" transform="matrix(1,0,0,1,355,-54)" text-rendering="geometricPrecision" font-family="sans-serif" shape-rendering="geometricPrecision" font-weight="bold" stroke-miterlimit="1.45">
      <text x="176.3971" xml:space="preserve" y="583.0669" clip-path="url(#clipPath14)" stroke="none">EqualEqualExpression</text>
    </g>
    <g fill="rgb(204,255,255)" text-rendering="geometricPrecision" shape-rendering="geometricPrecision" transform="matrix(1,0,0,1,355,-54)" stroke="rgb(204,255,255)">
      <rect x="239" width="198" height="26" y="607" clip-path="url(#clipPath2)" stroke="none"/>
      <rect x="238" y="606" clip-path="url(#clipPath2)" fill="white" width="1" height="28" stroke="none"/>
      <rect x="239" y="606" clip-path="url(#clipPath2)" fill="white" width="198" height="1" stroke="none"/>
      <rect x="239" y="633" clip-path="url(#clipPath2)" fill="rgb(142,178,178)" width="199" height="1" stroke="none"/>
      <rect x="437" y="606" clip-path="url(#clipPath2)" fill="rgb(142,178,178)" width="1" height="27" stroke="none"/>
    </g>
    <g font-size="13px" stroke-linecap="butt" transform="matrix(1,0,0,1,355,-54)" text-rendering="geometricPrecision" font-family="sans-serif" shape-rendering="geometricPrecision" font-weight="bold" stroke-miterlimit="1.45">
      <text x="247.5552" xml:space="preserve" y="623.5669" clip-path="url(#clipPath15)" stroke="none">DifferentThanExpression</text>
    </g>
    <g fill="rgb(204,255,255)" text-rendering="geometricPrecision" shape-rendering="geometricPrecision" transform="matrix(1,0,0,1,355,-54)" stroke="rgb(204,255,255)">
      <rect x="374" width="171" height="26" y="567" clip-path="url(#clipPath2)" stroke="none"/>
      <rect x="373" y="566" clip-path="url(#clipPath2)" fill="white" width="1" height="28" stroke="none"/>
      <rect x="374" y="566" clip-path="url(#clipPath2)" fill="white" width="171" height="1" stroke="none"/>
      <rect x="374" y="593" clip-path="url(#clipPath2)" fill="rgb(142,178,178)" width="172" height="1" stroke="none"/>
      <rect x="545" y="566" clip-path="url(#clipPath2)" fill="rgb(142,178,178)" width="1" height="27" stroke="none"/>
    </g>
    <g font-size="13px" stroke-linecap="butt" transform="matrix(1,0,0,1,355,-54)" text-rendering="geometricPrecision" font-family="sans-serif" shape-rendering="geometricPrecision" font-weight="bold" stroke-miterlimit="1.45">
      <text x="378.3895" xml:space="preserve" y="583.0669" clip-path="url(#clipPath16)" stroke="none">LesserThanExpression</text>
    </g>
    <g fill="rgb(204,255,255)" text-rendering="geometricPrecision" shape-rendering="geometricPrecision" transform="matrix(1,0,0,1,355,-54)" stroke="rgb(204,255,255)">
      <rect x="450" width="198" height="26" y="607" clip-path="url(#clipPath2)" stroke="none"/>
      <rect x="449" y="606" clip-path="url(#clipPath2)" fill="white" width="1" height="28" stroke="none"/>
      <rect x="450" y="606" clip-path="url(#clipPath2)" fill="white" width="198" height="1" stroke="none"/>
      <rect x="450" y="633" clip-path="url(#clipPath2)" fill="rgb(142,178,178)" width="199" height="1" stroke="none"/>
      <rect x="648" y="606" clip-path="url(#clipPath2)" fill="rgb(142,178,178)" width="1" height="27" stroke="none"/>
    </g>
    <g font-size="13px" stroke-linecap="butt" transform="matrix(1,0,0,1,355,-54)" text-rendering="geometricPrecision" font-family="sans-serif" shape-rendering="geometricPrecision" font-weight="bold" stroke-miterlimit="1.45">
      <text x="465.4297" xml:space="preserve" y="623.5669" clip-path="url(#clipPath17)" stroke="none">LesserEqualExpression</text>
    </g>
    <g fill="rgb(204,255,255)" text-rendering="geometricPrecision" shape-rendering="geometricPrecision" transform="matrix(1,0,0,1,355,-54)" stroke="rgb(204,255,255)">
      <rect x="563" width="187" height="26" y="567" clip-path="url(#clipPath2)" stroke="none"/>
      <rect x="562" y="566" clip-path="url(#clipPath2)" fill="white" width="1" height="28" stroke="none"/>
      <rect x="563" y="566" clip-path="url(#clipPath2)" fill="white" width="187" height="1" stroke="none"/>
      <rect x="563" y="593" clip-path="url(#clipPath2)" fill="rgb(142,178,178)" width="188" height="1" stroke="none"/>
      <rect x="750" y="566" clip-path="url(#clipPath2)" fill="rgb(142,178,178)" width="1" height="27" stroke="none"/>
    </g>
    <g font-size="13px" stroke-linecap="butt" transform="matrix(1,0,0,1,355,-54)" text-rendering="geometricPrecision" font-family="sans-serif" shape-rendering="geometricPrecision" font-weight="bold" stroke-miterlimit="1.45">
      <text x="571.2849" xml:space="preserve" y="583.0669" clip-path="url(#clipPath18)" stroke="none">GreaterThanExpression</text>
    </g>
    <g fill="rgb(204,255,255)" text-rendering="geometricPrecision" shape-rendering="geometricPrecision" transform="matrix(1,0,0,1,355,-54)" stroke="rgb(204,255,255)">
      <rect x="661" width="187" height="26" y="607" clip-path="url(#clipPath2)" stroke="none"/>
      <rect x="660" y="606" clip-path="url(#clipPath2)" fill="white" width="1" height="28" stroke="none"/>
      <rect x="661" y="606" clip-path="url(#clipPath2)" fill="white" width="187" height="1" stroke="none"/>
      <rect x="661" y="633" clip-path="url(#clipPath2)" fill="rgb(142,178,178)" width="188" height="1" stroke="none"/>
      <rect x="848" y="606" clip-path="url(#clipPath2)" fill="rgb(142,178,178)" width="1" height="27" stroke="none"/>
    </g>
    <g font-size="13px" stroke-linecap="butt" transform="matrix(1,0,0,1,355,-54)" text-rendering="geometricPrecision" font-family="sans-serif" shape-rendering="geometricPrecision" font-weight="bold" stroke-miterlimit="1.45">
      <text x="666.7751" xml:space="preserve" y="623.5669" clip-path="url(#clipPath19)" stroke="none">GreaterEqualExpression</text>
    </g>
    <g fill="rgb(204,255,255)" text-rendering="geometricPrecision" shape-rendering="geometricPrecision" transform="matrix(1,0,0,1,355,-54)" stroke="rgb(204,255,255)">
      <rect x="22" width="171" height="57" y="287" clip-path="url(#clipPath2)" stroke="none"/>
      <rect x="21" y="286" clip-path="url(#clipPath2)" fill="white" width="1" height="59" stroke="none"/>
      <rect x="22" y="286" clip-path="url(#clipPath2)" fill="white" width="171" height="1" stroke="none"/>
      <rect x="22" y="344" clip-path="url(#clipPath2)" fill="rgb(142,178,178)" width="172" height="1" stroke="none"/>
      <rect x="193" y="286" clip-path="url(#clipPath2)" fill="rgb(142,178,178)" width="1" height="58" stroke="none"/>
    </g>
    <g font-size="13px" stroke-linecap="butt" transform="matrix(1,0,0,1,355,-54)" text-rendering="geometricPrecision" font-family="sans-serif" shape-rendering="geometricPrecision" font-weight="bold" stroke-miterlimit="1.45">
      <text x="46.9371" xml:space="preserve" y="303.0669" clip-path="url(#clipPath20)" stroke="none">UnaryExpression</text>
      <text x="35.7906" xml:space="preserve" y="318.1997" clip-path="url(#clipPath20)" stroke="none">---------------------------</text>
      <text x="26.1454" xml:space="preserve" y="333.3325" clip-path="url(#clipPath20)" stroke="none">expression:Expression</text>
    </g>
    <g fill="rgb(204,255,255)" text-rendering="geometricPrecision" shape-rendering="geometricPrecision" transform="matrix(1,0,0,1,355,-54)" stroke="rgb(204,255,255)">
      <rect x="-32" width="133" height="26" y="376" clip-path="url(#clipPath2)" stroke="none"/>
      <rect x="-33" y="375" clip-path="url(#clipPath2)" fill="white" width="1" height="28" stroke="none"/>
      <rect x="-32" y="375" clip-path="url(#clipPath2)" fill="white" width="133" height="1" stroke="none"/>
      <rect x="-32" y="402" clip-path="url(#clipPath2)" fill="rgb(142,178,178)" width="134" height="1" stroke="none"/>
      <rect x="101" y="375" clip-path="url(#clipPath2)" fill="rgb(142,178,178)" width="1" height="27" stroke="none"/>
    </g>
    <g font-size="13px" stroke-linecap="butt" transform="matrix(1,0,0,1,355,-54)" text-rendering="geometricPrecision" font-family="sans-serif" shape-rendering="geometricPrecision" font-weight="bold" stroke-miterlimit="1.45">
      <text x="-18.4962" xml:space="preserve" y="392.0669" clip-path="url(#clipPath21)" stroke="none">NotExpression</text>
    </g>
    <g fill="rgb(204,255,255)" text-rendering="geometricPrecision" shape-rendering="geometricPrecision" transform="matrix(1,0,0,1,355,-54)" stroke="rgb(204,255,255)">
      <rect x="758" width="133" height="26" y="566" clip-path="url(#clipPath2)" stroke="none"/>
      <rect x="757" y="565" clip-path="url(#clipPath2)" fill="white" width="1" height="28" stroke="none"/>
      <rect x="758" y="565" clip-path="url(#clipPath2)" fill="white" width="133" height="1" stroke="none"/>
      <rect x="758" y="592" clip-path="url(#clipPath2)" fill="rgb(142,178,178)" width="134" height="1" stroke="none"/>
      <rect x="891" y="565" clip-path="url(#clipPath2)" fill="rgb(142,178,178)" width="1" height="27" stroke="none"/>
    </g>
    <g font-size="13px" stroke-linecap="butt" transform="matrix(1,0,0,1,355,-54)" text-rendering="geometricPrecision" font-family="sans-serif" shape-rendering="geometricPrecision" font-weight="bold" stroke-miterlimit="1.45">
      <text x="770.8557" xml:space="preserve" y="582.0669" clip-path="url(#clipPath22)" stroke="none">AndExpression</text>
    </g>
    <g fill="rgb(204,255,255)" text-rendering="geometricPrecision" shape-rendering="geometricPrecision" transform="matrix(1,0,0,1,355,-54)" stroke="rgb(204,255,255)">
      <rect x="861" width="125" height="26" y="607" clip-path="url(#clipPath2)" stroke="none"/>
      <rect x="860" y="606" clip-path="url(#clipPath2)" fill="white" width="1" height="28" stroke="none"/>
      <rect x="861" y="606" clip-path="url(#clipPath2)" fill="white" width="125" height="1" stroke="none"/>
      <rect x="861" y="633" clip-path="url(#clipPath2)" fill="rgb(142,178,178)" width="126" height="1" stroke="none"/>
      <rect x="986" y="606" clip-path="url(#clipPath2)" fill="rgb(142,178,178)" width="1" height="27" stroke="none"/>
    </g>
    <g font-size="13px" stroke-linecap="butt" transform="matrix(1,0,0,1,355,-54)" text-rendering="geometricPrecision" font-family="sans-serif" shape-rendering="geometricPrecision" font-weight="bold" stroke-miterlimit="1.45">
      <text x="875.4353" xml:space="preserve" y="623.5669" clip-path="url(#clipPath23)" stroke="none">OrExpression</text>
    </g>
    <g fill="rgb(204,255,255)" text-rendering="geometricPrecision" shape-rendering="geometricPrecision" transform="matrix(1,0,0,1,355,-54)" stroke="rgb(204,255,255)">
      <rect x="-338" width="148" height="54" y="289" clip-path="url(#clipPath2)" stroke="none"/>
      <rect x="-339" y="288" clip-path="url(#clipPath2)" fill="white" width="1" height="56" stroke="none"/>
      <rect x="-338" y="288" clip-path="url(#clipPath2)" fill="white" width="148" height="1" stroke="none"/>
      <rect x="-338" y="343" clip-path="url(#clipPath2)" fill="rgb(142,178,178)" width="149" height="1" stroke="none"/>
      <rect x="-190" y="288" clip-path="url(#clipPath2)" fill="rgb(142,178,178)" width="1" height="55" stroke="none"/>
    </g>
    <g font-size="13px" stroke-linecap="butt" transform="matrix(1,0,0,1,355,-54)" text-rendering="geometricPrecision" font-family="sans-serif" shape-rendering="geometricPrecision" font-weight="bold" stroke-miterlimit="1.45">
      <text x="-298.3938" xml:space="preserve" y="305.5669" clip-path="url(#clipPath24)" stroke="none">CstString</text>
      <text x="-336.9843" xml:space="preserve" y="320.6997" clip-path="url(#clipPath24)" stroke="none">---------------------------</text>
      <text x="-309.134" xml:space="preserve" y="335.8325" clip-path="url(#clipPath24)" stroke="none">value:String</text>
    </g>
    <g fill="rgb(204,255,255)" text-rendering="geometricPrecision" shape-rendering="geometricPrecision" transform="matrix(1,0,0,1,355,-54)" stroke="rgb(204,255,255)">
      <rect x="717" width="294" height="71" y="370" clip-path="url(#clipPath2)" stroke="none"/>
      <rect x="716" y="369" clip-path="url(#clipPath2)" fill="white" width="1" height="73" stroke="none"/>
      <rect x="717" y="369" clip-path="url(#clipPath2)" fill="white" width="294" height="1" stroke="none"/>
      <rect x="717" y="441" clip-path="url(#clipPath2)" fill="rgb(142,178,178)" width="295" height="1" stroke="none"/>
      <rect x="1011" y="369" clip-path="url(#clipPath2)" fill="rgb(142,178,178)" width="1" height="72" stroke="none"/>
    </g>
    <g font-size="13px" stroke-linecap="butt" transform="matrix(1,0,0,1,355,-54)" text-rendering="geometricPrecision" font-family="sans-serif" shape-rendering="geometricPrecision" font-weight="bold" stroke-miterlimit="1.45">
      <text x="796.6091" xml:space="preserve" y="386.0669" clip-path="url(#clipPath25)" stroke="none">TabValueIdentifier</text>
      <text x="792.0356" xml:space="preserve" y="401.1997" clip-path="url(#clipPath25)" stroke="none">---------------------------</text>
      <text x="819.5781" xml:space="preserve" y="416.3325" clip-path="url(#clipPath25)" stroke="none">name:String</text>
      <text x="788.8618" xml:space="preserve" y="431.4653" clip-path="url(#clipPath25)" stroke="none">index:ExpressionList</text>
    </g>
    <g fill="rgb(204,255,255)" text-rendering="geometricPrecision" shape-rendering="geometricPrecision" transform="matrix(1,0,0,1,355,-54)" stroke="rgb(204,255,255)">
      <rect x="668" width="299" height="57" y="256" clip-path="url(#clipPath2)" stroke="none"/>
      <rect x="667" y="255" clip-path="url(#clipPath2)" fill="white" width="1" height="59" stroke="none"/>
      <rect x="668" y="255" clip-path="url(#clipPath2)" fill="white" width="299" height="1" stroke="none"/>
      <rect x="668" y="313" clip-path="url(#clipPath2)" fill="rgb(142,178,178)" width="300" height="1" stroke="none"/>
      <rect x="967" y="255" clip-path="url(#clipPath2)" fill="rgb(142,178,178)" width="1" height="58" stroke="none"/>
    </g>
    <g font-size="13px" stroke-linecap="butt" transform="matrix(1,0,0,1,355,-54)" text-rendering="geometricPrecision" font-family="sans-serif" shape-rendering="geometricPrecision" font-weight="bold" stroke-miterlimit="1.45">
      <text x="765.0706" xml:space="preserve" y="273.0669" clip-path="url(#clipPath26)" stroke="none">ExpressionList</text>
      <text x="745.5356" xml:space="preserve" y="288.1997" clip-path="url(#clipPath26)" stroke="none">---------------------------</text>
      <text x="673.9246" xml:space="preserve" y="303.3325" clip-path="url(#clipPath26)" stroke="none">expressionList:LinkedList&lt;Expression&gt;</text>
    </g>
    <g fill="rgb(204,255,255)" text-rendering="geometricPrecision" shape-rendering="geometricPrecision" transform="matrix(1,0,0,1,355,-54)" stroke="rgb(204,255,255)">
      <rect x="-275" width="148" height="54" y="179" clip-path="url(#clipPath2)" stroke="none"/>
      <rect x="-276" y="178" clip-path="url(#clipPath2)" fill="white" width="1" height="56" stroke="none"/>
      <rect x="-275" y="178" clip-path="url(#clipPath2)" fill="white" width="148" height="1" stroke="none"/>
      <rect x="-275" y="233" clip-path="url(#clipPath2)" fill="rgb(142,178,178)" width="149" height="1" stroke="none"/>
      <rect x="-127" y="178" clip-path="url(#clipPath2)" fill="rgb(142,178,178)" width="1" height="55" stroke="none"/>
    </g>
    <g font-size="13px" stroke-linecap="butt" transform="matrix(1,0,0,1,355,-54)" text-rendering="geometricPrecision" font-family="sans-serif" shape-rendering="geometricPrecision" font-weight="bold" stroke-miterlimit="1.45">
      <text x="-262.2119" xml:space="preserve" y="195.0669" clip-path="url(#clipPath27)" stroke="none">BooleanKeyword</text>
      <text x="-273.5044" xml:space="preserve" y="210.1997" clip-path="url(#clipPath27)" stroke="none">---------------------------</text>
      <text x="-252.6872" xml:space="preserve" y="225.3325" clip-path="url(#clipPath27)" stroke="none">value:Boolean</text>
    </g>
    <g fill="rgb(204,255,255)" text-rendering="geometricPrecision" shape-rendering="geometricPrecision" transform="matrix(1,0,0,1,355,-54)" stroke="rgb(204,255,255)">
      <rect x="693" width="250" height="71" y="134" clip-path="url(#clipPath2)" stroke="none"/>
      <rect x="692" y="133" clip-path="url(#clipPath2)" fill="white" width="1" height="73" stroke="none"/>
      <rect x="693" y="133" clip-path="url(#clipPath2)" fill="white" width="250" height="1" stroke="none"/>
      <rect x="693" y="205" clip-path="url(#clipPath2)" fill="rgb(142,178,178)" width="251" height="1" stroke="none"/>
      <rect x="943" y="133" clip-path="url(#clipPath2)" fill="rgb(142,178,178)" width="1" height="72" stroke="none"/>
    </g>
    <g font-size="13px" stroke-linecap="butt" transform="matrix(1,0,0,1,355,-54)" text-rendering="geometricPrecision" font-family="sans-serif" shape-rendering="geometricPrecision" font-weight="bold" stroke-miterlimit="1.45">
      <text x="753.4036" xml:space="preserve" y="150.0669" clip-path="url(#clipPath28)" stroke="none">FctCallExpression</text>
      <text x="745.5356" xml:space="preserve" y="165.1997" clip-path="url(#clipPath28)" stroke="none">---------------------------</text>
      <text x="750.8677" xml:space="preserve" y="180.3325" clip-path="url(#clipPath28)" stroke="none">fctName:Identifier</text>
      <text x="720.0688" xml:space="preserve" y="195.4653" clip-path="url(#clipPath28)" stroke="none">parameters:ExpressionList</text>
    </g>
    <g fill="rgb(204,255,255)" text-rendering="geometricPrecision" shape-rendering="geometricPrecision" transform="matrix(1,0,0,1,355,-54)" stroke="rgb(204,255,255)">
      <rect x="453" width="225" height="26" y="497" clip-path="url(#clipPath2)" stroke="none"/>
      <rect x="452" y="496" clip-path="url(#clipPath2)" fill="white" width="1" height="28" stroke="none"/>
      <rect x="453" y="496" clip-path="url(#clipPath2)" fill="white" width="225" height="1" stroke="none"/>
      <rect x="453" y="523" clip-path="url(#clipPath2)" fill="rgb(142,178,178)" width="226" height="1" stroke="none"/>
      <rect x="678" y="496" clip-path="url(#clipPath2)" fill="rgb(142,178,178)" width="1" height="27" stroke="none"/>
    </g>
    <g font-size="13px" stroke-linecap="butt" transform="matrix(1,0,0,1,355,-54)" text-rendering="geometricPrecision" font-family="sans-serif" shape-rendering="geometricPrecision" font-weight="bold" stroke-miterlimit="1.45">
      <text x="461.9428" xml:space="preserve" y="513.0669" clip-path="url(#clipPath29)" stroke="none">RelationalIntegerExpression</text>
      <path fill="none" d="M259.75 133.0143 L259.75 105.0177" clip-path="url(#clipPath2)"/>
      <path d="M259.75 97.0177 L254.75 109.0177 L259.75 106.0177 L264.75 109.0177 Z" stroke="none" clip-path="url(#clipPath2)"/>
      <path fill="none" d="M-21.024 288.4859 L190.1185 192.8043" clip-path="url(#clipPath2)"/>
      <path d="M197.4053 189.5022 L184.4114 189.9011 L189.2077 193.217 L188.539 199.0095 Z" stroke="none" clip-path="url(#clipPath2)"/>
      <path fill="none" d="M-166.1008 566.0015 L-131.664 533.384 L-51.0875 480.3904" clip-path="url(#clipPath2)"/>
      <path d="M-44.4035 475.9945 L-57.177 478.4109 L-51.923 480.9399 L-51.682 486.7659 Z" stroke="none" clip-path="url(#clipPath2)"/>
      <path fill="none" d="M-83.525 606.5154 L-75 537 L-37.3771 482.6054" clip-path="url(#clipPath2)"/>
      <path d="M-32.8262 476.0259 L-43.7647 483.0509 L-37.9459 483.4278 L-35.5403 488.7394 Z" stroke="none" clip-path="url(#clipPath2)"/>
      <path fill="none" d="M13.2304 447.9853 L236.5939 361.8804" clip-path="url(#clipPath2)"/>
      <path d="M244.0584 359.0029 L231.0631 358.6538 L235.6608 362.2401 L234.66 367.9845 Z" stroke="none" clip-path="url(#clipPath2)"/>
      <path fill="none" d="M320.8708 286.0062 L277.1024 196.6687" clip-path="url(#clipPath2)"/>
      <path d="M273.5828 189.4846 L274.3722 202.4606 L277.5424 197.5668 L283.3524 198.061 Z" stroke="none" clip-path="url(#clipPath2)"/>
      <path fill="none" d="M487.8967 284.0001 L319.2921 193.2856" clip-path="url(#clipPath2)"/>
      <path d="M312.2471 189.4951 L320.4456 199.5839 L320.1728 193.7594 L325.1837 190.7776 Z" stroke="none" clip-path="url(#clipPath2)"/>
      <path fill="none" d="M476.7082 418.9987 L397.4776 363.5787" clip-path="url(#clipPath2)"/>
      <path d="M390.9222 358.9933 L397.8895 369.9685 L398.2971 364.1518 L403.6212 361.7742 Z" stroke="none" clip-path="url(#clipPath2)"/>
      <path fill="none" d="M3.3161 566.0278 L-17.5974 483.7474" clip-path="url(#clipPath2)"/>
      <path d="M-19.5681 475.994 L-21.4579 488.8559 L-17.351 484.7166 L-11.7661 486.3925 Z" stroke="none" clip-path="url(#clipPath2)"/>
      <path fill="none" d="M102.0766 606.5159 L65.75 529 L1.8149 480.8014" clip-path="url(#clipPath2)"/>
      <path d="M-4.5732 475.9856 L1.9991 487.2019 L2.6134 481.4034 L8.0188 479.2167 Z" stroke="none" clip-path="url(#clipPath2)"/>
      <path fill="none" d="M275.2509 566.0063 L363.825 498 L460.8884 450.5273" clip-path="url(#clipPath2)"/>
      <path d="M468.075 447.0125 L455.0984 447.7932 L459.9901 450.9666 L459.492 456.7763 Z" stroke="none" clip-path="url(#clipPath2)"/>
      <path fill="none" d="M345.5273 606.5084 L386.625 523.2 L473.4679 452.0535" clip-path="url(#clipPath2)"/>
      <path d="M479.6563 446.9836 L467.205 450.7207 L472.6943 452.6873 L473.5424 458.4562 Z" stroke="none" clip-path="url(#clipPath2)"/>
      <path fill="none" d="M137.5369 285.9944 L226.4923 195.1965" clip-path="url(#clipPath2)"/>
      <path d="M232.0909 189.4819 L220.1215 194.5546 L225.7925 195.9108 L227.2646 201.5529 Z" stroke="none" clip-path="url(#clipPath2)"/>
      <path fill="none" d="M48.6144 374.9855 L73.2041 350.613" clip-path="url(#clipPath2)"/>
      <path d="M78.8859 344.9813 L66.8433 349.8777 L72.4938 351.317 L73.8829 356.9801 Z" stroke="none" clip-path="url(#clipPath2)"/>
      <path fill="none" d="M815.2134 564.9741 L772.125 504 L558.765 448.9944" clip-path="url(#clipPath2)"/>
      <path d="M551.0183 446.9972 L561.3901 454.8346 L559.7333 449.244 L563.8866 445.1512 Z" stroke="none" clip-path="url(#clipPath2)"/>
      <path fill="none" d="M919.2561 606.4855 L887.125 514 L571.9918 448.6163" clip-path="url(#clipPath2)"/>
      <path d="M564.1586 446.9911 L574.8926 454.3246 L572.9709 448.8195 L576.9241 444.5332 Z" stroke="none" clip-path="url(#clipPath2)"/>
      <path fill="none" d="M-188.7775 294.3798 L156.8945 191.7791" clip-path="url(#clipPath2)"/>
      <path d="M164.5638 189.5027 L151.6371 188.1239 L155.9359 192.0636 L154.4826 197.7106 Z" stroke="none" clip-path="url(#clipPath2)"/>
      <path fill="none" d="M731.3777 369.0063 L640.7054 344.2196" clip-path="url(#clipPath2)"/>
      <path d="M632.9885 342.11 L643.2454 350.0974 L641.67 344.4833 L645.8823 340.4513 Z" stroke="none" clip-path="url(#clipPath2)"/>
      <path fill="none" d="M685.7766 256.0073 L394.5818 191.2395" clip-path="url(#clipPath2)"/>
      <path d="M386.7727 189.5025 L397.4008 196.9886 L395.558 191.4566 L399.572 187.2272 Z" stroke="none" clip-path="url(#clipPath2)"/>
      <path fill="none" d="M-125.2687 198.8809 L5.3703 186.1125" clip-path="url(#clipPath2)"/>
      <path d="M13.3324 185.3343 L0.9029 181.5253 L4.3751 186.2098 L1.8757 191.4779 Z" stroke="none" clip-path="url(#clipPath2)"/>
      <path fill="none" d="M691.982 167.6334 L514.1245 165.0067" clip-path="url(#clipPath2)"/>
      <path d="M506.1254 164.8886 L518.0502 170.0652 L515.1244 165.0215 L518.1979 160.0663 Z" stroke="none" clip-path="url(#clipPath2)"/>
      <path fill="none" d="M481.4149 566.0034 L538.0793 528.3972" clip-path="url(#clipPath2)"/>
      <path d="M544.7449 523.9735 L531.9816 526.4431 L537.2461 528.9502 L537.5113 534.7751 Z" stroke="none" clip-path="url(#clipPath2)"/>
      <path fill="none" d="M639.0645 566.0034 L590.4362 528.8319" clip-path="url(#clipPath2)"/>
      <path d="M584.0804 523.9735 L590.5776 535.2335 L591.2307 529.4392 L596.6506 527.2887 Z" stroke="none" clip-path="url(#clipPath2)"/>
      <path fill="none" d="M551.6745 606.4987 L562.5928 531.9099" clip-path="url(#clipPath2)"/>
      <path d="M563.7515 523.9942 L557.0662 535.1435 L562.448 532.8993 L566.9608 536.5919 Z" stroke="none" clip-path="url(#clipPath2)"/>
      <path fill="none" d="M755.125 606.5095 L755.125 542 L656.564 525.3411" clip-path="url(#clipPath2)"/>
      <path d="M648.6759 524.0078 L659.6748 530.9377 L657.55 525.5077 L661.3414 521.0776 Z" stroke="none" clip-path="url(#clipPath2)"/>
      <path fill="none" d="M553.2363 495.9949 L514.6221 452.9504" clip-path="url(#clipPath2)"/>
      <path d="M509.28 446.9954 L513.5712 459.2667 L515.2898 453.6948 L521.015 452.5891 Z" stroke="none" clip-path="url(#clipPath2)"/>
    </g>
  </g>
</svg>
