<?xml version="1.0" encoding="UTF-8"?><svg xmlns="http://www.w3.org/2000/svg" xmlns:xlink="http://www.w3.org/1999/xlink" fill-opacity="1" color-rendering="auto" color-interpolation="auto" text-rendering="auto" stroke="black" stroke-linecap="square" width="1044" stroke-miterlimit="10" shape-rendering="auto" stroke-opacity="1" fill="black" stroke-dasharray="none" font-weight="normal" stroke-width="1" height="441" font-family="'Dialog'" font-style="normal" stroke-linejoin="miter" font-size="12px" stroke-dashoffset="0" image-rendering="auto">
  <!--Generated by ySVG 2.5-->
  <defs id="genericDefs"/>
  <g>
    <defs id="defs1">
      <clipPath clipPathUnits="userSpaceOnUse" id="clipPath1">
        <path d="M0 0 L1044 0 L1044 441 L0 441 L0 0 Z"/>
      </clipPath>
      <clipPath clipPathUnits="userSpaceOnUse" id="clipPath2">
        <path d="M-238 -17 L806 -17 L806 424 L-238 424 L-238 -17 Z"/>
      </clipPath>
      <clipPath clipPathUnits="userSpaceOnUse" id="clipPath3">
        <path d="M177 -2 L177 26 L296 26 L296 -2 Z"/>
      </clipPath>
      <clipPath clipPathUnits="userSpaceOnUse" id="clipPath4">
        <path d="M130 91 L130 149 L342 149 L342 91 Z"/>
      </clipPath>
      <clipPath clipPathUnits="userSpaceOnUse" id="clipPath5">
        <path d="M-211 162 L-211 230 L-15 230 L-15 162 Z"/>
      </clipPath>
      <clipPath clipPathUnits="userSpaceOnUse" id="clipPath6">
        <path d="M52 308 L52 400 L304 400 L304 308 Z"/>
      </clipPath>
      <clipPath clipPathUnits="userSpaceOnUse" id="clipPath7">
        <path d="M334 308 L334 409 L552 409 L552 308 Z"/>
      </clipPath>
      <clipPath clipPathUnits="userSpaceOnUse" id="clipPath8">
        <path d="M438 162 L438 220 L757 220 L757 162 Z"/>
      </clipPath>
      <clipPath clipPathUnits="userSpaceOnUse" id="clipPath9">
        <path d="M572 308 L572 409 L790 409 L790 308 Z"/>
      </clipPath>
      <clipPath clipPathUnits="userSpaceOnUse" id="clipPath10">
        <path d="M-198 260 L-198 312 L-15 312 L-15 260 Z"/>
      </clipPath>
      <clipPath clipPathUnits="userSpaceOnUse" id="clipPath11">
        <path d="M-198 348 L-198 400 L-15 400 L-15 348 Z"/>
      </clipPath>
      <clipPath clipPathUnits="userSpaceOnUse" id="clipPath12">
        <path d="M-219 72 L-219 135 L4 135 L4 72 Z"/>
      </clipPath>
    </defs>
    <g fill="white" text-rendering="geometricPrecision" shape-rendering="geometricPrecision" transform="translate(238,17)" stroke="white">
      <rect x="-238" width="1044" height="441" y="-17" clip-path="url(#clipPath2)" stroke="none"/>
    </g>
    <g fill="rgb(204,255,255)" text-rendering="geometricPrecision" shape-rendering="geometricPrecision" transform="matrix(1,0,0,1,238,17)" stroke="rgb(204,255,255)">
      <rect x="178" width="117" height="26" y="-1" clip-path="url(#clipPath2)" stroke="none"/>
      <rect x="177" y="-2" clip-path="url(#clipPath2)" fill="white" width="1" height="28" stroke="none"/>
      <rect x="178" y="-2" clip-path="url(#clipPath2)" fill="white" width="117" height="1" stroke="none"/>
      <rect x="178" y="25" clip-path="url(#clipPath2)" fill="rgb(142,178,178)" width="118" height="1" stroke="none"/>
      <rect x="295" y="-2" clip-path="url(#clipPath2)" fill="rgb(142,178,178)" width="1" height="27" stroke="none"/>
    </g>
    <g font-size="13px" stroke-linecap="butt" transform="matrix(1,0,0,1,238,17)" text-rendering="geometricPrecision" font-family="sans-serif" shape-rendering="geometricPrecision" font-weight="bold" stroke-miterlimit="1.45">
      <text x="189.3323" xml:space="preserve" y="15.0669" clip-path="url(#clipPath3)" stroke="none">AbstractTree</text>
    </g>
    <g fill="rgb(204,255,255)" text-rendering="geometricPrecision" shape-rendering="geometricPrecision" transform="matrix(1,0,0,1,238,17)" stroke="rgb(204,255,255)">
      <rect x="131" width="210" height="56" y="92" clip-path="url(#clipPath2)" stroke="none"/>
      <rect x="130" y="91" clip-path="url(#clipPath2)" fill="white" width="1" height="58" stroke="none"/>
      <rect x="131" y="91" clip-path="url(#clipPath2)" fill="white" width="210" height="1" stroke="none"/>
      <rect x="131" y="148" clip-path="url(#clipPath2)" fill="rgb(142,178,178)" width="211" height="1" stroke="none"/>
      <rect x="341" y="91" clip-path="url(#clipPath2)" fill="rgb(142,178,178)" width="1" height="57" stroke="none"/>
    </g>
    <g font-size="13px" stroke-linecap="butt" transform="matrix(1,0,0,1,238,17)" text-rendering="geometricPrecision" font-family="sans-serif" shape-rendering="geometricPrecision" font-weight="bold" stroke-miterlimit="1.45">
      <text x="196.8638" xml:space="preserve" y="108.3931" clip-path="url(#clipPath4)" stroke="none">Instruction</text>
      <text x="134.4854" xml:space="preserve" y="123.5259" clip-path="url(#clipPath4)" stroke="none">--------------------------------------</text>
      <text x="138.3765" xml:space="preserve" y="138.6587" clip-path="url(#clipPath4)" stroke="none">declarationLineNumber:int</text>
    </g>
    <g fill="rgb(204,255,255)" text-rendering="geometricPrecision" shape-rendering="geometricPrecision" transform="matrix(1,0,0,1,238,17)" stroke="rgb(204,255,255)">
      <rect x="-210" width="194" height="66" y="163" clip-path="url(#clipPath2)" stroke="none"/>
      <rect x="-211" y="162" clip-path="url(#clipPath2)" fill="white" width="1" height="68" stroke="none"/>
      <rect x="-210" y="162" clip-path="url(#clipPath2)" fill="white" width="194" height="1" stroke="none"/>
      <rect x="-210" y="229" clip-path="url(#clipPath2)" fill="rgb(142,178,178)" width="195" height="1" stroke="none"/>
      <rect x="-16" y="162" clip-path="url(#clipPath2)" fill="rgb(142,178,178)" width="1" height="67" stroke="none"/>
    </g>
    <g font-size="13px" stroke-linecap="butt" transform="matrix(1,0,0,1,238,17)" text-rendering="geometricPrecision" font-family="sans-serif" shape-rendering="geometricPrecision" font-weight="bold" stroke-miterlimit="1.45">
      <text x="-194.0056" xml:space="preserve" y="179.0669" clip-path="url(#clipPath5)" stroke="none">AffectationInstruction</text>
      <text x="-185.8394" xml:space="preserve" y="194.1997" clip-path="url(#clipPath5)" stroke="none">---------------------------</text>
      <text x="-166.4854" xml:space="preserve" y="209.3325" clip-path="url(#clipPath5)" stroke="none">src:Expression</text>
      <text x="-161.3406" xml:space="preserve" y="224.4653" clip-path="url(#clipPath5)" stroke="none">dst:Identifier</text>
    </g>
    <g fill="rgb(204,255,255)" text-rendering="geometricPrecision" shape-rendering="geometricPrecision" transform="matrix(1,0,0,1,238,17)" stroke="rgb(204,255,255)">
      <rect x="53" width="250" height="90" y="309" clip-path="url(#clipPath2)" stroke="none"/>
      <rect x="52" y="308" clip-path="url(#clipPath2)" fill="white" width="1" height="92" stroke="none"/>
      <rect x="53" y="308" clip-path="url(#clipPath2)" fill="white" width="250" height="1" stroke="none"/>
      <rect x="53" y="399" clip-path="url(#clipPath2)" fill="rgb(142,178,178)" width="251" height="1" stroke="none"/>
      <rect x="303" y="308" clip-path="url(#clipPath2)" fill="rgb(142,178,178)" width="1" height="91" stroke="none"/>
    </g>
    <g font-size="13px" stroke-linecap="butt" transform="matrix(1,0,0,1,238,17)" text-rendering="geometricPrecision" font-family="sans-serif" shape-rendering="geometricPrecision" font-weight="bold" stroke-miterlimit="1.45">
      <text x="132.9924" xml:space="preserve" y="325.0669" clip-path="url(#clipPath6)" stroke="none">IfInstruction</text>
      <text x="105.5356" xml:space="preserve" y="340.1997" clip-path="url(#clipPath6)" stroke="none">---------------------------</text>
      <text x="101.562" xml:space="preserve" y="355.3325" clip-path="url(#clipPath6)" stroke="none">condition:Expression</text>
      <text x="59.3628" xml:space="preserve" y="370.4653" clip-path="url(#clipPath6)" stroke="none">thenInstructions:BlocInstruction</text>
      <text x="61.2195" xml:space="preserve" y="385.5981" clip-path="url(#clipPath6)" stroke="none">elseInstructions:BlocInstruction</text>
    </g>
    <g fill="rgb(204,255,255)" text-rendering="geometricPrecision" shape-rendering="geometricPrecision" transform="matrix(1,0,0,1,238,17)" stroke="rgb(204,255,255)">
      <rect x="335" width="216" height="99" y="309" clip-path="url(#clipPath2)" stroke="none"/>
      <rect x="334" y="308" clip-path="url(#clipPath2)" fill="white" width="1" height="101" stroke="none"/>
      <rect x="335" y="308" clip-path="url(#clipPath2)" fill="white" width="216" height="1" stroke="none"/>
      <rect x="335" y="408" clip-path="url(#clipPath2)" fill="rgb(142,178,178)" width="217" height="1" stroke="none"/>
      <rect x="551" y="308" clip-path="url(#clipPath2)" fill="rgb(142,178,178)" width="1" height="100" stroke="none"/>
    </g>
    <g font-size="13px" stroke-linecap="butt" transform="matrix(1,0,0,1,238,17)" text-rendering="geometricPrecision" font-family="sans-serif" shape-rendering="geometricPrecision" font-weight="bold" stroke-miterlimit="1.45">
      <text x="374.1516" xml:space="preserve" y="325.0669" clip-path="url(#clipPath7)" stroke="none">ForLoopInstrcution</text>
      <text x="371.2856" xml:space="preserve" y="340.1997" clip-path="url(#clipPath7)" stroke="none">---------------------------</text>
      <text x="405.1853" xml:space="preserve" y="355.3325" clip-path="url(#clipPath7)" stroke="none">i:Identifier</text>
      <text x="357.927" xml:space="preserve" y="370.4653" clip-path="url(#clipPath7)" stroke="none">lowerBound:Expression</text>
      <text x="356.6924" xml:space="preserve" y="385.5981" clip-path="url(#clipPath7)" stroke="none">upperBound:Expression</text>
      <text x="342.0737" xml:space="preserve" y="400.731" clip-path="url(#clipPath7)" stroke="none">instructions:BlocInstruction</text>
    </g>
    <g fill="rgb(204,255,255)" text-rendering="geometricPrecision" shape-rendering="geometricPrecision" transform="matrix(1,0,0,1,238,17)" stroke="rgb(204,255,255)">
      <rect x="439" width="317" height="56" y="163" clip-path="url(#clipPath2)" stroke="none"/>
      <rect x="438" y="162" clip-path="url(#clipPath2)" fill="white" width="1" height="58" stroke="none"/>
      <rect x="439" y="162" clip-path="url(#clipPath2)" fill="white" width="317" height="1" stroke="none"/>
      <rect x="439" y="219" clip-path="url(#clipPath2)" fill="rgb(142,178,178)" width="318" height="1" stroke="none"/>
      <rect x="756" y="162" clip-path="url(#clipPath2)" fill="rgb(142,178,178)" width="1" height="57" stroke="none"/>
    </g>
    <g font-size="13px" stroke-linecap="butt" transform="matrix(1,0,0,1,238,17)" text-rendering="geometricPrecision" font-family="sans-serif" shape-rendering="geometricPrecision" font-weight="bold" stroke-miterlimit="1.45">
      <text x="542.2378" xml:space="preserve" y="179.0669" clip-path="url(#clipPath8)" stroke="none">BlocInstruction</text>
      <text x="452.1963" xml:space="preserve" y="194.1997" clip-path="url(#clipPath8)" stroke="none">------------------------------------------------------</text>
      <text x="450.9648" xml:space="preserve" y="209.3325" clip-path="url(#clipPath8)" stroke="none">instructionList:LinkedList&lt;Instruction&gt; </text>
    </g>
    <g fill="rgb(204,255,255)" text-rendering="geometricPrecision" shape-rendering="geometricPrecision" transform="matrix(1,0,0,1,238,17)" stroke="rgb(204,255,255)">
      <rect x="573" width="216" height="99" y="309" clip-path="url(#clipPath2)" stroke="none"/>
      <rect x="572" y="308" clip-path="url(#clipPath2)" fill="white" width="1" height="101" stroke="none"/>
      <rect x="573" y="308" clip-path="url(#clipPath2)" fill="white" width="216" height="1" stroke="none"/>
      <rect x="573" y="408" clip-path="url(#clipPath2)" fill="rgb(142,178,178)" width="217" height="1" stroke="none"/>
      <rect x="789" y="308" clip-path="url(#clipPath2)" fill="rgb(142,178,178)" width="1" height="100" stroke="none"/>
    </g>
    <g font-size="13px" stroke-linecap="butt" transform="matrix(1,0,0,1,238,17)" text-rendering="geometricPrecision" font-family="sans-serif" shape-rendering="geometricPrecision" font-weight="bold" stroke-miterlimit="1.45">
      <text x="603.1013" xml:space="preserve" y="325.0669" clip-path="url(#clipPath9)" stroke="none">WhileLoopInstrcution</text>
      <text x="608.7856" xml:space="preserve" y="340.1997" clip-path="url(#clipPath9)" stroke="none">---------------------------</text>
      <text x="604.812" xml:space="preserve" y="355.3325" clip-path="url(#clipPath9)" stroke="none">condition:Expression</text>
      <text x="579.5737" xml:space="preserve" y="370.4653" clip-path="url(#clipPath9)" stroke="none">instructions:BlocInstruction</text>
    </g>
    <g fill="rgb(204,255,255)" text-rendering="geometricPrecision" shape-rendering="geometricPrecision" transform="matrix(1,0,0,1,238,17)" stroke="rgb(204,255,255)">
      <rect x="-197" width="181" height="50" y="261" clip-path="url(#clipPath2)" stroke="none"/>
      <rect x="-198" y="260" clip-path="url(#clipPath2)" fill="white" width="1" height="52" stroke="none"/>
      <rect x="-197" y="260" clip-path="url(#clipPath2)" fill="white" width="181" height="1" stroke="none"/>
      <rect x="-197" y="311" clip-path="url(#clipPath2)" fill="rgb(142,178,178)" width="182" height="1" stroke="none"/>
      <rect x="-16" y="260" clip-path="url(#clipPath2)" fill="rgb(142,178,178)" width="1" height="51" stroke="none"/>
    </g>
    <g font-size="13px" stroke-linecap="butt" transform="matrix(1,0,0,1,238,17)" text-rendering="geometricPrecision" font-family="sans-serif" shape-rendering="geometricPrecision" font-weight="bold" stroke-miterlimit="1.45">
      <text x="-166.7551" xml:space="preserve" y="277.0669" clip-path="url(#clipPath10)" stroke="none">WriteInstruction</text>
      <text x="-179.3394" xml:space="preserve" y="292.1997" clip-path="url(#clipPath10)" stroke="none">---------------------------</text>
      <text x="-173.6455" xml:space="preserve" y="307.3325" clip-path="url(#clipPath10)" stroke="none">output:Expression</text>
    </g>
    <g fill="rgb(204,255,255)" text-rendering="geometricPrecision" shape-rendering="geometricPrecision" transform="matrix(1,0,0,1,238,17)" stroke="rgb(204,255,255)">
      <rect x="-197" width="181" height="50" y="349" clip-path="url(#clipPath2)" stroke="none"/>
      <rect x="-198" y="348" clip-path="url(#clipPath2)" fill="white" width="1" height="52" stroke="none"/>
      <rect x="-197" y="348" clip-path="url(#clipPath2)" fill="white" width="181" height="1" stroke="none"/>
      <rect x="-197" y="399" clip-path="url(#clipPath2)" fill="rgb(142,178,178)" width="182" height="1" stroke="none"/>
      <rect x="-16" y="348" clip-path="url(#clipPath2)" fill="rgb(142,178,178)" width="1" height="51" stroke="none"/>
    </g>
    <g font-size="13px" stroke-linecap="butt" transform="matrix(1,0,0,1,238,17)" text-rendering="geometricPrecision" font-family="sans-serif" shape-rendering="geometricPrecision" font-weight="bold" stroke-miterlimit="1.45">
      <text x="-165.0889" xml:space="preserve" y="365.0669" clip-path="url(#clipPath11)" stroke="none">ReadInstruction</text>
      <text x="-179.3394" xml:space="preserve" y="380.1997" clip-path="url(#clipPath11)" stroke="none">---------------------------</text>
      <text x="-154.8406" xml:space="preserve" y="395.3325" clip-path="url(#clipPath11)" stroke="none">dst:Identifier</text>
    </g>
    <g fill="rgb(204,255,255)" text-rendering="geometricPrecision" shape-rendering="geometricPrecision" transform="matrix(1,0,0,1,238,17)" stroke="rgb(204,255,255)">
      <rect x="-218" width="221" height="61" y="73" clip-path="url(#clipPath2)" stroke="none"/>
      <rect x="-219" y="72" clip-path="url(#clipPath2)" fill="white" width="1" height="63" stroke="none"/>
      <rect x="-218" y="72" clip-path="url(#clipPath2)" fill="white" width="221" height="1" stroke="none"/>
      <rect x="-218" y="134" clip-path="url(#clipPath2)" fill="rgb(142,178,178)" width="222" height="1" stroke="none"/>
      <rect x="3" y="72" clip-path="url(#clipPath2)" fill="rgb(142,178,178)" width="1" height="62" stroke="none"/>
    </g>
    <g font-size="13px" stroke-linecap="butt" transform="matrix(1,0,0,1,238,17)" text-rendering="geometricPrecision" font-family="sans-serif" shape-rendering="geometricPrecision" font-weight="bold" stroke-miterlimit="1.45">
      <text x="-172.6174" xml:space="preserve" y="89.0669" clip-path="url(#clipPath12)" stroke="none">ReturnInstruction</text>
      <text x="-220.8057" xml:space="preserve" y="104.1997" clip-path="url(#clipPath12)" stroke="none">------------------------------------------</text>
      <text x="-213.198" xml:space="preserve" y="119.3325" clip-path="url(#clipPath12)" stroke="none">returnExpression:Expression</text>
      <path fill="none" d="M237 91.314 L237 33.9806" clip-path="url(#clipPath2)"/>
      <path d="M237 25.9806 L232 37.9806 L237 34.9806 L242 37.9806 Z" stroke="none" clip-path="url(#clipPath2)"/>
      <path fill="none" d="M-14.6052 174.726 L122.8812 144.9999" clip-path="url(#clipPath2)"/>
      <path d="M130.7005 143.3093 L117.9149 140.9581 L121.9037 145.2112 L120.0281 150.7323 Z" stroke="none" clip-path="url(#clipPath2)"/>
      <path fill="none" d="M156.3864 307.9892 L221.3844 156.6783" clip-path="url(#clipPath2)"/>
      <path d="M224.5419 149.3278 L215.2115 158.3801 L220.9897 157.5971 L224.3997 162.327 Z" stroke="none" clip-path="url(#clipPath2)"/>
      <path fill="none" d="M400.207 307.9985 L267.4519 155.343" clip-path="url(#clipPath2)"/>
      <path d="M262.2023 149.3063 L266.3039 161.6423 L268.1082 156.0975 L273.8497 155.0802 Z" stroke="none" clip-path="url(#clipPath2)"/>
      <path fill="none" d="M449.8158 162.0041 L351.1289 142.6772" clip-path="url(#clipPath2)"/>
      <path d="M343.278 141.1397 L354.0934 148.3527 L352.1102 142.8694 L356.0153 138.5392 Z" stroke="none" clip-path="url(#clipPath2)"/>
      <path fill="none" d="M587.3755 308.0131 L298.1566 153.0861" clip-path="url(#clipPath2)"/>
      <path d="M291.1046 149.3086 L299.3216 159.3824 L299.0381 153.5583 L304.0435 150.5674 Z" stroke="none" clip-path="url(#clipPath2)"/>
      <path fill="none" d="M-52.6185 260.0123 L169.6575 152.8062" clip-path="url(#clipPath2)"/>
      <path d="M176.8632 149.3308 L163.8825 150.0403 L168.7568 153.2406 L168.2268 159.0474 Z" stroke="none" clip-path="url(#clipPath2)"/>
      <path fill="none" d="M-71.2988 348.004 L191.3122 154.0664" clip-path="url(#clipPath2)"/>
      <path d="M197.7476 149.3139 L185.1243 152.4206 L190.5078 154.6605 L191.0649 160.4648 Z" stroke="none" clip-path="url(#clipPath2)"/>
      <path fill="none" d="M4.4036 108.9656 L122.7341 114.7451" clip-path="url(#clipPath2)"/>
      <path d="M130.7246 115.1354 L118.9828 109.556 L121.7353 114.6964 L118.4949 119.5441 Z" stroke="none" clip-path="url(#clipPath2)"/>
    </g>
  </g>
</svg>
