<?xml version="1.0" encoding="UTF-8"?><svg xmlns="http://www.w3.org/2000/svg" xmlns:xlink="http://www.w3.org/1999/xlink" fill-opacity="1" color-rendering="auto" color-interpolation="auto" text-rendering="auto" stroke="black" stroke-linecap="square" width="833" stroke-miterlimit="10" shape-rendering="auto" stroke-opacity="1" fill="black" stroke-dasharray="none" font-weight="normal" stroke-width="1" height="500" font-family="'Dialog'" font-style="normal" stroke-linejoin="miter" font-size="12px" stroke-dashoffset="0" image-rendering="auto">
  <!--Generated by ySVG 2.5-->
  <defs id="genericDefs"/>
  <g>
    <defs id="defs1">
      <clipPath clipPathUnits="userSpaceOnUse" id="clipPath1">
        <path d="M0 0 L833 0 L833 500 L0 500 L0 0 Z"/>
      </clipPath>
      <clipPath clipPathUnits="userSpaceOnUse" id="clipPath2">
        <path d="M-124 54 L709 54 L709 554 L-124 554 L-124 54 Z"/>
      </clipPath>
      <clipPath clipPathUnits="userSpaceOnUse" id="clipPath3">
        <path d="M200 69 L200 97 L319 97 L319 69 Z"/>
      </clipPath>
      <clipPath clipPathUnits="userSpaceOnUse" id="clipPath4">
        <path d="M204 133 L204 161 L313 161 L313 133 Z"/>
      </clipPath>
      <clipPath clipPathUnits="userSpaceOnUse" id="clipPath5">
        <path d="M184 202 L184 273 L334 273 L334 202 Z"/>
      </clipPath>
      <clipPath clipPathUnits="userSpaceOnUse" id="clipPath6">
        <path d="M441 202 L441 256 L591 256 L591 202 Z"/>
      </clipPath>
      <clipPath clipPathUnits="userSpaceOnUse" id="clipPath7">
        <path d="M-109 202 L-109 256 L41 256 L41 202 Z"/>
      </clipPath>
      <clipPath clipPathUnits="userSpaceOnUse" id="clipPath8">
        <path d="M12 352 L12 380 L131 380 L131 352 Z"/>
      </clipPath>
      <clipPath clipPathUnits="userSpaceOnUse" id="clipPath9">
        <path d="M409 352 L409 380 L528 380 L528 352 Z"/>
      </clipPath>
      <clipPath clipPathUnits="userSpaceOnUse" id="clipPath10">
        <path d="M-66 451 L-66 479 L18 479 L18 451 Z"/>
      </clipPath>
      <clipPath clipPathUnits="userSpaceOnUse" id="clipPath11">
        <path d="M-8 510 L-8 538 L101 538 L101 510 Z"/>
      </clipPath>
      <clipPath clipPathUnits="userSpaceOnUse" id="clipPath12">
        <path d="M75 452 L75 480 L154 480 L154 452 Z"/>
      </clipPath>
      <clipPath clipPathUnits="userSpaceOnUse" id="clipPath13">
        <path d="M147 510 L147 538 L226 538 L226 510 Z"/>
      </clipPath>
      <clipPath clipPathUnits="userSpaceOnUse" id="clipPath14">
        <path d="M295 451 L295 479 L379 479 L379 451 Z"/>
      </clipPath>
      <clipPath clipPathUnits="userSpaceOnUse" id="clipPath15">
        <path d="M345 509 L345 537 L429 537 L429 509 Z"/>
      </clipPath>
      <clipPath clipPathUnits="userSpaceOnUse" id="clipPath16">
        <path d="M418 451 L418 479 L502 479 L502 451 Z"/>
      </clipPath>
      <clipPath clipPathUnits="userSpaceOnUse" id="clipPath17">
        <path d="M478 509 L478 537 L562 537 L562 509 Z"/>
      </clipPath>
      <clipPath clipPathUnits="userSpaceOnUse" id="clipPath18">
        <path d="M540 451 L540 479 L632 479 L632 451 Z"/>
      </clipPath>
      <clipPath clipPathUnits="userSpaceOnUse" id="clipPath19">
        <path d="M600 509 L600 537 L692 537 L692 509 Z"/>
      </clipPath>
    </defs>
    <g fill="white" text-rendering="geometricPrecision" shape-rendering="geometricPrecision" transform="translate(124,-54)" stroke="white">
      <rect x="-124" width="833" height="500" y="54" clip-path="url(#clipPath2)" stroke="none"/>
    </g>
    <g fill="rgb(204,255,255)" text-rendering="geometricPrecision" shape-rendering="geometricPrecision" transform="matrix(1,0,0,1,124,-54)" stroke="rgb(204,255,255)">
      <rect x="201" width="117" height="26" y="70" clip-path="url(#clipPath2)" stroke="none"/>
      <rect x="200" y="69" clip-path="url(#clipPath2)" fill="white" width="1" height="28" stroke="none"/>
      <rect x="201" y="69" clip-path="url(#clipPath2)" fill="white" width="117" height="1" stroke="none"/>
      <rect x="201" y="96" clip-path="url(#clipPath2)" fill="rgb(142,178,178)" width="118" height="1" stroke="none"/>
      <rect x="318" y="69" clip-path="url(#clipPath2)" fill="rgb(142,178,178)" width="1" height="27" stroke="none"/>
    </g>
    <g font-size="13px" stroke-linecap="butt" transform="matrix(1,0,0,1,124,-54)" text-rendering="geometricPrecision" font-family="sans-serif" shape-rendering="geometricPrecision" font-weight="bold" stroke-miterlimit="1.45">
      <text x="209.6606" xml:space="preserve" y="86.0669" clip-path="url(#clipPath3)" stroke="none">ArbreAbstrait</text>
    </g>
    <g fill="rgb(204,255,255)" text-rendering="geometricPrecision" shape-rendering="geometricPrecision" transform="matrix(1,0,0,1,124,-54)" stroke="rgb(204,255,255)">
      <rect x="205" width="107" height="26" y="134" clip-path="url(#clipPath2)" stroke="none"/>
      <rect x="204" y="133" clip-path="url(#clipPath2)" fill="white" width="1" height="28" stroke="none"/>
      <rect x="205" y="133" clip-path="url(#clipPath2)" fill="white" width="107" height="1" stroke="none"/>
      <rect x="205" y="160" clip-path="url(#clipPath2)" fill="rgb(142,178,178)" width="108" height="1" stroke="none"/>
      <rect x="312" y="133" clip-path="url(#clipPath2)" fill="rgb(142,178,178)" width="1" height="27" stroke="none"/>
    </g>
    <g font-size="13px" stroke-linecap="butt" transform="matrix(1,0,0,1,124,-54)" text-rendering="geometricPrecision" font-family="sans-serif" shape-rendering="geometricPrecision" font-weight="bold" stroke-miterlimit="1.45">
      <text x="219.7915" xml:space="preserve" y="150.0669" clip-path="url(#clipPath4)" stroke="none">Expression</text>
    </g>
    <g fill="rgb(204,255,255)" text-rendering="geometricPrecision" shape-rendering="geometricPrecision" transform="matrix(1,0,0,1,124,-54)" stroke="rgb(204,255,255)">
      <rect x="185" width="148" height="69" y="203" clip-path="url(#clipPath2)" stroke="none"/>
      <rect x="184" y="202" clip-path="url(#clipPath2)" fill="white" width="1" height="71" stroke="none"/>
      <rect x="185" y="202" clip-path="url(#clipPath2)" fill="white" width="148" height="1" stroke="none"/>
      <rect x="185" y="272" clip-path="url(#clipPath2)" fill="rgb(142,178,178)" width="149" height="1" stroke="none"/>
      <rect x="333" y="202" clip-path="url(#clipPath2)" fill="rgb(142,178,178)" width="1" height="70" stroke="none"/>
    </g>
    <g font-size="13px" stroke-linecap="butt" transform="matrix(1,0,0,1,124,-54)" text-rendering="geometricPrecision" font-family="sans-serif" shape-rendering="geometricPrecision" font-weight="bold" stroke-miterlimit="1.45">
      <text x="233.7119" xml:space="preserve" y="219.0669" clip-path="url(#clipPath5)" stroke="none">Binaire</text>
      <text x="186.9106" xml:space="preserve" y="234.1997" clip-path="url(#clipPath5)" stroke="none">---------------------------</text>
      <text x="193.2361" xml:space="preserve" y="249.3325" clip-path="url(#clipPath5)" stroke="none">gaucheExpression</text>
      <text x="197.7239" xml:space="preserve" y="264.4653" clip-path="url(#clipPath5)" stroke="none">droiteExpression</text>
    </g>
    <g fill="rgb(204,255,255)" text-rendering="geometricPrecision" shape-rendering="geometricPrecision" transform="matrix(1,0,0,1,124,-54)" stroke="rgb(204,255,255)">
      <rect x="442" width="148" height="52" y="203" clip-path="url(#clipPath2)" stroke="none"/>
      <rect x="441" y="202" clip-path="url(#clipPath2)" fill="white" width="1" height="54" stroke="none"/>
      <rect x="442" y="202" clip-path="url(#clipPath2)" fill="white" width="148" height="1" stroke="none"/>
      <rect x="442" y="255" clip-path="url(#clipPath2)" fill="rgb(142,178,178)" width="149" height="1" stroke="none"/>
      <rect x="590" y="202" clip-path="url(#clipPath2)" fill="rgb(142,178,178)" width="1" height="53" stroke="none"/>
    </g>
    <g font-size="13px" stroke-linecap="butt" transform="matrix(1,0,0,1,124,-54)" text-rendering="geometricPrecision" font-family="sans-serif" shape-rendering="geometricPrecision" font-weight="bold" stroke-miterlimit="1.45">
      <text x="478.5059" xml:space="preserve" y="219.0669" clip-path="url(#clipPath6)" stroke="none">Identifiant</text>
      <text x="444.2856" xml:space="preserve" y="234.1997" clip-path="url(#clipPath6)" stroke="none">---------------------------</text>
      <text x="476.1572" xml:space="preserve" y="249.3325" clip-path="url(#clipPath6)" stroke="none">nom:String</text>
    </g>
    <g fill="rgb(204,255,255)" text-rendering="geometricPrecision" shape-rendering="geometricPrecision" transform="matrix(1,0,0,1,124,-54)" stroke="rgb(204,255,255)">
      <rect x="-108" width="148" height="52" y="203" clip-path="url(#clipPath2)" stroke="none"/>
      <rect x="-109" y="202" clip-path="url(#clipPath2)" fill="white" width="1" height="54" stroke="none"/>
      <rect x="-108" y="202" clip-path="url(#clipPath2)" fill="white" width="148" height="1" stroke="none"/>
      <rect x="-108" y="255" clip-path="url(#clipPath2)" fill="rgb(142,178,178)" width="149" height="1" stroke="none"/>
      <rect x="40" y="202" clip-path="url(#clipPath2)" fill="rgb(142,178,178)" width="1" height="53" stroke="none"/>
    </g>
    <g font-size="13px" stroke-linecap="butt" transform="matrix(1,0,0,1,124,-54)" text-rendering="geometricPrecision" font-family="sans-serif" shape-rendering="geometricPrecision" font-weight="bold" stroke-miterlimit="1.45">
      <text x="-62.5703" xml:space="preserve" y="219.0669" clip-path="url(#clipPath7)" stroke="none">Nombre</text>
      <text x="-106.4644" xml:space="preserve" y="234.1997" clip-path="url(#clipPath7)" stroke="none">---------------------------</text>
      <text x="-69.4702" xml:space="preserve" y="249.3325" clip-path="url(#clipPath7)" stroke="none">valeur:Int</text>
    </g>
    <g fill="rgb(204,255,255)" text-rendering="geometricPrecision" shape-rendering="geometricPrecision" transform="matrix(1,0,0,1,124,-54)" stroke="rgb(204,255,255)">
      <rect x="13" width="117" height="26" y="353" clip-path="url(#clipPath2)" stroke="none"/>
      <rect x="12" y="352" clip-path="url(#clipPath2)" fill="white" width="1" height="28" stroke="none"/>
      <rect x="13" y="352" clip-path="url(#clipPath2)" fill="white" width="117" height="1" stroke="none"/>
      <rect x="13" y="379" clip-path="url(#clipPath2)" fill="rgb(142,178,178)" width="118" height="1" stroke="none"/>
      <rect x="130" y="352" clip-path="url(#clipPath2)" fill="rgb(142,178,178)" width="1" height="27" stroke="none"/>
    </g>
    <g font-size="13px" stroke-linecap="butt" transform="matrix(1,0,0,1,124,-54)" text-rendering="geometricPrecision" font-family="sans-serif" shape-rendering="geometricPrecision" font-weight="bold" stroke-miterlimit="1.45">
      <text x="24.0959" xml:space="preserve" y="369.0669" clip-path="url(#clipPath8)" stroke="none">Arithmetique</text>
    </g>
    <g fill="rgb(204,255,255)" text-rendering="geometricPrecision" shape-rendering="geometricPrecision" transform="matrix(1,0,0,1,124,-54)" stroke="rgb(204,255,255)">
      <rect x="410" width="117" height="26" y="353" clip-path="url(#clipPath2)" stroke="none"/>
      <rect x="409" y="352" clip-path="url(#clipPath2)" fill="white" width="1" height="28" stroke="none"/>
      <rect x="410" y="352" clip-path="url(#clipPath2)" fill="white" width="117" height="1" stroke="none"/>
      <rect x="410" y="379" clip-path="url(#clipPath2)" fill="rgb(142,178,178)" width="118" height="1" stroke="none"/>
      <rect x="527" y="352" clip-path="url(#clipPath2)" fill="rgb(142,178,178)" width="1" height="27" stroke="none"/>
    </g>
    <g font-size="13px" stroke-linecap="butt" transform="matrix(1,0,0,1,124,-54)" text-rendering="geometricPrecision" font-family="sans-serif" shape-rendering="geometricPrecision" font-weight="bold" stroke-miterlimit="1.45">
      <text x="438.6689" xml:space="preserve" y="369.0669" clip-path="url(#clipPath9)" stroke="none">Relation</text>
    </g>
    <g fill="rgb(204,255,255)" text-rendering="geometricPrecision" shape-rendering="geometricPrecision" transform="matrix(1,0,0,1,124,-54)" stroke="rgb(204,255,255)">
      <rect x="-65" width="82" height="26" y="452" clip-path="url(#clipPath2)" stroke="none"/>
      <rect x="-66" y="451" clip-path="url(#clipPath2)" fill="white" width="1" height="28" stroke="none"/>
      <rect x="-65" y="451" clip-path="url(#clipPath2)" fill="white" width="82" height="1" stroke="none"/>
      <rect x="-65" y="478" clip-path="url(#clipPath2)" fill="rgb(142,178,178)" width="83" height="1" stroke="none"/>
      <rect x="17" y="451" clip-path="url(#clipPath2)" fill="rgb(142,178,178)" width="1" height="27" stroke="none"/>
    </g>
    <g font-size="13px" stroke-linecap="butt" transform="matrix(1,0,0,1,124,-54)" text-rendering="geometricPrecision" font-family="sans-serif" shape-rendering="geometricPrecision" font-weight="bold" stroke-miterlimit="1.45">
      <text x="-55.2424" xml:space="preserve" y="468.0669" clip-path="url(#clipPath10)" stroke="none">Addition</text>
    </g>
    <g fill="rgb(204,255,255)" text-rendering="geometricPrecision" shape-rendering="geometricPrecision" transform="matrix(1,0,0,1,124,-54)" stroke="rgb(204,255,255)">
      <rect x="-7" width="107" height="26" y="511" clip-path="url(#clipPath2)" stroke="none"/>
      <rect x="-8" y="510" clip-path="url(#clipPath2)" fill="white" width="1" height="28" stroke="none"/>
      <rect x="-7" y="510" clip-path="url(#clipPath2)" fill="white" width="107" height="1" stroke="none"/>
      <rect x="-7" y="537" clip-path="url(#clipPath2)" fill="rgb(142,178,178)" width="108" height="1" stroke="none"/>
      <rect x="100" y="510" clip-path="url(#clipPath2)" fill="rgb(142,178,178)" width="1" height="27" stroke="none"/>
    </g>
    <g font-size="13px" stroke-linecap="butt" transform="matrix(1,0,0,1,124,-54)" text-rendering="geometricPrecision" font-family="sans-serif" shape-rendering="geometricPrecision" font-weight="bold" stroke-miterlimit="1.45">
      <text x="0.1265" xml:space="preserve" y="527.5669" clip-path="url(#clipPath11)" stroke="none">Soustraction</text>
    </g>
    <g fill="rgb(204,255,255)" text-rendering="geometricPrecision" shape-rendering="geometricPrecision" transform="matrix(1,0,0,1,124,-54)" stroke="rgb(204,255,255)">
      <rect x="76" width="77" height="26" y="453" clip-path="url(#clipPath2)" stroke="none"/>
      <rect x="75" y="452" clip-path="url(#clipPath2)" fill="white" width="1" height="28" stroke="none"/>
      <rect x="76" y="452" clip-path="url(#clipPath2)" fill="white" width="77" height="1" stroke="none"/>
      <rect x="76" y="479" clip-path="url(#clipPath2)" fill="rgb(142,178,178)" width="78" height="1" stroke="none"/>
      <rect x="153" y="452" clip-path="url(#clipPath2)" fill="rgb(142,178,178)" width="1" height="27" stroke="none"/>
    </g>
    <g font-size="13px" stroke-linecap="butt" transform="matrix(1,0,0,1,124,-54)" text-rendering="geometricPrecision" font-family="sans-serif" shape-rendering="geometricPrecision" font-weight="bold" stroke-miterlimit="1.45">
      <text x="88.1995" xml:space="preserve" y="469.5669" clip-path="url(#clipPath12)" stroke="none">Produit</text>
    </g>
    <g fill="rgb(204,255,255)" text-rendering="geometricPrecision" shape-rendering="geometricPrecision" transform="matrix(1,0,0,1,124,-54)" stroke="rgb(204,255,255)">
      <rect x="148" width="77" height="26" y="511" clip-path="url(#clipPath2)" stroke="none"/>
      <rect x="147" y="510" clip-path="url(#clipPath2)" fill="white" width="1" height="28" stroke="none"/>
      <rect x="148" y="510" clip-path="url(#clipPath2)" fill="white" width="77" height="1" stroke="none"/>
      <rect x="148" y="537" clip-path="url(#clipPath2)" fill="rgb(142,178,178)" width="78" height="1" stroke="none"/>
      <rect x="225" y="510" clip-path="url(#clipPath2)" fill="rgb(142,178,178)" width="1" height="27" stroke="none"/>
    </g>
    <g font-size="13px" stroke-linecap="butt" transform="matrix(1,0,0,1,124,-54)" text-rendering="geometricPrecision" font-family="sans-serif" shape-rendering="geometricPrecision" font-weight="bold" stroke-miterlimit="1.45">
      <text x="158.2214" xml:space="preserve" y="527.5669" clip-path="url(#clipPath13)" stroke="none">Division</text>
    </g>
    <g fill="rgb(204,255,255)" text-rendering="geometricPrecision" shape-rendering="geometricPrecision" transform="matrix(1,0,0,1,124,-54)" stroke="rgb(204,255,255)">
      <rect x="296" width="82" height="26" y="452" clip-path="url(#clipPath2)" stroke="none"/>
      <rect x="295" y="451" clip-path="url(#clipPath2)" fill="white" width="1" height="28" stroke="none"/>
      <rect x="296" y="451" clip-path="url(#clipPath2)" fill="white" width="82" height="1" stroke="none"/>
      <rect x="296" y="478" clip-path="url(#clipPath2)" fill="rgb(142,178,178)" width="83" height="1" stroke="none"/>
      <rect x="378" y="451" clip-path="url(#clipPath2)" fill="rgb(142,178,178)" width="1" height="27" stroke="none"/>
    </g>
    <g font-size="13px" stroke-linecap="butt" transform="matrix(1,0,0,1,124,-54)" text-rendering="geometricPrecision" font-family="sans-serif" shape-rendering="geometricPrecision" font-weight="bold" stroke-miterlimit="1.45">
      <text x="322.4177" xml:space="preserve" y="468.0669" clip-path="url(#clipPath14)" stroke="none">Egal</text>
    </g>
    <g fill="rgb(204,255,255)" text-rendering="geometricPrecision" shape-rendering="geometricPrecision" transform="matrix(1,0,0,1,124,-54)" stroke="rgb(204,255,255)">
      <rect x="346" width="82" height="26" y="510" clip-path="url(#clipPath2)" stroke="none"/>
      <rect x="345" y="509" clip-path="url(#clipPath2)" fill="white" width="1" height="28" stroke="none"/>
      <rect x="346" y="509" clip-path="url(#clipPath2)" fill="white" width="82" height="1" stroke="none"/>
      <rect x="346" y="536" clip-path="url(#clipPath2)" fill="rgb(142,178,178)" width="83" height="1" stroke="none"/>
      <rect x="428" y="509" clip-path="url(#clipPath2)" fill="rgb(142,178,178)" width="1" height="27" stroke="none"/>
    </g>
    <g font-size="13px" stroke-linecap="butt" transform="matrix(1,0,0,1,124,-54)" text-rendering="geometricPrecision" font-family="sans-serif" shape-rendering="geometricPrecision" font-weight="bold" stroke-miterlimit="1.45">
      <text x="362.5439" xml:space="preserve" y="526.0669" clip-path="url(#clipPath15)" stroke="none">InfEgal</text>
    </g>
    <g fill="rgb(204,255,255)" text-rendering="geometricPrecision" shape-rendering="geometricPrecision" transform="matrix(1,0,0,1,124,-54)" stroke="rgb(204,255,255)">
      <rect x="419" width="82" height="26" y="452" clip-path="url(#clipPath2)" stroke="none"/>
      <rect x="418" y="451" clip-path="url(#clipPath2)" fill="white" width="1" height="28" stroke="none"/>
      <rect x="419" y="451" clip-path="url(#clipPath2)" fill="white" width="82" height="1" stroke="none"/>
      <rect x="419" y="478" clip-path="url(#clipPath2)" fill="rgb(142,178,178)" width="83" height="1" stroke="none"/>
      <rect x="501" y="451" clip-path="url(#clipPath2)" fill="rgb(142,178,178)" width="1" height="27" stroke="none"/>
    </g>
    <g font-size="13px" stroke-linecap="butt" transform="matrix(1,0,0,1,124,-54)" text-rendering="geometricPrecision" font-family="sans-serif" shape-rendering="geometricPrecision" font-weight="bold" stroke-miterlimit="1.45">
      <text x="428.6677" xml:space="preserve" y="468.0669" clip-path="url(#clipPath16)" stroke="none">Inferieur</text>
    </g>
    <g fill="rgb(204,255,255)" text-rendering="geometricPrecision" shape-rendering="geometricPrecision" transform="matrix(1,0,0,1,124,-54)" stroke="rgb(204,255,255)">
      <rect x="479" width="82" height="26" y="510" clip-path="url(#clipPath2)" stroke="none"/>
      <rect x="478" y="509" clip-path="url(#clipPath2)" fill="white" width="1" height="28" stroke="none"/>
      <rect x="479" y="509" clip-path="url(#clipPath2)" fill="white" width="82" height="1" stroke="none"/>
      <rect x="479" y="536" clip-path="url(#clipPath2)" fill="rgb(142,178,178)" width="83" height="1" stroke="none"/>
      <rect x="561" y="509" clip-path="url(#clipPath2)" fill="rgb(142,178,178)" width="1" height="27" stroke="none"/>
    </g>
    <g font-size="13px" stroke-linecap="butt" transform="matrix(1,0,0,1,124,-54)" text-rendering="geometricPrecision" font-family="sans-serif" shape-rendering="geometricPrecision" font-weight="bold" stroke-miterlimit="1.45">
      <text x="488.0886" xml:space="preserve" y="526.0669" clip-path="url(#clipPath17)" stroke="none">Different</text>
    </g>
    <g fill="rgb(204,255,255)" text-rendering="geometricPrecision" shape-rendering="geometricPrecision" transform="matrix(1,0,0,1,124,-54)" stroke="rgb(204,255,255)">
      <rect x="541" width="90" height="26" y="452" clip-path="url(#clipPath2)" stroke="none"/>
      <rect x="540" y="451" clip-path="url(#clipPath2)" fill="white" width="1" height="28" stroke="none"/>
      <rect x="541" y="451" clip-path="url(#clipPath2)" fill="white" width="90" height="1" stroke="none"/>
      <rect x="541" y="478" clip-path="url(#clipPath2)" fill="rgb(142,178,178)" width="91" height="1" stroke="none"/>
      <rect x="631" y="451" clip-path="url(#clipPath2)" fill="rgb(142,178,178)" width="1" height="27" stroke="none"/>
    </g>
    <g font-size="13px" stroke-linecap="butt" transform="matrix(1,0,0,1,124,-54)" text-rendering="geometricPrecision" font-family="sans-serif" shape-rendering="geometricPrecision" font-weight="bold" stroke-miterlimit="1.45">
      <text x="551.0798" xml:space="preserve" y="468.0669" clip-path="url(#clipPath18)" stroke="none">Supérieur</text>
    </g>
    <g fill="rgb(204,255,255)" text-rendering="geometricPrecision" shape-rendering="geometricPrecision" transform="matrix(1,0,0,1,124,-54)" stroke="rgb(204,255,255)">
      <rect x="601" width="90" height="26" y="510" clip-path="url(#clipPath2)" stroke="none"/>
      <rect x="600" y="509" clip-path="url(#clipPath2)" fill="white" width="1" height="28" stroke="none"/>
      <rect x="601" y="509" clip-path="url(#clipPath2)" fill="white" width="90" height="1" stroke="none"/>
      <rect x="601" y="536" clip-path="url(#clipPath2)" fill="rgb(142,178,178)" width="91" height="1" stroke="none"/>
      <rect x="691" y="509" clip-path="url(#clipPath2)" fill="rgb(142,178,178)" width="1" height="27" stroke="none"/>
    </g>
    <g font-size="13px" stroke-linecap="butt" transform="matrix(1,0,0,1,124,-54)" text-rendering="geometricPrecision" font-family="sans-serif" shape-rendering="geometricPrecision" font-weight="bold" stroke-miterlimit="1.45">
      <text x="617.4561" xml:space="preserve" y="526.0669" clip-path="url(#clipPath19)" stroke="none">SupEgal</text>
      <path fill="none" d="M259.75 132.9688 L259.75 105.0049" clip-path="url(#clipPath2)"/>
      <path d="M259.75 97.0049 L254.75 109.0049 L259.75 106.0049 L264.75 109.0049 Z" stroke="none" clip-path="url(#clipPath2)"/>
      <path fill="none" d="M259.75 202.0159 L259.75 168.9957" clip-path="url(#clipPath2)"/>
      <path d="M259.75 160.9957 L254.75 172.9957 L259.75 169.9957 L264.75 172.9957 Z" stroke="none" clip-path="url(#clipPath2)"/>
      <path fill="none" d="M517.125 201.9639 L517.125 180 L322.572 155.0549" clip-path="url(#clipPath2)"/>
      <path d="M314.637 154.0375 L325.9037 160.523 L323.5639 155.1821 L327.1754 150.6042 Z" stroke="none" clip-path="url(#clipPath2)"/>
      <path fill="none" d="M-33.625 201.998 L-33.625 179 L196.8968 153.8557" clip-path="url(#clipPath2)"/>
      <path d="M204.8496 152.9883 L192.3782 149.319 L195.9027 153.9642 L193.4625 159.26 Z" stroke="none" clip-path="url(#clipPath2)"/>
      <path fill="none" d="M72.5 352.0293 L72.5 320 L177.0445 273.939" clip-path="url(#clipPath2)"/>
      <path d="M184.3654 270.7135 L171.3681 270.9762 L176.1293 274.3422 L175.4 280.1273 Z" stroke="none" clip-path="url(#clipPath2)"/>
      <path fill="none" d="M469.125 351.9814 L469.125 321 L342.5528 270.5222" clip-path="url(#clipPath2)"/>
      <path d="M335.1219 267.5588 L344.416 276.6483 L343.4817 270.8927 L348.1204 267.3597 Z" stroke="none" clip-path="url(#clipPath2)"/>
      <path fill="none" d="M-24.25 451.0352 L-24.25 421 L40.9089 383.9587" clip-path="url(#clipPath2)"/>
      <path d="M47.8637 380.0051 L34.9605 381.5888 L40.0396 384.4529 L39.9025 390.2823 Z" stroke="none" clip-path="url(#clipPath2)"/>
      <path fill="none" d="M46.75 510.5154 L46.75 441 L65.0866 387.5923" clip-path="url(#clipPath2)"/>
      <path d="M67.6844 380.0259 L59.0587 389.752 L64.7619 388.5381 L68.5168 392.9992 Z" stroke="none" clip-path="url(#clipPath2)"/>
      <path fill="none" d="M109.2905 452.4899 L81.5776 387.3402" clip-path="url(#clipPath2)"/>
      <path d="M78.4461 379.9786 L78.5423 392.9782 L81.969 388.2604 L87.7443 389.0639 Z" stroke="none" clip-path="url(#clipPath2)"/>
      <path fill="none" d="M187.5 510.5159 L187.5 433 L103.4175 384.0128" clip-path="url(#clipPath2)"/>
      <path d="M96.5051 379.9856 L104.3567 390.3467 L104.2816 384.5162 L109.3908 381.7062 Z" stroke="none" clip-path="url(#clipPath2)"/>
      <path fill="none" d="M338.125 450.9814 L338.125 420 L427.7954 383.0366" clip-path="url(#clipPath2)"/>
      <path d="M435.1917 379.9878 L422.1918 379.9384 L426.8709 383.4177 L426.0028 389.1837 Z" stroke="none" clip-path="url(#clipPath2)"/>
      <path fill="none" d="M388.125 508.9778 L388.125 418 L440.6004 384.3121" clip-path="url(#clipPath2)"/>
      <path d="M447.3325 379.9902 L434.5332 382.2655 L439.7589 384.8523 L439.9355 390.6806 Z" stroke="none" clip-path="url(#clipPath2)"/>
      <path fill="none" d="M460.625 451.017 L460.625 388.0234" clip-path="url(#clipPath2)"/>
      <path d="M460.625 380.0234 L455.625 392.0234 L460.625 389.0234 L465.625 392.0234 Z" stroke="none" clip-path="url(#clipPath2)"/>
      <path fill="none" d="M521.125 509.0278 L521.125 426 L486.4758 386.0201" clip-path="url(#clipPath2)"/>
      <path d="M481.2363 379.9746 L485.317 392.3175 L487.1307 386.7758 L492.8739 385.7682 Z" stroke="none" clip-path="url(#clipPath2)"/>
      <path fill="none" d="M587.125 451.0166 L587.125 422 L505.8812 383.4436" clip-path="url(#clipPath2)"/>
      <path d="M498.6538 380.0137 L507.3512 389.6758 L506.7846 383.8724 L511.6386 380.6415 Z" stroke="none" clip-path="url(#clipPath2)"/>
      <path fill="none" d="M647.125 509.0435 L647.125 422 L521.2997 382.4145" clip-path="url(#clipPath2)"/>
      <path d="M513.6685 380.0137 L523.6148 388.3845 L522.2536 382.7146 L526.6158 378.8454 Z" stroke="none" clip-path="url(#clipPath2)"/>
    </g>
  </g>
</svg>
