<?xml version="1.0" encoding="UTF-8"?><svg xmlns="http://www.w3.org/2000/svg" xmlns:xlink="http://www.w3.org/1999/xlink" fill-opacity="1" color-rendering="auto" color-interpolation="auto" text-rendering="auto" stroke="black" stroke-linecap="square" width="1052" stroke-miterlimit="10" shape-rendering="auto" stroke-opacity="1" fill="black" stroke-dasharray="none" font-weight="normal" stroke-width="1" height="493" font-family="'Dialog'" font-style="normal" stroke-linejoin="miter" font-size="12px" stroke-dashoffset="0" image-rendering="auto">
  <!--Generated by ySVG 2.5-->
  <defs id="genericDefs"/>
  <g>
    <defs id="defs1">
      <clipPath clipPathUnits="userSpaceOnUse" id="clipPath1">
        <path d="M0 0 L1052 0 L1052 493 L0 493 L0 0 Z"/>
      </clipPath>
      <clipPath clipPathUnits="userSpaceOnUse" id="clipPath2">
        <path d="M-244 54 L808 54 L808 547 L-244 547 L-244 54 Z"/>
      </clipPath>
      <clipPath clipPathUnits="userSpaceOnUse" id="clipPath3">
        <path d="M200 69 L200 97 L319 97 L319 69 Z"/>
      </clipPath>
      <clipPath clipPathUnits="userSpaceOnUse" id="clipPath4">
        <path d="M204 133 L204 161 L313 161 L313 133 Z"/>
      </clipPath>
      <clipPath clipPathUnits="userSpaceOnUse" id="clipPath5">
        <path d="M-148 174 L-148 242 L48 242 L48 174 Z"/>
      </clipPath>
      <clipPath clipPathUnits="userSpaceOnUse" id="clipPath6">
        <path d="M-229 318 L-229 410 L23 410 L23 318 Z"/>
      </clipPath>
      <clipPath clipPathUnits="userSpaceOnUse" id="clipPath7">
        <path d="M53 318 L53 419 L271 419 L271 318 Z"/>
      </clipPath>
      <clipPath clipPathUnits="userSpaceOnUse" id="clipPath8">
        <path d="M540 346 L540 419 L792 419 L792 346 Z"/>
      </clipPath>
      <clipPath clipPathUnits="userSpaceOnUse" id="clipPath9">
        <path d="M451 195 L451 253 L770 253 L770 195 Z"/>
      </clipPath>
      <clipPath clipPathUnits="userSpaceOnUse" id="clipPath10">
        <path d="M568 474 L568 532 L764 532 L764 474 Z"/>
      </clipPath>
      <clipPath clipPathUnits="userSpaceOnUse" id="clipPath11">
        <path d="M291 318 L291 419 L509 419 L509 318 Z"/>
      </clipPath>
    </defs>
    <g fill="white" text-rendering="geometricPrecision" shape-rendering="geometricPrecision" transform="translate(244,-54)" stroke="white">
      <rect x="-244" width="1052" height="493" y="54" clip-path="url(#clipPath2)" stroke="none"/>
    </g>
    <g fill="rgb(204,255,255)" text-rendering="geometricPrecision" shape-rendering="geometricPrecision" transform="matrix(1,0,0,1,244,-54)" stroke="rgb(204,255,255)">
      <rect x="201" width="117" height="26" y="70" clip-path="url(#clipPath2)" stroke="none"/>
      <rect x="200" y="69" clip-path="url(#clipPath2)" fill="white" width="1" height="28" stroke="none"/>
      <rect x="201" y="69" clip-path="url(#clipPath2)" fill="white" width="117" height="1" stroke="none"/>
      <rect x="201" y="96" clip-path="url(#clipPath2)" fill="rgb(142,178,178)" width="118" height="1" stroke="none"/>
      <rect x="318" y="69" clip-path="url(#clipPath2)" fill="rgb(142,178,178)" width="1" height="27" stroke="none"/>
    </g>
    <g font-size="13px" stroke-linecap="butt" transform="matrix(1,0,0,1,244,-54)" text-rendering="geometricPrecision" font-family="sans-serif" shape-rendering="geometricPrecision" font-weight="bold" stroke-miterlimit="1.45">
      <text x="212.0823" xml:space="preserve" y="86.0669" clip-path="url(#clipPath3)" stroke="none">AbstractTree</text>
    </g>
    <g fill="rgb(204,255,255)" text-rendering="geometricPrecision" shape-rendering="geometricPrecision" transform="matrix(1,0,0,1,244,-54)" stroke="rgb(204,255,255)">
      <rect x="205" width="107" height="26" y="134" clip-path="url(#clipPath2)" stroke="none"/>
      <rect x="204" y="133" clip-path="url(#clipPath2)" fill="white" width="1" height="28" stroke="none"/>
      <rect x="205" y="133" clip-path="url(#clipPath2)" fill="white" width="107" height="1" stroke="none"/>
      <rect x="205" y="160" clip-path="url(#clipPath2)" fill="rgb(142,178,178)" width="108" height="1" stroke="none"/>
      <rect x="312" y="133" clip-path="url(#clipPath2)" fill="rgb(142,178,178)" width="1" height="27" stroke="none"/>
    </g>
    <g font-size="13px" stroke-linecap="butt" transform="matrix(1,0,0,1,244,-54)" text-rendering="geometricPrecision" font-family="sans-serif" shape-rendering="geometricPrecision" font-weight="bold" stroke-miterlimit="1.45">
      <text x="219.6138" xml:space="preserve" y="150.0669" clip-path="url(#clipPath4)" stroke="none">Instruction</text>
    </g>
    <g fill="rgb(204,255,255)" text-rendering="geometricPrecision" shape-rendering="geometricPrecision" transform="matrix(1,0,0,1,244,-54)" stroke="rgb(204,255,255)">
      <rect x="-147" width="194" height="66" y="175" clip-path="url(#clipPath2)" stroke="none"/>
      <rect x="-148" y="174" clip-path="url(#clipPath2)" fill="white" width="1" height="68" stroke="none"/>
      <rect x="-147" y="174" clip-path="url(#clipPath2)" fill="white" width="194" height="1" stroke="none"/>
      <rect x="-147" y="241" clip-path="url(#clipPath2)" fill="rgb(142,178,178)" width="195" height="1" stroke="none"/>
      <rect x="47" y="174" clip-path="url(#clipPath2)" fill="rgb(142,178,178)" width="1" height="67" stroke="none"/>
    </g>
    <g font-size="13px" stroke-linecap="butt" transform="matrix(1,0,0,1,244,-54)" text-rendering="geometricPrecision" font-family="sans-serif" shape-rendering="geometricPrecision" font-weight="bold" stroke-miterlimit="1.45">
      <text x="-131.0056" xml:space="preserve" y="191.0669" clip-path="url(#clipPath5)" stroke="none">AffectationInstruction</text>
      <text x="-122.8394" xml:space="preserve" y="206.1997" clip-path="url(#clipPath5)" stroke="none">---------------------------</text>
      <text x="-103.4854" xml:space="preserve" y="221.3325" clip-path="url(#clipPath5)" stroke="none">src:Expression</text>
      <text x="-104.1868" xml:space="preserve" y="236.4653" clip-path="url(#clipPath5)" stroke="none">dst:Expression</text>
    </g>
    <g fill="rgb(204,255,255)" text-rendering="geometricPrecision" shape-rendering="geometricPrecision" transform="matrix(1,0,0,1,244,-54)" stroke="rgb(204,255,255)">
      <rect x="-228" width="250" height="90" y="319" clip-path="url(#clipPath2)" stroke="none"/>
      <rect x="-229" y="318" clip-path="url(#clipPath2)" fill="white" width="1" height="92" stroke="none"/>
      <rect x="-228" y="318" clip-path="url(#clipPath2)" fill="white" width="250" height="1" stroke="none"/>
      <rect x="-228" y="409" clip-path="url(#clipPath2)" fill="rgb(142,178,178)" width="251" height="1" stroke="none"/>
      <rect x="22" y="318" clip-path="url(#clipPath2)" fill="rgb(142,178,178)" width="1" height="91" stroke="none"/>
    </g>
    <g font-size="13px" stroke-linecap="butt" transform="matrix(1,0,0,1,244,-54)" text-rendering="geometricPrecision" font-family="sans-serif" shape-rendering="geometricPrecision" font-weight="bold" stroke-miterlimit="1.45">
      <text x="-148.0076" xml:space="preserve" y="335.0669" clip-path="url(#clipPath6)" stroke="none">IfInstruction</text>
      <text x="-175.4644" xml:space="preserve" y="350.1997" clip-path="url(#clipPath6)" stroke="none">---------------------------</text>
      <text x="-179.438" xml:space="preserve" y="365.3325" clip-path="url(#clipPath6)" stroke="none">condition:Expression</text>
      <text x="-221.6372" xml:space="preserve" y="380.4653" clip-path="url(#clipPath6)" stroke="none">thenInstructions:BlocInstruction</text>
      <text x="-219.7805" xml:space="preserve" y="395.5981" clip-path="url(#clipPath6)" stroke="none">elseInstructions:BlocInstruction</text>
    </g>
    <g fill="rgb(204,255,255)" text-rendering="geometricPrecision" shape-rendering="geometricPrecision" transform="matrix(1,0,0,1,244,-54)" stroke="rgb(204,255,255)">
      <rect x="54" width="216" height="99" y="319" clip-path="url(#clipPath2)" stroke="none"/>
      <rect x="53" y="318" clip-path="url(#clipPath2)" fill="white" width="1" height="101" stroke="none"/>
      <rect x="54" y="318" clip-path="url(#clipPath2)" fill="white" width="216" height="1" stroke="none"/>
      <rect x="54" y="418" clip-path="url(#clipPath2)" fill="rgb(142,178,178)" width="217" height="1" stroke="none"/>
      <rect x="270" y="318" clip-path="url(#clipPath2)" fill="rgb(142,178,178)" width="1" height="100" stroke="none"/>
    </g>
    <g font-size="13px" stroke-linecap="butt" transform="matrix(1,0,0,1,244,-54)" text-rendering="geometricPrecision" font-family="sans-serif" shape-rendering="geometricPrecision" font-weight="bold" stroke-miterlimit="1.45">
      <text x="93.1516" xml:space="preserve" y="335.0669" clip-path="url(#clipPath7)" stroke="none">ForLoopInstrcution</text>
      <text x="90.2856" xml:space="preserve" y="350.1997" clip-path="url(#clipPath7)" stroke="none">---------------------------</text>
      <text x="124.1853" xml:space="preserve" y="365.3325" clip-path="url(#clipPath7)" stroke="none">i:Identifier</text>
      <text x="76.927" xml:space="preserve" y="380.4653" clip-path="url(#clipPath7)" stroke="none">lowerBound:Expression</text>
      <text x="75.6924" xml:space="preserve" y="395.5981" clip-path="url(#clipPath7)" stroke="none">upperBound:Expression</text>
      <text x="61.0737" xml:space="preserve" y="410.731" clip-path="url(#clipPath7)" stroke="none">instructions:BlocInstruction</text>
    </g>
    <g fill="rgb(204,255,255)" text-rendering="geometricPrecision" shape-rendering="geometricPrecision" transform="matrix(1,0,0,1,244,-54)" stroke="rgb(204,255,255)">
      <rect x="541" width="250" height="71" y="347" clip-path="url(#clipPath2)" stroke="none"/>
      <rect x="540" y="346" clip-path="url(#clipPath2)" fill="white" width="1" height="73" stroke="none"/>
      <rect x="541" y="346" clip-path="url(#clipPath2)" fill="white" width="250" height="1" stroke="none"/>
      <rect x="541" y="418" clip-path="url(#clipPath2)" fill="rgb(142,178,178)" width="251" height="1" stroke="none"/>
      <rect x="791" y="346" clip-path="url(#clipPath2)" fill="rgb(142,178,178)" width="1" height="72" stroke="none"/>
    </g>
    <g font-size="13px" stroke-linecap="butt" transform="matrix(1,0,0,1,244,-54)" text-rendering="geometricPrecision" font-family="sans-serif" shape-rendering="geometricPrecision" font-weight="bold" stroke-miterlimit="1.45">
      <text x="645.4023" xml:space="preserve" y="363.0669" clip-path="url(#clipPath8)" stroke="none">Appel</text>
      <text x="593.5356" xml:space="preserve" y="378.1997" clip-path="url(#clipPath8)" stroke="none">---------------------------</text>
      <text x="644.1677" xml:space="preserve" y="393.3325" clip-path="url(#clipPath8)" stroke="none">idf:Idf</text>
      <text x="548.4705" xml:space="preserve" y="408.4653" clip-path="url(#clipPath8)" stroke="none">parametres:ParametresEffectifs</text>
    </g>
    <g fill="rgb(204,255,255)" text-rendering="geometricPrecision" shape-rendering="geometricPrecision" transform="matrix(1,0,0,1,244,-54)" stroke="rgb(204,255,255)">
      <rect x="452" width="317" height="56" y="196" clip-path="url(#clipPath2)" stroke="none"/>
      <rect x="451" y="195" clip-path="url(#clipPath2)" fill="white" width="1" height="58" stroke="none"/>
      <rect x="452" y="195" clip-path="url(#clipPath2)" fill="white" width="317" height="1" stroke="none"/>
      <rect x="452" y="252" clip-path="url(#clipPath2)" fill="rgb(142,178,178)" width="318" height="1" stroke="none"/>
      <rect x="769" y="195" clip-path="url(#clipPath2)" fill="rgb(142,178,178)" width="1" height="57" stroke="none"/>
    </g>
    <g font-size="13px" stroke-linecap="butt" transform="matrix(1,0,0,1,244,-54)" text-rendering="geometricPrecision" font-family="sans-serif" shape-rendering="geometricPrecision" font-weight="bold" stroke-miterlimit="1.45">
      <text x="555.2378" xml:space="preserve" y="212.0669" clip-path="url(#clipPath9)" stroke="none">BlocInstruction</text>
      <text x="465.1963" xml:space="preserve" y="227.1997" clip-path="url(#clipPath9)" stroke="none">------------------------------------------------------</text>
      <text x="463.9648" xml:space="preserve" y="242.3325" clip-path="url(#clipPath9)" stroke="none">instructionList:LinkedList&lt;Instruction&gt; </text>
    </g>
    <g fill="rgb(204,255,255)" text-rendering="geometricPrecision" shape-rendering="geometricPrecision" transform="matrix(1,0,0,1,244,-54)" stroke="rgb(204,255,255)">
      <rect x="569" width="194" height="56" y="475" clip-path="url(#clipPath2)" stroke="none"/>
      <rect x="568" y="474" clip-path="url(#clipPath2)" fill="white" width="1" height="58" stroke="none"/>
      <rect x="569" y="474" clip-path="url(#clipPath2)" fill="white" width="194" height="1" stroke="none"/>
      <rect x="569" y="531" clip-path="url(#clipPath2)" fill="rgb(142,178,178)" width="195" height="1" stroke="none"/>
      <rect x="763" y="474" clip-path="url(#clipPath2)" fill="rgb(142,178,178)" width="1" height="57" stroke="none"/>
    </g>
    <g font-size="13px" stroke-linecap="butt" transform="matrix(1,0,0,1,244,-54)" text-rendering="geometricPrecision" font-family="sans-serif" shape-rendering="geometricPrecision" font-weight="bold" stroke-miterlimit="1.45">
      <text x="616.9426" xml:space="preserve" y="491.0669" clip-path="url(#clipPath10)" stroke="none">AppelQualifie</text>
      <text x="593.5356" xml:space="preserve" y="506.1997" clip-path="url(#clipPath10)" stroke="none">---------------------------</text>
      <text x="591.4631" xml:space="preserve" y="521.3325" clip-path="url(#clipPath10)" stroke="none">receveur:Expression</text>
    </g>
    <g fill="rgb(204,255,255)" text-rendering="geometricPrecision" shape-rendering="geometricPrecision" transform="matrix(1,0,0,1,244,-54)" stroke="rgb(204,255,255)">
      <rect x="292" width="216" height="99" y="319" clip-path="url(#clipPath2)" stroke="none"/>
      <rect x="291" y="318" clip-path="url(#clipPath2)" fill="white" width="1" height="101" stroke="none"/>
      <rect x="292" y="318" clip-path="url(#clipPath2)" fill="white" width="216" height="1" stroke="none"/>
      <rect x="292" y="418" clip-path="url(#clipPath2)" fill="rgb(142,178,178)" width="217" height="1" stroke="none"/>
      <rect x="508" y="318" clip-path="url(#clipPath2)" fill="rgb(142,178,178)" width="1" height="100" stroke="none"/>
    </g>
    <g font-size="13px" stroke-linecap="butt" transform="matrix(1,0,0,1,244,-54)" text-rendering="geometricPrecision" font-family="sans-serif" shape-rendering="geometricPrecision" font-weight="bold" stroke-miterlimit="1.45">
      <text x="322.1013" xml:space="preserve" y="335.0669" clip-path="url(#clipPath11)" stroke="none">WhileLoopInstrcution</text>
      <text x="327.7856" xml:space="preserve" y="350.1997" clip-path="url(#clipPath11)" stroke="none">---------------------------</text>
      <text x="323.812" xml:space="preserve" y="365.3325" clip-path="url(#clipPath11)" stroke="none">condition:Expression</text>
      <text x="298.5737" xml:space="preserve" y="380.4653" clip-path="url(#clipPath11)" stroke="none">instructions:BlocInstruction</text>
      <path fill="none" d="M259.75 132.9688 L259.75 105.0049" clip-path="url(#clipPath2)"/>
      <path d="M259.75 97.0049 L254.75 109.0049 L259.75 106.0049 L264.75 109.0049 Z" stroke="none" clip-path="url(#clipPath2)"/>
      <path fill="none" d="M48.3471 188.6322 L197.0114 159.3553" clip-path="url(#clipPath2)"/>
      <path d="M204.8606 157.8095 L192.1207 155.2224 L196.0302 159.5485 L194.0528 165.034 Z" stroke="none" clip-path="url(#clipPath2)"/>
      <path fill="none" d="M-66.9682 317.9899 L90 250 L229.8269 165.1566" clip-path="url(#clipPath2)"/>
      <path d="M236.6663 161.0066 L223.8134 162.9569 L228.972 165.6753 L229.0009 171.5062 Z" stroke="none" clip-path="url(#clipPath2)"/>
      <path fill="none" d="M185.1463 318.019 L250.4496 168.3198" clip-path="url(#clipPath2)"/>
      <path d="M253.6484 160.9872 L244.2674 169.987 L250.0498 169.2364 L253.4332 173.9854 Z" stroke="none" clip-path="url(#clipPath2)"/>
      <path fill="none" d="M630.5659 345.991 L428 264 L286.4661 165.5782" clip-path="url(#clipPath2)"/>
      <path d="M279.8981 161.0108 L286.8955 171.9669 L287.2871 166.1491 L292.6048 163.7569 Z" stroke="none" clip-path="url(#clipPath2)"/>
      <path fill="none" d="M478.6459 195.0028 L322.4219 160.7436" clip-path="url(#clipPath2)"/>
      <path d="M314.6076 159.03 L325.2581 166.4844 L323.3987 160.9578 L327.4001 156.7165 Z" stroke="none" clip-path="url(#clipPath2)"/>
      <path fill="none" d="M666.375 474.0223 L666.375 427.0106" clip-path="url(#clipPath2)"/>
      <path d="M666.375 419.0106 L661.375 431.0106 L666.375 428.0106 L671.375 431.0106 Z" stroke="none" clip-path="url(#clipPath2)"/>
      <path fill="none" d="M368.5189 318.019 L272.9392 167.7375" clip-path="url(#clipPath2)"/>
      <path d="M268.6459 160.9871 L270.8668 173.796 L273.4758 168.5813 L279.3048 168.4294 Z" stroke="none" clip-path="url(#clipPath2)"/>
    </g>
  </g>
</svg>
