<?xml version="1.0" encoding="UTF-8"?><svg xmlns="http://www.w3.org/2000/svg" xmlns:xlink="http://www.w3.org/1999/xlink" fill-opacity="1" color-rendering="auto" color-interpolation="auto" text-rendering="auto" stroke="black" stroke-linecap="square" width="961" stroke-miterlimit="10" shape-rendering="auto" stroke-opacity="1" fill="black" stroke-dasharray="none" font-weight="normal" stroke-width="1" height="509" font-family="'Dialog'" font-style="normal" stroke-linejoin="miter" font-size="12px" stroke-dashoffset="0" image-rendering="auto">
  <!--Generated by ySVG 2.5-->
  <defs id="genericDefs"/>
  <g>
    <defs id="defs1">
      <clipPath clipPathUnits="userSpaceOnUse" id="clipPath1">
        <path d="M0 0 L961 0 L961 509 L0 509 L0 0 Z"/>
      </clipPath>
      <clipPath clipPathUnits="userSpaceOnUse" id="clipPath2">
        <path d="M384 90 L1345 90 L1345 599 L384 599 L384 90 Z"/>
      </clipPath>
      <clipPath clipPathUnits="userSpaceOnUse" id="clipPath3">
        <path d="M715 105 L715 165 L946 165 L946 105 Z"/>
      </clipPath>
      <clipPath clipPathUnits="userSpaceOnUse" id="clipPath4">
        <path d="M591 218 L591 273 L731 273 L731 218 Z"/>
      </clipPath>
      <clipPath clipPathUnits="userSpaceOnUse" id="clipPath5">
        <path d="M858 218 L858 303 L1329 303 L1329 218 Z"/>
      </clipPath>
      <clipPath clipPathUnits="userSpaceOnUse" id="clipPath6">
        <path d="M457 423 L457 451 L597 451 L597 423 Z"/>
      </clipPath>
      <clipPath clipPathUnits="userSpaceOnUse" id="clipPath7">
        <path d="M652 437 L652 492 L1147 492 L1147 437 Z"/>
      </clipPath>
      <clipPath clipPathUnits="userSpaceOnUse" id="clipPath8">
        <path d="M399 529 L399 584 L562 584 L562 529 Z"/>
      </clipPath>
    </defs>
    <g fill="white" text-rendering="geometricPrecision" shape-rendering="geometricPrecision" transform="translate(-384,-90)" stroke="white">
      <rect x="384" width="961" height="509" y="90" clip-path="url(#clipPath2)" stroke="none"/>
    </g>
    <g fill="rgb(204,255,255)" text-rendering="geometricPrecision" shape-rendering="geometricPrecision" transform="matrix(1,0,0,1,-384,-90)" stroke="rgb(204,255,255)">
      <rect x="716" width="229" height="58" y="106" clip-path="url(#clipPath2)" stroke="none"/>
      <rect x="715" y="105" clip-path="url(#clipPath2)" fill="white" width="1" height="60" stroke="none"/>
      <rect x="716" y="105" clip-path="url(#clipPath2)" fill="white" width="229" height="1" stroke="none"/>
      <rect x="716" y="164" clip-path="url(#clipPath2)" fill="rgb(142,178,178)" width="230" height="1" stroke="none"/>
      <rect x="945" y="105" clip-path="url(#clipPath2)" fill="rgb(142,178,178)" width="1" height="59" stroke="none"/>
    </g>
    <g font-size="13px" stroke-linecap="butt" transform="matrix(1,0,0,1,-384,-90)" text-rendering="geometricPrecision" font-family="sans-serif" shape-rendering="geometricPrecision" font-weight="bold" stroke-miterlimit="1.45">
      <text x="803.7122" xml:space="preserve" y="122.0669" clip-path="url(#clipPath3)" stroke="none">Symbol</text>
      <text x="768.7017" xml:space="preserve" y="137.1997" clip-path="url(#clipPath3)" stroke="none">-----------------------</text>
      <text x="732.1265" xml:space="preserve" y="152.3325" clip-path="url(#clipPath3)" stroke="none">declarationLineNumber:int</text>
    </g>
    <g fill="rgb(204,255,255)" text-rendering="geometricPrecision" shape-rendering="geometricPrecision" transform="matrix(1,0,0,1,-384,-90)" stroke="rgb(204,255,255)">
      <rect x="592" width="138" height="53" y="219" clip-path="url(#clipPath2)" stroke="none"/>
      <rect x="591" y="218" clip-path="url(#clipPath2)" fill="white" width="1" height="55" stroke="none"/>
      <rect x="592" y="218" clip-path="url(#clipPath2)" fill="white" width="138" height="1" stroke="none"/>
      <rect x="592" y="272" clip-path="url(#clipPath2)" fill="rgb(142,178,178)" width="139" height="1" stroke="none"/>
      <rect x="730" y="218" clip-path="url(#clipPath2)" fill="rgb(142,178,178)" width="1" height="54" stroke="none"/>
    </g>
    <g font-size="13px" stroke-linecap="butt" transform="matrix(1,0,0,1,-384,-90)" text-rendering="geometricPrecision" font-family="sans-serif" shape-rendering="geometricPrecision" font-weight="bold" stroke-miterlimit="1.45">
      <text x="603.6863" xml:space="preserve" y="235.0669" clip-path="url(#clipPath4)" stroke="none">VariableSymbol</text>
      <text x="599.2017" xml:space="preserve" y="250.1997" clip-path="url(#clipPath4)" stroke="none">-----------------------</text>
      <text x="604.0449" xml:space="preserve" y="265.3325" clip-path="url(#clipPath4)" stroke="none">type:TypeEnum</text>
    </g>
    <g fill="rgb(204,255,255)" text-rendering="geometricPrecision" shape-rendering="geometricPrecision" transform="matrix(1,0,0,1,-384,-90)" stroke="rgb(204,255,255)">
      <rect x="859" width="469" height="83" y="219" clip-path="url(#clipPath2)" stroke="none"/>
      <rect x="858" y="218" clip-path="url(#clipPath2)" fill="white" width="1" height="85" stroke="none"/>
      <rect x="859" y="218" clip-path="url(#clipPath2)" fill="white" width="469" height="1" stroke="none"/>
      <rect x="859" y="302" clip-path="url(#clipPath2)" fill="rgb(142,178,178)" width="470" height="1" stroke="none"/>
      <rect x="1328" y="218" clip-path="url(#clipPath2)" fill="rgb(142,178,178)" width="1" height="84" stroke="none"/>
    </g>
    <g font-size="13px" stroke-linecap="butt" transform="matrix(1,0,0,1,-384,-90)" text-rendering="geometricPrecision" font-family="sans-serif" shape-rendering="geometricPrecision" font-weight="bold" stroke-miterlimit="1.45">
      <text x="1034.5692" xml:space="preserve" y="235.0669" clip-path="url(#clipPath5)" stroke="none">FunctionSymbol</text>
      <text x="1028.8373" xml:space="preserve" y="250.1997" clip-path="url(#clipPath5)" stroke="none">------------------------</text>
      <text x="1011.8699" xml:space="preserve" y="265.3325" clip-path="url(#clipPath5)" stroke="none">returnType:TypeEnum</text>
      <text x="879.1277" xml:space="preserve" y="280.4653" clip-path="url(#clipPath5)" stroke="none">params:ArrayList&lt;SimpleEntry&lt;String, VariableSymbol&gt;&gt;</text>
      <text x="991.532" xml:space="preserve" y="295.5981" clip-path="url(#clipPath5)" stroke="none">instructions:BlocInstruction</text>
    </g>
    <g fill="rgb(204,255,255)" text-rendering="geometricPrecision" shape-rendering="geometricPrecision" transform="matrix(1,0,0,1,-384,-90)" stroke="rgb(204,255,255)">
      <rect x="458" width="138" height="26" y="424" clip-path="url(#clipPath2)" stroke="none"/>
      <rect x="457" y="423" clip-path="url(#clipPath2)" fill="white" width="1" height="28" stroke="none"/>
      <rect x="458" y="423" clip-path="url(#clipPath2)" fill="white" width="138" height="1" stroke="none"/>
      <rect x="458" y="450" clip-path="url(#clipPath2)" fill="rgb(142,178,178)" width="139" height="1" stroke="none"/>
      <rect x="596" y="423" clip-path="url(#clipPath2)" fill="rgb(142,178,178)" width="1" height="27" stroke="none"/>
    </g>
    <g font-size="13px" stroke-linecap="butt" transform="matrix(1,0,0,1,-384,-90)" text-rendering="geometricPrecision" font-family="sans-serif" shape-rendering="geometricPrecision" font-weight="bold" stroke-miterlimit="1.45">
      <text x="474.4456" xml:space="preserve" y="440.0669" clip-path="url(#clipPath6)" stroke="none">IntBoolSymbol</text>
    </g>
    <g fill="rgb(204,255,255)" text-rendering="geometricPrecision" shape-rendering="geometricPrecision" transform="matrix(1,0,0,1,-384,-90)" stroke="rgb(204,255,255)">
      <rect x="653" width="493" height="53" y="438" clip-path="url(#clipPath2)" stroke="none"/>
      <rect x="652" y="437" clip-path="url(#clipPath2)" fill="white" width="1" height="55" stroke="none"/>
      <rect x="653" y="437" clip-path="url(#clipPath2)" fill="white" width="493" height="1" stroke="none"/>
      <rect x="653" y="491" clip-path="url(#clipPath2)" fill="rgb(142,178,178)" width="494" height="1" stroke="none"/>
      <rect x="1146" y="437" clip-path="url(#clipPath2)" fill="rgb(142,178,178)" width="1" height="54" stroke="none"/>
    </g>
    <g font-size="13px" stroke-linecap="butt" transform="matrix(1,0,0,1,-384,-90)" text-rendering="geometricPrecision" font-family="sans-serif" shape-rendering="geometricPrecision" font-weight="bold" stroke-miterlimit="1.45">
      <text x="852.6472" xml:space="preserve" y="454.0669" clip-path="url(#clipPath7)" stroke="none">ArraySymbol</text>
      <text x="837.7017" xml:space="preserve" y="469.1997" clip-path="url(#clipPath7)" stroke="none">-----------------------</text>
      <text x="653.0959" xml:space="preserve" y="484.3325" clip-path="url(#clipPath7)" stroke="none">dimensionsList:ArrayList&lt; SimpleEntry&lt; Expression, Expression&gt;&gt;</text>
    </g>
    <g fill="rgb(204,255,255)" text-rendering="geometricPrecision" shape-rendering="geometricPrecision" transform="matrix(1,0,0,1,-384,-90)" stroke="rgb(204,255,255)">
      <rect x="400" width="161" height="53" y="530" clip-path="url(#clipPath2)" stroke="none"/>
      <rect x="399" y="529" clip-path="url(#clipPath2)" fill="white" width="1" height="55" stroke="none"/>
      <rect x="400" y="529" clip-path="url(#clipPath2)" fill="white" width="161" height="1" stroke="none"/>
      <rect x="400" y="583" clip-path="url(#clipPath2)" fill="rgb(142,178,178)" width="162" height="1" stroke="none"/>
      <rect x="561" y="529" clip-path="url(#clipPath2)" fill="rgb(142,178,178)" width="1" height="54" stroke="none"/>
    </g>
    <g font-size="13px" stroke-linecap="butt" transform="matrix(1,0,0,1,-384,-90)" text-rendering="geometricPrecision" font-family="sans-serif" shape-rendering="geometricPrecision" font-weight="bold" stroke-miterlimit="1.45">
      <text x="415.6992" xml:space="preserve" y="546.0669" clip-path="url(#clipPath8)" stroke="none">CstIntBoolSymbol</text>
      <text x="413.3062" xml:space="preserve" y="561.1997" clip-path="url(#clipPath8)" stroke="none">-------------------------</text>
      <text x="418.3049" xml:space="preserve" y="576.3325" clip-path="url(#clipPath8)" stroke="none">value:Expression</text>
      <path fill="none" d="M703.4181 218.0099 L778.0087 169.383" clip-path="url(#clipPath2)"/>
      <path d="M784.7103 165.0141 L771.9272 167.379 L777.171 169.9291 L777.3884 175.756 Z" stroke="none" clip-path="url(#clipPath2)"/>
      <path fill="none" d="M1004.5498 217.9875 L900.8104 168.4531" clip-path="url(#clipPath2)"/>
      <path d="M893.5912 165.006 L902.2656 174.6887 L901.7128 168.884 L906.5745 165.6646 Z" stroke="none" clip-path="url(#clipPath2)"/>
      <path fill="none" d="M537.5115 422.9975 L637.507 279.5583" clip-path="url(#clipPath2)"/>
      <path d="M642.082 272.9957 L631.1178 279.9803 L636.9351 280.3787 L639.3211 285.6991 Z" stroke="none" clip-path="url(#clipPath2)"/>
      <path fill="none" d="M869.7919 436.9913 L697.1052 278.4237" clip-path="url(#clipPath2)"/>
      <path d="M691.2126 273.0128 L696.6697 284.812 L697.8418 279.1 L703.4333 277.4462 Z" stroke="none" clip-path="url(#clipPath2)"/>
      <path fill="none" d="M491.5706 528.9882 L519.3278 458.4138" clip-path="url(#clipPath2)"/>
      <path d="M522.256 450.9689 L513.2107 460.3061 L518.9618 459.3444 L522.5168 463.9663 Z" stroke="none" clip-path="url(#clipPath2)"/>
    </g>
  </g>
</svg>
