<?xml version="1.0" encoding="UTF-8"?><svg xmlns="http://www.w3.org/2000/svg" xmlns:xlink="http://www.w3.org/1999/xlink" fill-opacity="1" color-rendering="auto" color-interpolation="auto" text-rendering="auto" stroke="black" stroke-linecap="square" width="1033" stroke-miterlimit="10" shape-rendering="auto" stroke-opacity="1" fill="black" stroke-dasharray="none" font-weight="normal" stroke-width="1" height="419" font-family="'Dialog'" font-style="normal" stroke-linejoin="miter" font-size="12px" stroke-dashoffset="0" image-rendering="auto">
  <!--Generated by ySVG 2.5-->
  <defs id="genericDefs"/>
  <g>
    <defs id="defs1">
      <clipPath clipPathUnits="userSpaceOnUse" id="clipPath1">
        <path d="M0 0 L1033 0 L1033 419 L0 419 L0 0 Z"/>
      </clipPath>
      <clipPath clipPathUnits="userSpaceOnUse" id="clipPath2">
        <path d="M-227 5 L806 5 L806 424 L-227 424 L-227 5 Z"/>
      </clipPath>
      <clipPath clipPathUnits="userSpaceOnUse" id="clipPath3">
        <path d="M185 20 L185 48 L304 48 L304 20 Z"/>
      </clipPath>
      <clipPath clipPathUnits="userSpaceOnUse" id="clipPath4">
        <path d="M138 113 L138 171 L350 171 L350 113 Z"/>
      </clipPath>
      <clipPath clipPathUnits="userSpaceOnUse" id="clipPath5">
        <path d="M-211 162 L-211 230 L-15 230 L-15 162 Z"/>
      </clipPath>
      <clipPath clipPathUnits="userSpaceOnUse" id="clipPath6">
        <path d="M52 308 L52 400 L304 400 L304 308 Z"/>
      </clipPath>
      <clipPath clipPathUnits="userSpaceOnUse" id="clipPath7">
        <path d="M334 308 L334 409 L552 409 L552 308 Z"/>
      </clipPath>
      <clipPath clipPathUnits="userSpaceOnUse" id="clipPath8">
        <path d="M438 162 L438 220 L757 220 L757 162 Z"/>
      </clipPath>
      <clipPath clipPathUnits="userSpaceOnUse" id="clipPath9">
        <path d="M572 308 L572 409 L790 409 L790 308 Z"/>
      </clipPath>
      <clipPath clipPathUnits="userSpaceOnUse" id="clipPath10">
        <path d="M-198 260 L-198 312 L-15 312 L-15 260 Z"/>
      </clipPath>
      <clipPath clipPathUnits="userSpaceOnUse" id="clipPath11">
        <path d="M-198 348 L-198 400 L-15 400 L-15 348 Z"/>
      </clipPath>
    </defs>
    <g fill="white" text-rendering="geometricPrecision" shape-rendering="geometricPrecision" transform="translate(227,-5)" stroke="white">
      <rect x="-227" width="1033" height="419" y="5" clip-path="url(#clipPath2)" stroke="none"/>
    </g>
    <g fill="rgb(204,255,255)" text-rendering="geometricPrecision" shape-rendering="geometricPrecision" transform="matrix(1,0,0,1,227,-5)" stroke="rgb(204,255,255)">
      <rect x="186" width="117" height="26" y="21" clip-path="url(#clipPath2)" stroke="none"/>
      <rect x="185" y="20" clip-path="url(#clipPath2)" fill="white" width="1" height="28" stroke="none"/>
      <rect x="186" y="20" clip-path="url(#clipPath2)" fill="white" width="117" height="1" stroke="none"/>
      <rect x="186" y="47" clip-path="url(#clipPath2)" fill="rgb(142,178,178)" width="118" height="1" stroke="none"/>
      <rect x="303" y="20" clip-path="url(#clipPath2)" fill="rgb(142,178,178)" width="1" height="27" stroke="none"/>
    </g>
    <g font-size="13px" stroke-linecap="butt" transform="matrix(1,0,0,1,227,-5)" text-rendering="geometricPrecision" font-family="sans-serif" shape-rendering="geometricPrecision" font-weight="bold" stroke-miterlimit="1.45">
      <text x="197.3323" xml:space="preserve" y="37.0669" clip-path="url(#clipPath3)" stroke="none">AbstractTree</text>
    </g>
    <g fill="rgb(204,255,255)" text-rendering="geometricPrecision" shape-rendering="geometricPrecision" transform="matrix(1,0,0,1,227,-5)" stroke="rgb(204,255,255)">
      <rect x="139" width="210" height="56" y="114" clip-path="url(#clipPath2)" stroke="none"/>
      <rect x="138" y="113" clip-path="url(#clipPath2)" fill="white" width="1" height="58" stroke="none"/>
      <rect x="139" y="113" clip-path="url(#clipPath2)" fill="white" width="210" height="1" stroke="none"/>
      <rect x="139" y="170" clip-path="url(#clipPath2)" fill="rgb(142,178,178)" width="211" height="1" stroke="none"/>
      <rect x="349" y="113" clip-path="url(#clipPath2)" fill="rgb(142,178,178)" width="1" height="57" stroke="none"/>
    </g>
    <g font-size="13px" stroke-linecap="butt" transform="matrix(1,0,0,1,227,-5)" text-rendering="geometricPrecision" font-family="sans-serif" shape-rendering="geometricPrecision" font-weight="bold" stroke-miterlimit="1.45">
      <text x="204.8638" xml:space="preserve" y="130.3931" clip-path="url(#clipPath4)" stroke="none">Instruction</text>
      <text x="142.4854" xml:space="preserve" y="145.5259" clip-path="url(#clipPath4)" stroke="none">--------------------------------------</text>
      <text x="146.3765" xml:space="preserve" y="160.6587" clip-path="url(#clipPath4)" stroke="none">declarationLineNumber:int</text>
    </g>
    <g fill="rgb(204,255,255)" text-rendering="geometricPrecision" shape-rendering="geometricPrecision" transform="matrix(1,0,0,1,227,-5)" stroke="rgb(204,255,255)">
      <rect x="-210" width="194" height="66" y="163" clip-path="url(#clipPath2)" stroke="none"/>
      <rect x="-211" y="162" clip-path="url(#clipPath2)" fill="white" width="1" height="68" stroke="none"/>
      <rect x="-210" y="162" clip-path="url(#clipPath2)" fill="white" width="194" height="1" stroke="none"/>
      <rect x="-210" y="229" clip-path="url(#clipPath2)" fill="rgb(142,178,178)" width="195" height="1" stroke="none"/>
      <rect x="-16" y="162" clip-path="url(#clipPath2)" fill="rgb(142,178,178)" width="1" height="67" stroke="none"/>
    </g>
    <g font-size="13px" stroke-linecap="butt" transform="matrix(1,0,0,1,227,-5)" text-rendering="geometricPrecision" font-family="sans-serif" shape-rendering="geometricPrecision" font-weight="bold" stroke-miterlimit="1.45">
      <text x="-194.0056" xml:space="preserve" y="179.0669" clip-path="url(#clipPath5)" stroke="none">AffectationInstruction</text>
      <text x="-185.8394" xml:space="preserve" y="194.1997" clip-path="url(#clipPath5)" stroke="none">---------------------------</text>
      <text x="-166.4854" xml:space="preserve" y="209.3325" clip-path="url(#clipPath5)" stroke="none">src:Expression</text>
      <text x="-161.3406" xml:space="preserve" y="224.4653" clip-path="url(#clipPath5)" stroke="none">dst:Identifier</text>
    </g>
    <g fill="rgb(204,255,255)" text-rendering="geometricPrecision" shape-rendering="geometricPrecision" transform="matrix(1,0,0,1,227,-5)" stroke="rgb(204,255,255)">
      <rect x="53" width="250" height="90" y="309" clip-path="url(#clipPath2)" stroke="none"/>
      <rect x="52" y="308" clip-path="url(#clipPath2)" fill="white" width="1" height="92" stroke="none"/>
      <rect x="53" y="308" clip-path="url(#clipPath2)" fill="white" width="250" height="1" stroke="none"/>
      <rect x="53" y="399" clip-path="url(#clipPath2)" fill="rgb(142,178,178)" width="251" height="1" stroke="none"/>
      <rect x="303" y="308" clip-path="url(#clipPath2)" fill="rgb(142,178,178)" width="1" height="91" stroke="none"/>
    </g>
    <g font-size="13px" stroke-linecap="butt" transform="matrix(1,0,0,1,227,-5)" text-rendering="geometricPrecision" font-family="sans-serif" shape-rendering="geometricPrecision" font-weight="bold" stroke-miterlimit="1.45">
      <text x="132.9924" xml:space="preserve" y="325.0669" clip-path="url(#clipPath6)" stroke="none">IfInstruction</text>
      <text x="105.5356" xml:space="preserve" y="340.1997" clip-path="url(#clipPath6)" stroke="none">---------------------------</text>
      <text x="101.562" xml:space="preserve" y="355.3325" clip-path="url(#clipPath6)" stroke="none">condition:Expression</text>
      <text x="59.3628" xml:space="preserve" y="370.4653" clip-path="url(#clipPath6)" stroke="none">thenInstructions:BlocInstruction</text>
      <text x="61.2195" xml:space="preserve" y="385.5981" clip-path="url(#clipPath6)" stroke="none">elseInstructions:BlocInstruction</text>
    </g>
    <g fill="rgb(204,255,255)" text-rendering="geometricPrecision" shape-rendering="geometricPrecision" transform="matrix(1,0,0,1,227,-5)" stroke="rgb(204,255,255)">
      <rect x="335" width="216" height="99" y="309" clip-path="url(#clipPath2)" stroke="none"/>
      <rect x="334" y="308" clip-path="url(#clipPath2)" fill="white" width="1" height="101" stroke="none"/>
      <rect x="335" y="308" clip-path="url(#clipPath2)" fill="white" width="216" height="1" stroke="none"/>
      <rect x="335" y="408" clip-path="url(#clipPath2)" fill="rgb(142,178,178)" width="217" height="1" stroke="none"/>
      <rect x="551" y="308" clip-path="url(#clipPath2)" fill="rgb(142,178,178)" width="1" height="100" stroke="none"/>
    </g>
    <g font-size="13px" stroke-linecap="butt" transform="matrix(1,0,0,1,227,-5)" text-rendering="geometricPrecision" font-family="sans-serif" shape-rendering="geometricPrecision" font-weight="bold" stroke-miterlimit="1.45">
      <text x="374.1516" xml:space="preserve" y="325.0669" clip-path="url(#clipPath7)" stroke="none">ForLoopInstrcution</text>
      <text x="371.2856" xml:space="preserve" y="340.1997" clip-path="url(#clipPath7)" stroke="none">---------------------------</text>
      <text x="405.1853" xml:space="preserve" y="355.3325" clip-path="url(#clipPath7)" stroke="none">i:Identifier</text>
      <text x="357.927" xml:space="preserve" y="370.4653" clip-path="url(#clipPath7)" stroke="none">lowerBound:Expression</text>
      <text x="356.6924" xml:space="preserve" y="385.5981" clip-path="url(#clipPath7)" stroke="none">upperBound:Expression</text>
      <text x="342.0737" xml:space="preserve" y="400.731" clip-path="url(#clipPath7)" stroke="none">instructions:BlocInstruction</text>
    </g>
    <g fill="rgb(204,255,255)" text-rendering="geometricPrecision" shape-rendering="geometricPrecision" transform="matrix(1,0,0,1,227,-5)" stroke="rgb(204,255,255)">
      <rect x="439" width="317" height="56" y="163" clip-path="url(#clipPath2)" stroke="none"/>
      <rect x="438" y="162" clip-path="url(#clipPath2)" fill="white" width="1" height="58" stroke="none"/>
      <rect x="439" y="162" clip-path="url(#clipPath2)" fill="white" width="317" height="1" stroke="none"/>
      <rect x="439" y="219" clip-path="url(#clipPath2)" fill="rgb(142,178,178)" width="318" height="1" stroke="none"/>
      <rect x="756" y="162" clip-path="url(#clipPath2)" fill="rgb(142,178,178)" width="1" height="57" stroke="none"/>
    </g>
    <g font-size="13px" stroke-linecap="butt" transform="matrix(1,0,0,1,227,-5)" text-rendering="geometricPrecision" font-family="sans-serif" shape-rendering="geometricPrecision" font-weight="bold" stroke-miterlimit="1.45">
      <text x="542.2378" xml:space="preserve" y="179.0669" clip-path="url(#clipPath8)" stroke="none">BlocInstruction</text>
      <text x="452.1963" xml:space="preserve" y="194.1997" clip-path="url(#clipPath8)" stroke="none">------------------------------------------------------</text>
      <text x="450.9648" xml:space="preserve" y="209.3325" clip-path="url(#clipPath8)" stroke="none">instructionList:LinkedList&lt;Instruction&gt; </text>
    </g>
    <g fill="rgb(204,255,255)" text-rendering="geometricPrecision" shape-rendering="geometricPrecision" transform="matrix(1,0,0,1,227,-5)" stroke="rgb(204,255,255)">
      <rect x="573" width="216" height="99" y="309" clip-path="url(#clipPath2)" stroke="none"/>
      <rect x="572" y="308" clip-path="url(#clipPath2)" fill="white" width="1" height="101" stroke="none"/>
      <rect x="573" y="308" clip-path="url(#clipPath2)" fill="white" width="216" height="1" stroke="none"/>
      <rect x="573" y="408" clip-path="url(#clipPath2)" fill="rgb(142,178,178)" width="217" height="1" stroke="none"/>
      <rect x="789" y="308" clip-path="url(#clipPath2)" fill="rgb(142,178,178)" width="1" height="100" stroke="none"/>
    </g>
    <g font-size="13px" stroke-linecap="butt" transform="matrix(1,0,0,1,227,-5)" text-rendering="geometricPrecision" font-family="sans-serif" shape-rendering="geometricPrecision" font-weight="bold" stroke-miterlimit="1.45">
      <text x="603.1013" xml:space="preserve" y="325.0669" clip-path="url(#clipPath9)" stroke="none">WhileLoopInstrcution</text>
      <text x="608.7856" xml:space="preserve" y="340.1997" clip-path="url(#clipPath9)" stroke="none">---------------------------</text>
      <text x="604.812" xml:space="preserve" y="355.3325" clip-path="url(#clipPath9)" stroke="none">condition:Expression</text>
      <text x="579.5737" xml:space="preserve" y="370.4653" clip-path="url(#clipPath9)" stroke="none">instructions:BlocInstruction</text>
    </g>
    <g fill="rgb(204,255,255)" text-rendering="geometricPrecision" shape-rendering="geometricPrecision" transform="matrix(1,0,0,1,227,-5)" stroke="rgb(204,255,255)">
      <rect x="-197" width="181" height="50" y="261" clip-path="url(#clipPath2)" stroke="none"/>
      <rect x="-198" y="260" clip-path="url(#clipPath2)" fill="white" width="1" height="52" stroke="none"/>
      <rect x="-197" y="260" clip-path="url(#clipPath2)" fill="white" width="181" height="1" stroke="none"/>
      <rect x="-197" y="311" clip-path="url(#clipPath2)" fill="rgb(142,178,178)" width="182" height="1" stroke="none"/>
      <rect x="-16" y="260" clip-path="url(#clipPath2)" fill="rgb(142,178,178)" width="1" height="51" stroke="none"/>
    </g>
    <g font-size="13px" stroke-linecap="butt" transform="matrix(1,0,0,1,227,-5)" text-rendering="geometricPrecision" font-family="sans-serif" shape-rendering="geometricPrecision" font-weight="bold" stroke-miterlimit="1.45">
      <text x="-166.7551" xml:space="preserve" y="277.0669" clip-path="url(#clipPath10)" stroke="none">WriteInstruction</text>
      <text x="-179.3394" xml:space="preserve" y="292.1997" clip-path="url(#clipPath10)" stroke="none">---------------------------</text>
      <text x="-173.6455" xml:space="preserve" y="307.3325" clip-path="url(#clipPath10)" stroke="none">output:Expression</text>
    </g>
    <g fill="rgb(204,255,255)" text-rendering="geometricPrecision" shape-rendering="geometricPrecision" transform="matrix(1,0,0,1,227,-5)" stroke="rgb(204,255,255)">
      <rect x="-197" width="181" height="50" y="349" clip-path="url(#clipPath2)" stroke="none"/>
      <rect x="-198" y="348" clip-path="url(#clipPath2)" fill="white" width="1" height="52" stroke="none"/>
      <rect x="-197" y="348" clip-path="url(#clipPath2)" fill="white" width="181" height="1" stroke="none"/>
      <rect x="-197" y="399" clip-path="url(#clipPath2)" fill="rgb(142,178,178)" width="182" height="1" stroke="none"/>
      <rect x="-16" y="348" clip-path="url(#clipPath2)" fill="rgb(142,178,178)" width="1" height="51" stroke="none"/>
    </g>
    <g font-size="13px" stroke-linecap="butt" transform="matrix(1,0,0,1,227,-5)" text-rendering="geometricPrecision" font-family="sans-serif" shape-rendering="geometricPrecision" font-weight="bold" stroke-miterlimit="1.45">
      <text x="-165.0889" xml:space="preserve" y="365.0669" clip-path="url(#clipPath11)" stroke="none">ReadInstruction</text>
      <text x="-179.3394" xml:space="preserve" y="380.1997" clip-path="url(#clipPath11)" stroke="none">---------------------------</text>
      <text x="-154.8406" xml:space="preserve" y="395.3325" clip-path="url(#clipPath11)" stroke="none">dst:Identifier</text>
      <path fill="none" d="M245 113.314 L245 55.9806" clip-path="url(#clipPath2)"/>
      <path d="M245 47.9806 L240 59.9806 L245 56.9806 L250 59.9806 Z" stroke="none" clip-path="url(#clipPath2)"/>
      <path fill="none" d="M-14.6287 181.2515 L130.822 159.4445" clip-path="url(#clipPath2)"/>
      <path d="M138.7335 158.2584 L126.1248 155.0929 L129.833 159.5928 L127.6075 164.9823 Z" stroke="none" clip-path="url(#clipPath2)"/>
      <path fill="none" d="M159.1009 308.0124 L226.2813 178.4316" clip-path="url(#clipPath2)"/>
      <path d="M229.9635 171.3293 L220.0014 179.6814 L225.8211 179.3194 L228.8792 184.284 Z" stroke="none" clip-path="url(#clipPath2)"/>
      <path fill="none" d="M397.6252 308.019 L277.1183 177.1944" clip-path="url(#clipPath2)"/>
      <path d="M271.6982 171.3102 L276.1507 183.524 L277.7958 177.9299 L283.5059 176.7489 Z" stroke="none" clip-path="url(#clipPath2)"/>
      <path fill="none" d="M438.0216 168.9506 L359.1905 158.077" clip-path="url(#clipPath2)"/>
      <path d="M351.2656 156.9839 L362.4698 163.5767 L360.1812 158.2137 L363.8362 153.6705 Z" stroke="none" clip-path="url(#clipPath2)"/>
      <path fill="none" d="M579.6375 308.0058 L310.7065 174.8575" clip-path="url(#clipPath2)"/>
      <path d="M303.537 171.308 L312.0727 181.1132 L311.6026 175.3012 L316.5096 172.1515 Z" stroke="none" clip-path="url(#clipPath2)"/>
      <path fill="none" d="M-42.8679 259.9907 L166.6468 174.3526" clip-path="url(#clipPath2)"/>
      <path d="M174.0521 171.3257 L161.0524 171.2378 L165.7212 174.731 L164.836 180.4943 Z" stroke="none" clip-path="url(#clipPath2)"/>
      <path fill="none" d="M-67.0464 347.9961 L194.3246 175.7264" clip-path="url(#clipPath2)"/>
      <path d="M201.0042 171.3238 L188.2332 173.7529 L193.4896 176.2767 L193.7364 182.1024 Z" stroke="none" clip-path="url(#clipPath2)"/>
    </g>
  </g>
</svg>
