<?xml version="1.0" encoding="UTF-8"?><svg xmlns="http://www.w3.org/2000/svg" xmlns:xlink="http://www.w3.org/1999/xlink" fill-opacity="1" color-rendering="auto" color-interpolation="auto" text-rendering="auto" stroke="black" stroke-linecap="square" width="787" stroke-miterlimit="10" shape-rendering="auto" stroke-opacity="1" fill="black" stroke-dasharray="none" font-weight="normal" stroke-width="1" height="465" font-family="'Dialog'" font-style="normal" stroke-linejoin="miter" font-size="12px" stroke-dashoffset="0" image-rendering="auto">
  <!--Generated by ySVG 2.5-->
  <defs id="genericDefs"/>
  <g>
    <defs id="defs1">
      <clipPath clipPathUnits="userSpaceOnUse" id="clipPath1">
        <path d="M0 0 L787 0 L787 465 L0 465 L0 0 Z"/>
      </clipPath>
      <clipPath clipPathUnits="userSpaceOnUse" id="clipPath2">
        <path d="M-124 54 L663 54 L663 519 L-124 519 L-124 54 Z"/>
      </clipPath>
      <clipPath clipPathUnits="userSpaceOnUse" id="clipPath3">
        <path d="M200 69 L200 97 L319 97 L319 69 Z"/>
      </clipPath>
      <clipPath clipPathUnits="userSpaceOnUse" id="clipPath4">
        <path d="M204 133 L204 161 L313 161 L313 133 Z"/>
      </clipPath>
      <clipPath clipPathUnits="userSpaceOnUse" id="clipPath5">
        <path d="M-109 202 L-109 275 L41 275 L41 202 Z"/>
      </clipPath>
      <clipPath clipPathUnits="userSpaceOnUse" id="clipPath6">
        <path d="M-109 318 L-109 408 L87 408 L87 318 Z"/>
      </clipPath>
      <clipPath clipPathUnits="userSpaceOnUse" id="clipPath7">
        <path d="M132 318 L132 419 L350 419 L350 318 Z"/>
      </clipPath>
      <clipPath clipPathUnits="userSpaceOnUse" id="clipPath8">
        <path d="M395 318 L395 391 L647 391 L647 318 Z"/>
      </clipPath>
      <clipPath clipPathUnits="userSpaceOnUse" id="clipPath9">
        <path d="M451 195 L451 253 L647 253 L647 195 Z"/>
      </clipPath>
      <clipPath clipPathUnits="userSpaceOnUse" id="clipPath10">
        <path d="M423 446 L423 504 L619 504 L619 446 Z"/>
      </clipPath>
    </defs>
    <g fill="white" text-rendering="geometricPrecision" shape-rendering="geometricPrecision" transform="translate(124,-54)" stroke="white">
      <rect x="-124" width="787" height="465" y="54" clip-path="url(#clipPath2)" stroke="none"/>
    </g>
    <g fill="rgb(204,255,255)" text-rendering="geometricPrecision" shape-rendering="geometricPrecision" transform="matrix(1,0,0,1,124,-54)" stroke="rgb(204,255,255)">
      <rect x="201" width="117" height="26" y="70" clip-path="url(#clipPath2)" stroke="none"/>
      <rect x="200" y="69" clip-path="url(#clipPath2)" fill="white" width="1" height="28" stroke="none"/>
      <rect x="201" y="69" clip-path="url(#clipPath2)" fill="white" width="117" height="1" stroke="none"/>
      <rect x="201" y="96" clip-path="url(#clipPath2)" fill="rgb(142,178,178)" width="118" height="1" stroke="none"/>
      <rect x="318" y="69" clip-path="url(#clipPath2)" fill="rgb(142,178,178)" width="1" height="27" stroke="none"/>
    </g>
    <g font-size="13px" stroke-linecap="butt" transform="matrix(1,0,0,1,124,-54)" text-rendering="geometricPrecision" font-family="sans-serif" shape-rendering="geometricPrecision" font-weight="bold" stroke-miterlimit="1.45">
      <text x="209.6606" xml:space="preserve" y="86.0669" clip-path="url(#clipPath3)" stroke="none">ArbreAbstrait</text>
    </g>
    <g fill="rgb(204,255,255)" text-rendering="geometricPrecision" shape-rendering="geometricPrecision" transform="matrix(1,0,0,1,124,-54)" stroke="rgb(204,255,255)">
      <rect x="205" width="107" height="26" y="134" clip-path="url(#clipPath2)" stroke="none"/>
      <rect x="204" y="133" clip-path="url(#clipPath2)" fill="white" width="1" height="28" stroke="none"/>
      <rect x="205" y="133" clip-path="url(#clipPath2)" fill="white" width="107" height="1" stroke="none"/>
      <rect x="205" y="160" clip-path="url(#clipPath2)" fill="rgb(142,178,178)" width="108" height="1" stroke="none"/>
      <rect x="312" y="133" clip-path="url(#clipPath2)" fill="rgb(142,178,178)" width="1" height="27" stroke="none"/>
    </g>
    <g font-size="13px" stroke-linecap="butt" transform="matrix(1,0,0,1,124,-54)" text-rendering="geometricPrecision" font-family="sans-serif" shape-rendering="geometricPrecision" font-weight="bold" stroke-miterlimit="1.45">
      <text x="219.6138" xml:space="preserve" y="150.0669" clip-path="url(#clipPath4)" stroke="none">Instruction</text>
    </g>
    <g fill="rgb(204,255,255)" text-rendering="geometricPrecision" shape-rendering="geometricPrecision" transform="matrix(1,0,0,1,124,-54)" stroke="rgb(204,255,255)">
      <rect x="-108" width="148" height="71" y="203" clip-path="url(#clipPath2)" stroke="none"/>
      <rect x="-109" y="202" clip-path="url(#clipPath2)" fill="white" width="1" height="73" stroke="none"/>
      <rect x="-108" y="202" clip-path="url(#clipPath2)" fill="white" width="148" height="1" stroke="none"/>
      <rect x="-108" y="274" clip-path="url(#clipPath2)" fill="rgb(142,178,178)" width="149" height="1" stroke="none"/>
      <rect x="40" y="202" clip-path="url(#clipPath2)" fill="rgb(142,178,178)" width="1" height="72" stroke="none"/>
    </g>
    <g font-size="13px" stroke-linecap="butt" transform="matrix(1,0,0,1,124,-54)" text-rendering="geometricPrecision" font-family="sans-serif" shape-rendering="geometricPrecision" font-weight="bold" stroke-miterlimit="1.45">
      <text x="-74.4944" xml:space="preserve" y="219.0669" clip-path="url(#clipPath5)" stroke="none">Affectation</text>
      <text x="-106.4644" xml:space="preserve" y="234.1997" clip-path="url(#clipPath5)" stroke="none">---------------------------</text>
      <text x="-87.1104" xml:space="preserve" y="249.3325" clip-path="url(#clipPath5)" stroke="none">src:Expression</text>
      <text x="-87.8118" xml:space="preserve" y="264.4653" clip-path="url(#clipPath5)" stroke="none">dst:Expression</text>
    </g>
    <g fill="rgb(204,255,255)" text-rendering="geometricPrecision" shape-rendering="geometricPrecision" transform="matrix(1,0,0,1,124,-54)" stroke="rgb(204,255,255)">
      <rect x="-108" width="194" height="88" y="319" clip-path="url(#clipPath2)" stroke="none"/>
      <rect x="-109" y="318" clip-path="url(#clipPath2)" fill="white" width="1" height="90" stroke="none"/>
      <rect x="-108" y="318" clip-path="url(#clipPath2)" fill="white" width="194" height="1" stroke="none"/>
      <rect x="-108" y="407" clip-path="url(#clipPath2)" fill="rgb(142,178,178)" width="195" height="1" stroke="none"/>
      <rect x="86" y="318" clip-path="url(#clipPath2)" fill="rgb(142,178,178)" width="1" height="89" stroke="none"/>
    </g>
    <g font-size="13px" stroke-linecap="butt" transform="matrix(1,0,0,1,124,-54)" text-rendering="geometricPrecision" font-family="sans-serif" shape-rendering="geometricPrecision" font-weight="bold" stroke-miterlimit="1.45">
      <text x="-45.7974" xml:space="preserve" y="335.0669" clip-path="url(#clipPath6)" stroke="none">Condition</text>
      <text x="-83.4644" xml:space="preserve" y="350.1997" clip-path="url(#clipPath6)" stroke="none">---------------------------</text>
      <text x="-87.438" xml:space="preserve" y="365.3325" clip-path="url(#clipPath6)" stroke="none">condition:Expression</text>
      <text x="-98.5337" xml:space="preserve" y="380.4653" clip-path="url(#clipPath6)" stroke="none">alors:ListeDInstructions</text>
      <text x="-100.1968" xml:space="preserve" y="395.5981" clip-path="url(#clipPath6)" stroke="none">sinon:ListeDInstrcutions</text>
    </g>
    <g fill="rgb(204,255,255)" text-rendering="geometricPrecision" shape-rendering="geometricPrecision" transform="matrix(1,0,0,1,124,-54)" stroke="rgb(204,255,255)">
      <rect x="133" width="216" height="99" y="319" clip-path="url(#clipPath2)" stroke="none"/>
      <rect x="132" y="318" clip-path="url(#clipPath2)" fill="white" width="1" height="101" stroke="none"/>
      <rect x="133" y="318" clip-path="url(#clipPath2)" fill="white" width="216" height="1" stroke="none"/>
      <rect x="133" y="418" clip-path="url(#clipPath2)" fill="rgb(142,178,178)" width="217" height="1" stroke="none"/>
      <rect x="349" y="318" clip-path="url(#clipPath2)" fill="rgb(142,178,178)" width="1" height="100" stroke="none"/>
    </g>
    <g font-size="13px" stroke-linecap="butt" transform="matrix(1,0,0,1,124,-54)" text-rendering="geometricPrecision" font-family="sans-serif" shape-rendering="geometricPrecision" font-weight="bold" stroke-miterlimit="1.45">
      <text x="224.3125" xml:space="preserve" y="335.0669" clip-path="url(#clipPath7)" stroke="none">Pour</text>
      <text x="168.5356" xml:space="preserve" y="350.1997" clip-path="url(#clipPath7)" stroke="none">---------------------------</text>
      <text x="219.1677" xml:space="preserve" y="365.3325" clip-path="url(#clipPath7)" stroke="none">idf:Idf</text>
      <text x="167.5835" xml:space="preserve" y="380.4653" clip-path="url(#clipPath7)" stroke="none">borneInf:Expression</text>
      <text x="163.4956" xml:space="preserve" y="395.5981" clip-path="url(#clipPath7)" stroke="none">borneSup:Expression</text>
      <text x="150.7305" xml:space="preserve" y="410.731" clip-path="url(#clipPath7)" stroke="none">instr:ListeDInsctructions</text>
    </g>
    <g fill="rgb(204,255,255)" text-rendering="geometricPrecision" shape-rendering="geometricPrecision" transform="matrix(1,0,0,1,124,-54)" stroke="rgb(204,255,255)">
      <rect x="396" width="250" height="71" y="319" clip-path="url(#clipPath2)" stroke="none"/>
      <rect x="395" y="318" clip-path="url(#clipPath2)" fill="white" width="1" height="73" stroke="none"/>
      <rect x="396" y="318" clip-path="url(#clipPath2)" fill="white" width="250" height="1" stroke="none"/>
      <rect x="396" y="390" clip-path="url(#clipPath2)" fill="rgb(142,178,178)" width="251" height="1" stroke="none"/>
      <rect x="646" y="318" clip-path="url(#clipPath2)" fill="rgb(142,178,178)" width="1" height="72" stroke="none"/>
    </g>
    <g font-size="13px" stroke-linecap="butt" transform="matrix(1,0,0,1,124,-54)" text-rendering="geometricPrecision" font-family="sans-serif" shape-rendering="geometricPrecision" font-weight="bold" stroke-miterlimit="1.45">
      <text x="500.4023" xml:space="preserve" y="335.0669" clip-path="url(#clipPath8)" stroke="none">Appel</text>
      <text x="448.5356" xml:space="preserve" y="350.1997" clip-path="url(#clipPath8)" stroke="none">---------------------------</text>
      <text x="499.1677" xml:space="preserve" y="365.3325" clip-path="url(#clipPath8)" stroke="none">idf:Idf</text>
      <text x="403.4705" xml:space="preserve" y="380.4653" clip-path="url(#clipPath8)" stroke="none">parametres:ParametresEffectifs</text>
    </g>
    <g fill="rgb(204,255,255)" text-rendering="geometricPrecision" shape-rendering="geometricPrecision" transform="matrix(1,0,0,1,124,-54)" stroke="rgb(204,255,255)">
      <rect x="452" width="194" height="56" y="196" clip-path="url(#clipPath2)" stroke="none"/>
      <rect x="451" y="195" clip-path="url(#clipPath2)" fill="white" width="1" height="58" stroke="none"/>
      <rect x="452" y="195" clip-path="url(#clipPath2)" fill="white" width="194" height="1" stroke="none"/>
      <rect x="452" y="252" clip-path="url(#clipPath2)" fill="rgb(142,178,178)" width="195" height="1" stroke="none"/>
      <rect x="646" y="195" clip-path="url(#clipPath2)" fill="rgb(142,178,178)" width="1" height="57" stroke="none"/>
    </g>
    <g font-size="13px" stroke-linecap="butt" transform="matrix(1,0,0,1,124,-54)" text-rendering="geometricPrecision" font-family="sans-serif" shape-rendering="geometricPrecision" font-weight="bold" stroke-miterlimit="1.45">
      <text x="533.874" xml:space="preserve" y="212.0669" clip-path="url(#clipPath9)" stroke="none">Bloc</text>
      <text x="476.5356" xml:space="preserve" y="227.1997" clip-path="url(#clipPath9)" stroke="none">---------------------------</text>
      <text x="462.5835" xml:space="preserve" y="242.3325" clip-path="url(#clipPath9)" stroke="none">instr:ListeDInstructions</text>
    </g>
    <g fill="rgb(204,255,255)" text-rendering="geometricPrecision" shape-rendering="geometricPrecision" transform="matrix(1,0,0,1,124,-54)" stroke="rgb(204,255,255)">
      <rect x="424" width="194" height="56" y="447" clip-path="url(#clipPath2)" stroke="none"/>
      <rect x="423" y="446" clip-path="url(#clipPath2)" fill="white" width="1" height="58" stroke="none"/>
      <rect x="424" y="446" clip-path="url(#clipPath2)" fill="white" width="194" height="1" stroke="none"/>
      <rect x="424" y="503" clip-path="url(#clipPath2)" fill="rgb(142,178,178)" width="195" height="1" stroke="none"/>
      <rect x="618" y="446" clip-path="url(#clipPath2)" fill="rgb(142,178,178)" width="1" height="57" stroke="none"/>
    </g>
    <g font-size="13px" stroke-linecap="butt" transform="matrix(1,0,0,1,124,-54)" text-rendering="geometricPrecision" font-family="sans-serif" shape-rendering="geometricPrecision" font-weight="bold" stroke-miterlimit="1.45">
      <text x="471.9426" xml:space="preserve" y="463.0669" clip-path="url(#clipPath10)" stroke="none">AppelQualifie</text>
      <text x="448.5356" xml:space="preserve" y="478.1997" clip-path="url(#clipPath10)" stroke="none">---------------------------</text>
      <text x="446.4631" xml:space="preserve" y="493.3325" clip-path="url(#clipPath10)" stroke="none">receveur:Expression</text>
      <path fill="none" d="M259.75 132.9688 L259.75 105.0049" clip-path="url(#clipPath2)"/>
      <path d="M259.75 97.0049 L254.75 109.0049 L259.75 106.0049 L264.75 109.0049 Z" stroke="none" clip-path="url(#clipPath2)"/>
      <path fill="none" d="M-29.934 202.0081 L-27 173 L196.9319 152.6958" clip-path="url(#clipPath2)"/>
      <path d="M204.8993 151.9734 L192.4968 148.0774 L195.936 152.7861 L193.3998 158.0366 Z" stroke="none" clip-path="url(#clipPath2)"/>
      <path fill="none" d="M43.0264 317.9902 L178 268 L245.831 167.6018" clip-path="url(#clipPath2)"/>
      <path d="M250.3096 160.9729 L239.4487 168.1171 L245.2712 168.4304 L247.7348 173.7153 Z" stroke="none" clip-path="url(#clipPath2)"/>
      <path fill="none" d="M245.5628 318.019 L257.9283 168.9598" clip-path="url(#clipPath2)"/>
      <path d="M258.5897 160.9872 L252.6147 172.5327 L257.8456 169.9563 L262.5805 173.3594 Z" stroke="none" clip-path="url(#clipPath2)"/>
      <path fill="none" d="M488.3396 318.0027 L402 281 L280.4025 166.4547" clip-path="url(#clipPath2)"/>
      <path d="M274.5793 160.9692 L279.8857 172.8369 L281.1304 167.1404 L286.7425 165.558 Z" stroke="none" clip-path="url(#clipPath2)"/>
      <path fill="none" d="M538.7183 195.0137 L524.375 156 L322.6279 149.1385" clip-path="url(#clipPath2)"/>
      <path d="M314.6325 148.8666 L326.4557 154.2716 L323.6273 149.1725 L326.7956 144.2774 Z" stroke="none" clip-path="url(#clipPath2)"/>
      <path fill="none" d="M521.375 446.0223 L521.375 399.0106" clip-path="url(#clipPath2)"/>
      <path d="M521.375 391.0106 L516.375 403.0106 L521.375 400.0106 L526.375 403.0106 Z" stroke="none" clip-path="url(#clipPath2)"/>
    </g>
  </g>
</svg>
