<?xml version="1.0" encoding="UTF-8"?><svg xmlns="http://www.w3.org/2000/svg" xmlns:xlink="http://www.w3.org/1999/xlink" fill-opacity="1" color-rendering="auto" color-interpolation="auto" text-rendering="auto" stroke="black" stroke-linecap="square" width="1044" stroke-miterlimit="10" shape-rendering="auto" stroke-opacity="1" fill="black" stroke-dasharray="none" font-weight="normal" stroke-width="1" height="441" font-family="'Dialog'" font-style="normal" stroke-linejoin="miter" font-size="12px" stroke-dashoffset="0" image-rendering="auto">
  <!--Generated by ySVG 2.5-->
  <defs id="genericDefs"/>
  <g>
    <defs id="defs1">
      <clipPath clipPathUnits="userSpaceOnUse" id="clipPath1">
        <path d="M0 0 L1044 0 L1044 441 L0 441 L0 0 Z"/>
      </clipPath>
      <clipPath clipPathUnits="userSpaceOnUse" id="clipPath2">
        <path d="M-238 -17 L806 -17 L806 424 L-238 424 L-238 -17 Z"/>
      </clipPath>
      <clipPath clipPathUnits="userSpaceOnUse" id="clipPath3">
        <path d="M177 -2 L177 26 L296 26 L296 -2 Z"/>
      </clipPath>
      <clipPath clipPathUnits="userSpaceOnUse" id="clipPath4">
        <path d="M91 84 L91 176 L382 176 L382 84 Z"/>
      </clipPath>
      <clipPath clipPathUnits="userSpaceOnUse" id="clipPath5">
        <path d="M-211 162 L-211 230 L-15 230 L-15 162 Z"/>
      </clipPath>
      <clipPath clipPathUnits="userSpaceOnUse" id="clipPath6">
        <path d="M52 308 L52 400 L304 400 L304 308 Z"/>
      </clipPath>
      <clipPath clipPathUnits="userSpaceOnUse" id="clipPath7">
        <path d="M334 308 L334 409 L552 409 L552 308 Z"/>
      </clipPath>
      <clipPath clipPathUnits="userSpaceOnUse" id="clipPath8">
        <path d="M438 162 L438 220 L757 220 L757 162 Z"/>
      </clipPath>
      <clipPath clipPathUnits="userSpaceOnUse" id="clipPath9">
        <path d="M572 308 L572 409 L790 409 L790 308 Z"/>
      </clipPath>
      <clipPath clipPathUnits="userSpaceOnUse" id="clipPath10">
        <path d="M-198 260 L-198 312 L-15 312 L-15 260 Z"/>
      </clipPath>
      <clipPath clipPathUnits="userSpaceOnUse" id="clipPath11">
        <path d="M-198 348 L-198 400 L-15 400 L-15 348 Z"/>
      </clipPath>
      <clipPath clipPathUnits="userSpaceOnUse" id="clipPath12">
        <path d="M-219 72 L-219 135 L4 135 L4 72 Z"/>
      </clipPath>
    </defs>
    <g fill="white" text-rendering="geometricPrecision" shape-rendering="geometricPrecision" transform="translate(238,17)" stroke="white">
      <rect x="-238" width="1044" height="441" y="-17" clip-path="url(#clipPath2)" stroke="none"/>
    </g>
    <g fill="rgb(204,255,255)" text-rendering="geometricPrecision" shape-rendering="geometricPrecision" transform="matrix(1,0,0,1,238,17)" stroke="rgb(204,255,255)">
      <rect x="178" width="117" height="26" y="-1" clip-path="url(#clipPath2)" stroke="none"/>
      <rect x="177" y="-2" clip-path="url(#clipPath2)" fill="white" width="1" height="28" stroke="none"/>
      <rect x="178" y="-2" clip-path="url(#clipPath2)" fill="white" width="117" height="1" stroke="none"/>
      <rect x="178" y="25" clip-path="url(#clipPath2)" fill="rgb(142,178,178)" width="118" height="1" stroke="none"/>
      <rect x="295" y="-2" clip-path="url(#clipPath2)" fill="rgb(142,178,178)" width="1" height="27" stroke="none"/>
    </g>
    <g font-size="13px" stroke-linecap="butt" transform="matrix(1,0,0,1,238,17)" text-rendering="geometricPrecision" font-family="sans-serif" shape-rendering="geometricPrecision" font-weight="bold" stroke-miterlimit="1.45">
      <text x="189.3323" xml:space="preserve" y="15.0669" clip-path="url(#clipPath3)" stroke="none">AbstractTree</text>
    </g>
    <g fill="rgb(204,255,255)" text-rendering="geometricPrecision" shape-rendering="geometricPrecision" transform="matrix(1,0,0,1,238,17)" stroke="rgb(204,255,255)">
      <rect x="92" width="289" height="90" y="85" clip-path="url(#clipPath2)" stroke="none"/>
      <rect x="91" y="84" clip-path="url(#clipPath2)" fill="white" width="1" height="92" stroke="none"/>
      <rect x="92" y="84" clip-path="url(#clipPath2)" fill="white" width="289" height="1" stroke="none"/>
      <rect x="92" y="175" clip-path="url(#clipPath2)" fill="rgb(142,178,178)" width="290" height="1" stroke="none"/>
      <rect x="381" y="84" clip-path="url(#clipPath2)" fill="rgb(142,178,178)" width="1" height="91" stroke="none"/>
    </g>
    <g font-size="13px" stroke-linecap="butt" transform="matrix(1,0,0,1,238,17)" text-rendering="geometricPrecision" font-family="sans-serif" shape-rendering="geometricPrecision" font-weight="bold" stroke-miterlimit="1.45">
      <text x="196.8638" xml:space="preserve" y="101.3931" clip-path="url(#clipPath4)" stroke="none">Instruction</text>
      <text x="99.4146" xml:space="preserve" y="116.5259" clip-path="url(#clipPath4)" stroke="none">---------------------------------------------------</text>
      <text x="138.3765" xml:space="preserve" y="131.6587" clip-path="url(#clipPath4)" stroke="none">declarationLineNumber:int</text>
      <text x="99.4146" xml:space="preserve" y="146.7915" clip-path="url(#clipPath4)" stroke="none">---------------------------------------------------</text>
      <text x="107.9775" xml:space="preserve" y="161.9243" clip-path="url(#clipPath4)" stroke="none">semanticErrorsDetected(): boolean</text>
    </g>
    <g fill="rgb(204,255,255)" text-rendering="geometricPrecision" shape-rendering="geometricPrecision" transform="matrix(1,0,0,1,238,17)" stroke="rgb(204,255,255)">
      <rect x="-210" width="194" height="66" y="163" clip-path="url(#clipPath2)" stroke="none"/>
      <rect x="-211" y="162" clip-path="url(#clipPath2)" fill="white" width="1" height="68" stroke="none"/>
      <rect x="-210" y="162" clip-path="url(#clipPath2)" fill="white" width="194" height="1" stroke="none"/>
      <rect x="-210" y="229" clip-path="url(#clipPath2)" fill="rgb(142,178,178)" width="195" height="1" stroke="none"/>
      <rect x="-16" y="162" clip-path="url(#clipPath2)" fill="rgb(142,178,178)" width="1" height="67" stroke="none"/>
    </g>
    <g font-size="13px" stroke-linecap="butt" transform="matrix(1,0,0,1,238,17)" text-rendering="geometricPrecision" font-family="sans-serif" shape-rendering="geometricPrecision" font-weight="bold" stroke-miterlimit="1.45">
      <text x="-194.0056" xml:space="preserve" y="179.0669" clip-path="url(#clipPath5)" stroke="none">AffectationInstruction</text>
      <text x="-185.8394" xml:space="preserve" y="194.1997" clip-path="url(#clipPath5)" stroke="none">---------------------------</text>
      <text x="-166.4854" xml:space="preserve" y="209.3325" clip-path="url(#clipPath5)" stroke="none">src:Expression</text>
      <text x="-161.3406" xml:space="preserve" y="224.4653" clip-path="url(#clipPath5)" stroke="none">dst:Identifier</text>
    </g>
    <g fill="rgb(204,255,255)" text-rendering="geometricPrecision" shape-rendering="geometricPrecision" transform="matrix(1,0,0,1,238,17)" stroke="rgb(204,255,255)">
      <rect x="53" width="250" height="90" y="309" clip-path="url(#clipPath2)" stroke="none"/>
      <rect x="52" y="308" clip-path="url(#clipPath2)" fill="white" width="1" height="92" stroke="none"/>
      <rect x="53" y="308" clip-path="url(#clipPath2)" fill="white" width="250" height="1" stroke="none"/>
      <rect x="53" y="399" clip-path="url(#clipPath2)" fill="rgb(142,178,178)" width="251" height="1" stroke="none"/>
      <rect x="303" y="308" clip-path="url(#clipPath2)" fill="rgb(142,178,178)" width="1" height="91" stroke="none"/>
    </g>
    <g font-size="13px" stroke-linecap="butt" transform="matrix(1,0,0,1,238,17)" text-rendering="geometricPrecision" font-family="sans-serif" shape-rendering="geometricPrecision" font-weight="bold" stroke-miterlimit="1.45">
      <text x="132.9924" xml:space="preserve" y="325.0669" clip-path="url(#clipPath6)" stroke="none">IfInstruction</text>
      <text x="105.5356" xml:space="preserve" y="340.1997" clip-path="url(#clipPath6)" stroke="none">---------------------------</text>
      <text x="101.562" xml:space="preserve" y="355.3325" clip-path="url(#clipPath6)" stroke="none">condition:Expression</text>
      <text x="59.3628" xml:space="preserve" y="370.4653" clip-path="url(#clipPath6)" stroke="none">thenInstructions:BlocInstruction</text>
      <text x="61.2195" xml:space="preserve" y="385.5981" clip-path="url(#clipPath6)" stroke="none">elseInstructions:BlocInstruction</text>
    </g>
    <g fill="rgb(204,255,255)" text-rendering="geometricPrecision" shape-rendering="geometricPrecision" transform="matrix(1,0,0,1,238,17)" stroke="rgb(204,255,255)">
      <rect x="335" width="216" height="99" y="309" clip-path="url(#clipPath2)" stroke="none"/>
      <rect x="334" y="308" clip-path="url(#clipPath2)" fill="white" width="1" height="101" stroke="none"/>
      <rect x="335" y="308" clip-path="url(#clipPath2)" fill="white" width="216" height="1" stroke="none"/>
      <rect x="335" y="408" clip-path="url(#clipPath2)" fill="rgb(142,178,178)" width="217" height="1" stroke="none"/>
      <rect x="551" y="308" clip-path="url(#clipPath2)" fill="rgb(142,178,178)" width="1" height="100" stroke="none"/>
    </g>
    <g font-size="13px" stroke-linecap="butt" transform="matrix(1,0,0,1,238,17)" text-rendering="geometricPrecision" font-family="sans-serif" shape-rendering="geometricPrecision" font-weight="bold" stroke-miterlimit="1.45">
      <text x="374.1516" xml:space="preserve" y="325.0669" clip-path="url(#clipPath7)" stroke="none">ForLoopInstrcution</text>
      <text x="371.2856" xml:space="preserve" y="340.1997" clip-path="url(#clipPath7)" stroke="none">---------------------------</text>
      <text x="405.1853" xml:space="preserve" y="355.3325" clip-path="url(#clipPath7)" stroke="none">i:Identifier</text>
      <text x="357.927" xml:space="preserve" y="370.4653" clip-path="url(#clipPath7)" stroke="none">lowerBound:Expression</text>
      <text x="356.6924" xml:space="preserve" y="385.5981" clip-path="url(#clipPath7)" stroke="none">upperBound:Expression</text>
      <text x="342.0737" xml:space="preserve" y="400.731" clip-path="url(#clipPath7)" stroke="none">instructions:BlocInstruction</text>
    </g>
    <g fill="rgb(204,255,255)" text-rendering="geometricPrecision" shape-rendering="geometricPrecision" transform="matrix(1,0,0,1,238,17)" stroke="rgb(204,255,255)">
      <rect x="439" width="317" height="56" y="163" clip-path="url(#clipPath2)" stroke="none"/>
      <rect x="438" y="162" clip-path="url(#clipPath2)" fill="white" width="1" height="58" stroke="none"/>
      <rect x="439" y="162" clip-path="url(#clipPath2)" fill="white" width="317" height="1" stroke="none"/>
      <rect x="439" y="219" clip-path="url(#clipPath2)" fill="rgb(142,178,178)" width="318" height="1" stroke="none"/>
      <rect x="756" y="162" clip-path="url(#clipPath2)" fill="rgb(142,178,178)" width="1" height="57" stroke="none"/>
    </g>
    <g font-size="13px" stroke-linecap="butt" transform="matrix(1,0,0,1,238,17)" text-rendering="geometricPrecision" font-family="sans-serif" shape-rendering="geometricPrecision" font-weight="bold" stroke-miterlimit="1.45">
      <text x="542.2378" xml:space="preserve" y="179.0669" clip-path="url(#clipPath8)" stroke="none">BlocInstruction</text>
      <text x="452.1963" xml:space="preserve" y="194.1997" clip-path="url(#clipPath8)" stroke="none">------------------------------------------------------</text>
      <text x="450.9648" xml:space="preserve" y="209.3325" clip-path="url(#clipPath8)" stroke="none">instructionList:LinkedList&lt;Instruction&gt; </text>
    </g>
    <g fill="rgb(204,255,255)" text-rendering="geometricPrecision" shape-rendering="geometricPrecision" transform="matrix(1,0,0,1,238,17)" stroke="rgb(204,255,255)">
      <rect x="573" width="216" height="99" y="309" clip-path="url(#clipPath2)" stroke="none"/>
      <rect x="572" y="308" clip-path="url(#clipPath2)" fill="white" width="1" height="101" stroke="none"/>
      <rect x="573" y="308" clip-path="url(#clipPath2)" fill="white" width="216" height="1" stroke="none"/>
      <rect x="573" y="408" clip-path="url(#clipPath2)" fill="rgb(142,178,178)" width="217" height="1" stroke="none"/>
      <rect x="789" y="308" clip-path="url(#clipPath2)" fill="rgb(142,178,178)" width="1" height="100" stroke="none"/>
    </g>
    <g font-size="13px" stroke-linecap="butt" transform="matrix(1,0,0,1,238,17)" text-rendering="geometricPrecision" font-family="sans-serif" shape-rendering="geometricPrecision" font-weight="bold" stroke-miterlimit="1.45">
      <text x="603.1013" xml:space="preserve" y="325.0669" clip-path="url(#clipPath9)" stroke="none">WhileLoopInstrcution</text>
      <text x="608.7856" xml:space="preserve" y="340.1997" clip-path="url(#clipPath9)" stroke="none">---------------------------</text>
      <text x="604.812" xml:space="preserve" y="355.3325" clip-path="url(#clipPath9)" stroke="none">condition:Expression</text>
      <text x="579.5737" xml:space="preserve" y="370.4653" clip-path="url(#clipPath9)" stroke="none">instructions:BlocInstruction</text>
    </g>
    <g fill="rgb(204,255,255)" text-rendering="geometricPrecision" shape-rendering="geometricPrecision" transform="matrix(1,0,0,1,238,17)" stroke="rgb(204,255,255)">
      <rect x="-197" width="181" height="50" y="261" clip-path="url(#clipPath2)" stroke="none"/>
      <rect x="-198" y="260" clip-path="url(#clipPath2)" fill="white" width="1" height="52" stroke="none"/>
      <rect x="-197" y="260" clip-path="url(#clipPath2)" fill="white" width="181" height="1" stroke="none"/>
      <rect x="-197" y="311" clip-path="url(#clipPath2)" fill="rgb(142,178,178)" width="182" height="1" stroke="none"/>
      <rect x="-16" y="260" clip-path="url(#clipPath2)" fill="rgb(142,178,178)" width="1" height="51" stroke="none"/>
    </g>
    <g font-size="13px" stroke-linecap="butt" transform="matrix(1,0,0,1,238,17)" text-rendering="geometricPrecision" font-family="sans-serif" shape-rendering="geometricPrecision" font-weight="bold" stroke-miterlimit="1.45">
      <text x="-166.7551" xml:space="preserve" y="277.0669" clip-path="url(#clipPath10)" stroke="none">WriteInstruction</text>
      <text x="-179.3394" xml:space="preserve" y="292.1997" clip-path="url(#clipPath10)" stroke="none">---------------------------</text>
      <text x="-173.6455" xml:space="preserve" y="307.3325" clip-path="url(#clipPath10)" stroke="none">output:Expression</text>
    </g>
    <g fill="rgb(204,255,255)" text-rendering="geometricPrecision" shape-rendering="geometricPrecision" transform="matrix(1,0,0,1,238,17)" stroke="rgb(204,255,255)">
      <rect x="-197" width="181" height="50" y="349" clip-path="url(#clipPath2)" stroke="none"/>
      <rect x="-198" y="348" clip-path="url(#clipPath2)" fill="white" width="1" height="52" stroke="none"/>
      <rect x="-197" y="348" clip-path="url(#clipPath2)" fill="white" width="181" height="1" stroke="none"/>
      <rect x="-197" y="399" clip-path="url(#clipPath2)" fill="rgb(142,178,178)" width="182" height="1" stroke="none"/>
      <rect x="-16" y="348" clip-path="url(#clipPath2)" fill="rgb(142,178,178)" width="1" height="51" stroke="none"/>
    </g>
    <g font-size="13px" stroke-linecap="butt" transform="matrix(1,0,0,1,238,17)" text-rendering="geometricPrecision" font-family="sans-serif" shape-rendering="geometricPrecision" font-weight="bold" stroke-miterlimit="1.45">
      <text x="-165.0889" xml:space="preserve" y="365.0669" clip-path="url(#clipPath11)" stroke="none">ReadInstruction</text>
      <text x="-179.3394" xml:space="preserve" y="380.1997" clip-path="url(#clipPath11)" stroke="none">---------------------------</text>
      <text x="-154.8406" xml:space="preserve" y="395.3325" clip-path="url(#clipPath11)" stroke="none">dst:Identifier</text>
    </g>
    <g fill="rgb(204,255,255)" text-rendering="geometricPrecision" shape-rendering="geometricPrecision" transform="matrix(1,0,0,1,238,17)" stroke="rgb(204,255,255)">
      <rect x="-218" width="221" height="61" y="73" clip-path="url(#clipPath2)" stroke="none"/>
      <rect x="-219" y="72" clip-path="url(#clipPath2)" fill="white" width="1" height="63" stroke="none"/>
      <rect x="-218" y="72" clip-path="url(#clipPath2)" fill="white" width="221" height="1" stroke="none"/>
      <rect x="-218" y="134" clip-path="url(#clipPath2)" fill="rgb(142,178,178)" width="222" height="1" stroke="none"/>
      <rect x="3" y="72" clip-path="url(#clipPath2)" fill="rgb(142,178,178)" width="1" height="62" stroke="none"/>
    </g>
    <g font-size="13px" stroke-linecap="butt" transform="matrix(1,0,0,1,238,17)" text-rendering="geometricPrecision" font-family="sans-serif" shape-rendering="geometricPrecision" font-weight="bold" stroke-miterlimit="1.45">
      <text x="-172.6174" xml:space="preserve" y="89.0669" clip-path="url(#clipPath12)" stroke="none">ReturnInstruction</text>
      <text x="-220.8057" xml:space="preserve" y="104.1997" clip-path="url(#clipPath12)" stroke="none">------------------------------------------</text>
      <text x="-213.198" xml:space="preserve" y="119.3325" clip-path="url(#clipPath12)" stroke="none">returnExpression:Expression</text>
      <path fill="none" d="M237 84.3072 L237 34.0166" clip-path="url(#clipPath2)"/>
      <path d="M237 26.0166 L232 38.0166 L237 35.0166 L242 38.0166 Z" stroke="none" clip-path="url(#clipPath2)"/>
      <path fill="none" d="M-14.6052 177.5372 L83.3401 159.1588" clip-path="url(#clipPath2)"/>
      <path d="M91.2029 157.6835 L78.4866 154.9823 L82.3573 159.3432 L80.3308 164.8107 Z" stroke="none" clip-path="url(#clipPath2)"/>
      <path fill="none" d="M157.0046 308.0209 L212.9945 183.6499" clip-path="url(#clipPath2)"/>
      <path d="M216.2785 176.355 L206.7932 185.2448 L212.584 184.5617 L215.9118 189.3498 Z" stroke="none" clip-path="url(#clipPath2)"/>
      <path fill="none" d="M398.2855 308.002 L284.1356 182.2519" clip-path="url(#clipPath2)"/>
      <path d="M278.7586 176.3284 L283.1219 188.5743 L284.8077 182.9923 L290.5263 181.853 Z" stroke="none" clip-path="url(#clipPath2)"/>
      <path fill="none" d="M438.0098 164.1219 L390.6901 156.166" clip-path="url(#clipPath2)"/>
      <path d="M382.8008 154.8396 L393.8057 161.7601 L391.6763 156.3318 L395.4638 151.8985 Z" stroke="none" clip-path="url(#clipPath2)"/>
      <path fill="none" d="M583.1964 307.9881 L333.7516 179.9774" clip-path="url(#clipPath2)"/>
      <path d="M326.6341 176.3248 L335.0275 186.2521 L334.6413 180.434 L339.5932 177.3552 Z" stroke="none" clip-path="url(#clipPath2)"/>
      <path fill="none" d="M-49.0963 259.9847 L128.1897 179.6389" clip-path="url(#clipPath2)"/>
      <path d="M135.4763 176.3366 L122.4825 176.7358 L127.2789 180.0516 L126.6103 185.8441 Z" stroke="none" clip-path="url(#clipPath2)"/>
      <path fill="none" d="M-69.8312 347.9877 L165.6405 180.9476" clip-path="url(#clipPath2)"/>
      <path d="M172.1654 176.3188 L159.485 179.1838 L164.8248 181.5262 L165.2709 187.34 Z" stroke="none" clip-path="url(#clipPath2)"/>
      <path fill="none" d="M4.4036 112.2139 L83.2255 118.3518" clip-path="url(#clipPath2)"/>
      <path d="M91.2014 118.9728 L79.6258 113.0563 L82.2285 118.2741 L78.8494 123.0261 Z" stroke="none" clip-path="url(#clipPath2)"/>
    </g>
  </g>
</svg>
