<?xml version="1.0" encoding="UTF-8"?><svg xmlns="http://www.w3.org/2000/svg" xmlns:xlink="http://www.w3.org/1999/xlink" fill-opacity="1" color-rendering="auto" color-interpolation="auto" text-rendering="auto" stroke="black" stroke-linecap="square" width="1033" stroke-miterlimit="10" shape-rendering="auto" stroke-opacity="1" fill="black" stroke-dasharray="none" font-weight="normal" stroke-width="1" height="370" font-family="'Dialog'" font-style="normal" stroke-linejoin="miter" font-size="12px" stroke-dashoffset="0" image-rendering="auto">
  <!--Generated by ySVG 2.5-->
  <defs id="genericDefs"/>
  <g>
    <defs id="defs1">
      <clipPath clipPathUnits="userSpaceOnUse" id="clipPath1">
        <path d="M0 0 L1033 0 L1033 370 L0 370 L0 0 Z"/>
      </clipPath>
      <clipPath clipPathUnits="userSpaceOnUse" id="clipPath2">
        <path d="M-227 54 L806 54 L806 424 L-227 424 L-227 54 Z"/>
      </clipPath>
      <clipPath clipPathUnits="userSpaceOnUse" id="clipPath3">
        <path d="M200 69 L200 97 L319 97 L319 69 Z"/>
      </clipPath>
      <clipPath clipPathUnits="userSpaceOnUse" id="clipPath4">
        <path d="M204 133 L204 161 L313 161 L313 133 Z"/>
      </clipPath>
      <clipPath clipPathUnits="userSpaceOnUse" id="clipPath5">
        <path d="M-211 162 L-211 230 L-15 230 L-15 162 Z"/>
      </clipPath>
      <clipPath clipPathUnits="userSpaceOnUse" id="clipPath6">
        <path d="M52 308 L52 400 L304 400 L304 308 Z"/>
      </clipPath>
      <clipPath clipPathUnits="userSpaceOnUse" id="clipPath7">
        <path d="M334 308 L334 409 L552 409 L552 308 Z"/>
      </clipPath>
      <clipPath clipPathUnits="userSpaceOnUse" id="clipPath8">
        <path d="M438 162 L438 220 L757 220 L757 162 Z"/>
      </clipPath>
      <clipPath clipPathUnits="userSpaceOnUse" id="clipPath9">
        <path d="M572 308 L572 409 L790 409 L790 308 Z"/>
      </clipPath>
      <clipPath clipPathUnits="userSpaceOnUse" id="clipPath10">
        <path d="M-198 260 L-198 312 L-15 312 L-15 260 Z"/>
      </clipPath>
      <clipPath clipPathUnits="userSpaceOnUse" id="clipPath11">
        <path d="M-198 348 L-198 400 L-15 400 L-15 348 Z"/>
      </clipPath>
    </defs>
    <g fill="white" text-rendering="geometricPrecision" shape-rendering="geometricPrecision" transform="translate(227,-54)" stroke="white">
      <rect x="-227" width="1033" height="370" y="54" clip-path="url(#clipPath2)" stroke="none"/>
    </g>
    <g fill="rgb(204,255,255)" text-rendering="geometricPrecision" shape-rendering="geometricPrecision" transform="matrix(1,0,0,1,227,-54)" stroke="rgb(204,255,255)">
      <rect x="201" width="117" height="26" y="70" clip-path="url(#clipPath2)" stroke="none"/>
      <rect x="200" y="69" clip-path="url(#clipPath2)" fill="white" width="1" height="28" stroke="none"/>
      <rect x="201" y="69" clip-path="url(#clipPath2)" fill="white" width="117" height="1" stroke="none"/>
      <rect x="201" y="96" clip-path="url(#clipPath2)" fill="rgb(142,178,178)" width="118" height="1" stroke="none"/>
      <rect x="318" y="69" clip-path="url(#clipPath2)" fill="rgb(142,178,178)" width="1" height="27" stroke="none"/>
    </g>
    <g font-size="13px" stroke-linecap="butt" transform="matrix(1,0,0,1,227,-54)" text-rendering="geometricPrecision" font-family="sans-serif" shape-rendering="geometricPrecision" font-weight="bold" stroke-miterlimit="1.45">
      <text x="212.0823" xml:space="preserve" y="86.0669" clip-path="url(#clipPath3)" stroke="none">AbstractTree</text>
    </g>
    <g fill="rgb(204,255,255)" text-rendering="geometricPrecision" shape-rendering="geometricPrecision" transform="matrix(1,0,0,1,227,-54)" stroke="rgb(204,255,255)">
      <rect x="205" width="107" height="26" y="134" clip-path="url(#clipPath2)" stroke="none"/>
      <rect x="204" y="133" clip-path="url(#clipPath2)" fill="white" width="1" height="28" stroke="none"/>
      <rect x="205" y="133" clip-path="url(#clipPath2)" fill="white" width="107" height="1" stroke="none"/>
      <rect x="205" y="160" clip-path="url(#clipPath2)" fill="rgb(142,178,178)" width="108" height="1" stroke="none"/>
      <rect x="312" y="133" clip-path="url(#clipPath2)" fill="rgb(142,178,178)" width="1" height="27" stroke="none"/>
    </g>
    <g font-size="13px" stroke-linecap="butt" transform="matrix(1,0,0,1,227,-54)" text-rendering="geometricPrecision" font-family="sans-serif" shape-rendering="geometricPrecision" font-weight="bold" stroke-miterlimit="1.45">
      <text x="219.6138" xml:space="preserve" y="150.0669" clip-path="url(#clipPath4)" stroke="none">Instruction</text>
    </g>
    <g fill="rgb(204,255,255)" text-rendering="geometricPrecision" shape-rendering="geometricPrecision" transform="matrix(1,0,0,1,227,-54)" stroke="rgb(204,255,255)">
      <rect x="-210" width="194" height="66" y="163" clip-path="url(#clipPath2)" stroke="none"/>
      <rect x="-211" y="162" clip-path="url(#clipPath2)" fill="white" width="1" height="68" stroke="none"/>
      <rect x="-210" y="162" clip-path="url(#clipPath2)" fill="white" width="194" height="1" stroke="none"/>
      <rect x="-210" y="229" clip-path="url(#clipPath2)" fill="rgb(142,178,178)" width="195" height="1" stroke="none"/>
      <rect x="-16" y="162" clip-path="url(#clipPath2)" fill="rgb(142,178,178)" width="1" height="67" stroke="none"/>
    </g>
    <g font-size="13px" stroke-linecap="butt" transform="matrix(1,0,0,1,227,-54)" text-rendering="geometricPrecision" font-family="sans-serif" shape-rendering="geometricPrecision" font-weight="bold" stroke-miterlimit="1.45">
      <text x="-194.0056" xml:space="preserve" y="179.0669" clip-path="url(#clipPath5)" stroke="none">AffectationInstruction</text>
      <text x="-185.8394" xml:space="preserve" y="194.1997" clip-path="url(#clipPath5)" stroke="none">---------------------------</text>
      <text x="-166.4854" xml:space="preserve" y="209.3325" clip-path="url(#clipPath5)" stroke="none">src:Expression</text>
      <text x="-161.3406" xml:space="preserve" y="224.4653" clip-path="url(#clipPath5)" stroke="none">dst:Identifier</text>
    </g>
    <g fill="rgb(204,255,255)" text-rendering="geometricPrecision" shape-rendering="geometricPrecision" transform="matrix(1,0,0,1,227,-54)" stroke="rgb(204,255,255)">
      <rect x="53" width="250" height="90" y="309" clip-path="url(#clipPath2)" stroke="none"/>
      <rect x="52" y="308" clip-path="url(#clipPath2)" fill="white" width="1" height="92" stroke="none"/>
      <rect x="53" y="308" clip-path="url(#clipPath2)" fill="white" width="250" height="1" stroke="none"/>
      <rect x="53" y="399" clip-path="url(#clipPath2)" fill="rgb(142,178,178)" width="251" height="1" stroke="none"/>
      <rect x="303" y="308" clip-path="url(#clipPath2)" fill="rgb(142,178,178)" width="1" height="91" stroke="none"/>
    </g>
    <g font-size="13px" stroke-linecap="butt" transform="matrix(1,0,0,1,227,-54)" text-rendering="geometricPrecision" font-family="sans-serif" shape-rendering="geometricPrecision" font-weight="bold" stroke-miterlimit="1.45">
      <text x="132.9924" xml:space="preserve" y="325.0669" clip-path="url(#clipPath6)" stroke="none">IfInstruction</text>
      <text x="105.5356" xml:space="preserve" y="340.1997" clip-path="url(#clipPath6)" stroke="none">---------------------------</text>
      <text x="101.562" xml:space="preserve" y="355.3325" clip-path="url(#clipPath6)" stroke="none">condition:Expression</text>
      <text x="59.3628" xml:space="preserve" y="370.4653" clip-path="url(#clipPath6)" stroke="none">thenInstructions:BlocInstruction</text>
      <text x="61.2195" xml:space="preserve" y="385.5981" clip-path="url(#clipPath6)" stroke="none">elseInstructions:BlocInstruction</text>
    </g>
    <g fill="rgb(204,255,255)" text-rendering="geometricPrecision" shape-rendering="geometricPrecision" transform="matrix(1,0,0,1,227,-54)" stroke="rgb(204,255,255)">
      <rect x="335" width="216" height="99" y="309" clip-path="url(#clipPath2)" stroke="none"/>
      <rect x="334" y="308" clip-path="url(#clipPath2)" fill="white" width="1" height="101" stroke="none"/>
      <rect x="335" y="308" clip-path="url(#clipPath2)" fill="white" width="216" height="1" stroke="none"/>
      <rect x="335" y="408" clip-path="url(#clipPath2)" fill="rgb(142,178,178)" width="217" height="1" stroke="none"/>
      <rect x="551" y="308" clip-path="url(#clipPath2)" fill="rgb(142,178,178)" width="1" height="100" stroke="none"/>
    </g>
    <g font-size="13px" stroke-linecap="butt" transform="matrix(1,0,0,1,227,-54)" text-rendering="geometricPrecision" font-family="sans-serif" shape-rendering="geometricPrecision" font-weight="bold" stroke-miterlimit="1.45">
      <text x="374.1516" xml:space="preserve" y="325.0669" clip-path="url(#clipPath7)" stroke="none">ForLoopInstrcution</text>
      <text x="371.2856" xml:space="preserve" y="340.1997" clip-path="url(#clipPath7)" stroke="none">---------------------------</text>
      <text x="405.1853" xml:space="preserve" y="355.3325" clip-path="url(#clipPath7)" stroke="none">i:Identifier</text>
      <text x="357.927" xml:space="preserve" y="370.4653" clip-path="url(#clipPath7)" stroke="none">lowerBound:Expression</text>
      <text x="356.6924" xml:space="preserve" y="385.5981" clip-path="url(#clipPath7)" stroke="none">upperBound:Expression</text>
      <text x="342.0737" xml:space="preserve" y="400.731" clip-path="url(#clipPath7)" stroke="none">instructions:BlocInstruction</text>
    </g>
    <g fill="rgb(204,255,255)" text-rendering="geometricPrecision" shape-rendering="geometricPrecision" transform="matrix(1,0,0,1,227,-54)" stroke="rgb(204,255,255)">
      <rect x="439" width="317" height="56" y="163" clip-path="url(#clipPath2)" stroke="none"/>
      <rect x="438" y="162" clip-path="url(#clipPath2)" fill="white" width="1" height="58" stroke="none"/>
      <rect x="439" y="162" clip-path="url(#clipPath2)" fill="white" width="317" height="1" stroke="none"/>
      <rect x="439" y="219" clip-path="url(#clipPath2)" fill="rgb(142,178,178)" width="318" height="1" stroke="none"/>
      <rect x="756" y="162" clip-path="url(#clipPath2)" fill="rgb(142,178,178)" width="1" height="57" stroke="none"/>
    </g>
    <g font-size="13px" stroke-linecap="butt" transform="matrix(1,0,0,1,227,-54)" text-rendering="geometricPrecision" font-family="sans-serif" shape-rendering="geometricPrecision" font-weight="bold" stroke-miterlimit="1.45">
      <text x="542.2378" xml:space="preserve" y="179.0669" clip-path="url(#clipPath8)" stroke="none">BlocInstruction</text>
      <text x="452.1963" xml:space="preserve" y="194.1997" clip-path="url(#clipPath8)" stroke="none">------------------------------------------------------</text>
      <text x="450.9648" xml:space="preserve" y="209.3325" clip-path="url(#clipPath8)" stroke="none">instructionList:LinkedList&lt;Instruction&gt; </text>
    </g>
    <g fill="rgb(204,255,255)" text-rendering="geometricPrecision" shape-rendering="geometricPrecision" transform="matrix(1,0,0,1,227,-54)" stroke="rgb(204,255,255)">
      <rect x="573" width="216" height="99" y="309" clip-path="url(#clipPath2)" stroke="none"/>
      <rect x="572" y="308" clip-path="url(#clipPath2)" fill="white" width="1" height="101" stroke="none"/>
      <rect x="573" y="308" clip-path="url(#clipPath2)" fill="white" width="216" height="1" stroke="none"/>
      <rect x="573" y="408" clip-path="url(#clipPath2)" fill="rgb(142,178,178)" width="217" height="1" stroke="none"/>
      <rect x="789" y="308" clip-path="url(#clipPath2)" fill="rgb(142,178,178)" width="1" height="100" stroke="none"/>
    </g>
    <g font-size="13px" stroke-linecap="butt" transform="matrix(1,0,0,1,227,-54)" text-rendering="geometricPrecision" font-family="sans-serif" shape-rendering="geometricPrecision" font-weight="bold" stroke-miterlimit="1.45">
      <text x="603.1013" xml:space="preserve" y="325.0669" clip-path="url(#clipPath9)" stroke="none">WhileLoopInstrcution</text>
      <text x="608.7856" xml:space="preserve" y="340.1997" clip-path="url(#clipPath9)" stroke="none">---------------------------</text>
      <text x="604.812" xml:space="preserve" y="355.3325" clip-path="url(#clipPath9)" stroke="none">condition:Expression</text>
      <text x="579.5737" xml:space="preserve" y="370.4653" clip-path="url(#clipPath9)" stroke="none">instructions:BlocInstruction</text>
    </g>
    <g fill="rgb(204,255,255)" text-rendering="geometricPrecision" shape-rendering="geometricPrecision" transform="matrix(1,0,0,1,227,-54)" stroke="rgb(204,255,255)">
      <rect x="-197" width="181" height="50" y="261" clip-path="url(#clipPath2)" stroke="none"/>
      <rect x="-198" y="260" clip-path="url(#clipPath2)" fill="white" width="1" height="52" stroke="none"/>
      <rect x="-197" y="260" clip-path="url(#clipPath2)" fill="white" width="181" height="1" stroke="none"/>
      <rect x="-197" y="311" clip-path="url(#clipPath2)" fill="rgb(142,178,178)" width="182" height="1" stroke="none"/>
      <rect x="-16" y="260" clip-path="url(#clipPath2)" fill="rgb(142,178,178)" width="1" height="51" stroke="none"/>
    </g>
    <g font-size="13px" stroke-linecap="butt" transform="matrix(1,0,0,1,227,-54)" text-rendering="geometricPrecision" font-family="sans-serif" shape-rendering="geometricPrecision" font-weight="bold" stroke-miterlimit="1.45">
      <text x="-166.7551" xml:space="preserve" y="277.0669" clip-path="url(#clipPath10)" stroke="none">WriteInstruction</text>
      <text x="-179.3394" xml:space="preserve" y="292.1997" clip-path="url(#clipPath10)" stroke="none">---------------------------</text>
      <text x="-173.6455" xml:space="preserve" y="307.3325" clip-path="url(#clipPath10)" stroke="none">output:Expression</text>
    </g>
    <g fill="rgb(204,255,255)" text-rendering="geometricPrecision" shape-rendering="geometricPrecision" transform="matrix(1,0,0,1,227,-54)" stroke="rgb(204,255,255)">
      <rect x="-197" width="181" height="50" y="349" clip-path="url(#clipPath2)" stroke="none"/>
      <rect x="-198" y="348" clip-path="url(#clipPath2)" fill="white" width="1" height="52" stroke="none"/>
      <rect x="-197" y="348" clip-path="url(#clipPath2)" fill="white" width="181" height="1" stroke="none"/>
      <rect x="-197" y="399" clip-path="url(#clipPath2)" fill="rgb(142,178,178)" width="182" height="1" stroke="none"/>
      <rect x="-16" y="348" clip-path="url(#clipPath2)" fill="rgb(142,178,178)" width="1" height="51" stroke="none"/>
    </g>
    <g font-size="13px" stroke-linecap="butt" transform="matrix(1,0,0,1,227,-54)" text-rendering="geometricPrecision" font-family="sans-serif" shape-rendering="geometricPrecision" font-weight="bold" stroke-miterlimit="1.45">
      <text x="-165.0889" xml:space="preserve" y="365.0669" clip-path="url(#clipPath11)" stroke="none">ReadInstruction</text>
      <text x="-179.3394" xml:space="preserve" y="380.1997" clip-path="url(#clipPath11)" stroke="none">---------------------------</text>
      <text x="-154.8406" xml:space="preserve" y="395.3325" clip-path="url(#clipPath11)" stroke="none">dst:Identifier</text>
      <path fill="none" d="M259.75 132.9688 L259.75 105.0049" clip-path="url(#clipPath2)"/>
      <path d="M259.75 97.0049 L254.75 109.0049 L259.75 106.0049 L264.75 109.0049 Z" stroke="none" clip-path="url(#clipPath2)"/>
      <path fill="none" d="M-14.5798 183.0621 L196.9322 155.2577" clip-path="url(#clipPath2)"/>
      <path d="M204.864 154.2151 L192.3147 150.8217 L195.9407 155.3881 L193.618 160.7364 Z" stroke="none" clip-path="url(#clipPath2)"/>
      <path fill="none" d="M161.859 307.9934 L247.0617 167.8675" clip-path="url(#clipPath2)"/>
      <path d="M251.218 161.0319 L240.7113 168.6875 L246.5421 168.7219 L249.2557 173.8829 Z" stroke="none" clip-path="url(#clipPath2)"/>
      <path fill="none" d="M400.0793 307.9744 L277.2206 167.0409" clip-path="url(#clipPath2)"/>
      <path d="M271.9637 161.0106 L276.0802 173.3416 L277.8777 167.7947 L283.618 166.7705 Z" stroke="none" clip-path="url(#clipPath2)"/>
      <path fill="none" d="M438.0168 170.1978 L322.5646 155.174" clip-path="url(#clipPath2)"/>
      <path d="M314.6315 154.1417 L325.8859 160.6484 L323.5562 155.3031 L327.1764 150.732 Z" stroke="none" clip-path="url(#clipPath2)"/>
      <path fill="none" d="M580.8683 307.9873 L294.8505 164.597" clip-path="url(#clipPath2)"/>
      <path d="M287.6989 161.0117 L296.1855 170.8595 L295.7444 165.0452 L300.6671 161.92 Z" stroke="none" clip-path="url(#clipPath2)"/>
      <path fill="none" d="M-37.9622 259.9884 L215.3836 163.838" clip-path="url(#clipPath2)"/>
      <path d="M222.8631 160.9994 L209.8697 160.5827 L214.4487 164.1929 L213.418 169.932 Z" stroke="none" clip-path="url(#clipPath2)"/>
      <path fill="none" d="M-64.5413 347.9942 L230.3464 165.2242" clip-path="url(#clipPath2)"/>
      <path d="M237.1462 161.0097 L224.3124 163.0816 L229.4964 165.7511 L229.5805 171.5814 Z" stroke="none" clip-path="url(#clipPath2)"/>
    </g>
  </g>
</svg>
