<?xml version="1.0" encoding="UTF-8"?><svg xmlns="http://www.w3.org/2000/svg" xmlns:xlink="http://www.w3.org/1999/xlink" fill-opacity="1" color-rendering="auto" color-interpolation="auto" text-rendering="auto" stroke="black" stroke-linecap="square" width="1098" stroke-miterlimit="10" shape-rendering="auto" stroke-opacity="1" fill="black" stroke-dasharray="none" font-weight="normal" stroke-width="1" height="597" font-family="'Dialog'" font-style="normal" stroke-linejoin="miter" font-size="12px" stroke-dashoffset="0" image-rendering="auto">
  <!--Generated by ySVG 2.5-->
  <defs id="genericDefs"/>
  <g>
    <defs id="defs1">
      <clipPath clipPathUnits="userSpaceOnUse" id="clipPath1">
        <path d="M0 0 L1098 0 L1098 597 L0 597 L0 0 Z"/>
      </clipPath>
      <clipPath clipPathUnits="userSpaceOnUse" id="clipPath2">
        <path d="M-124 54 L974 54 L974 651 L-124 651 L-124 54 Z"/>
      </clipPath>
      <clipPath clipPathUnits="userSpaceOnUse" id="clipPath3">
        <path d="M200 69 L200 97 L319 97 L319 69 Z"/>
      </clipPath>
      <clipPath clipPathUnits="userSpaceOnUse" id="clipPath4">
        <path d="M204 133 L204 161 L313 161 L313 133 Z"/>
      </clipPath>
      <clipPath clipPathUnits="userSpaceOnUse" id="clipPath5">
        <path d="M-109 202 L-109 256 L41 256 L41 202 Z"/>
      </clipPath>
      <clipPath clipPathUnits="userSpaceOnUse" id="clipPath6">
        <path d="M147 449 L147 477 L266 477 L266 449 Z"/>
      </clipPath>
      <clipPath clipPathUnits="userSpaceOnUse" id="clipPath7">
        <path d="M68 548 L68 576 L152 576 L152 548 Z"/>
      </clipPath>
      <clipPath clipPathUnits="userSpaceOnUse" id="clipPath8">
        <path d="M126 607 L126 635 L235 635 L235 607 Z"/>
      </clipPath>
      <clipPath clipPathUnits="userSpaceOnUse" id="clipPath9">
        <path d="M319 299 L319 370 L469 370 L469 299 Z"/>
      </clipPath>
      <clipPath clipPathUnits="userSpaceOnUse" id="clipPath10">
        <path d="M441 202 L441 256 L591 256 L591 202 Z"/>
      </clipPath>
      <clipPath clipPathUnits="userSpaceOnUse" id="clipPath11">
        <path d="M544 449 L544 477 L663 477 L663 449 Z"/>
      </clipPath>
      <clipPath clipPathUnits="userSpaceOnUse" id="clipPath12">
        <path d="M210 549 L210 577 L289 577 L289 549 Z"/>
      </clipPath>
      <clipPath clipPathUnits="userSpaceOnUse" id="clipPath13">
        <path d="M282 607 L282 635 L361 635 L361 607 Z"/>
      </clipPath>
      <clipPath clipPathUnits="userSpaceOnUse" id="clipPath14">
        <path d="M430 548 L430 576 L514 576 L514 548 Z"/>
      </clipPath>
      <clipPath clipPathUnits="userSpaceOnUse" id="clipPath15">
        <path d="M480 606 L480 634 L564 634 L564 606 Z"/>
      </clipPath>
      <clipPath clipPathUnits="userSpaceOnUse" id="clipPath16">
        <path d="M553 548 L553 576 L637 576 L637 548 Z"/>
      </clipPath>
      <clipPath clipPathUnits="userSpaceOnUse" id="clipPath17">
        <path d="M613 606 L613 634 L697 634 L697 606 Z"/>
      </clipPath>
      <clipPath clipPathUnits="userSpaceOnUse" id="clipPath18">
        <path d="M675 548 L675 576 L767 576 L767 548 Z"/>
      </clipPath>
      <clipPath clipPathUnits="userSpaceOnUse" id="clipPath19">
        <path d="M735 606 L735 634 L827 634 L827 606 Z"/>
      </clipPath>
      <clipPath clipPathUnits="userSpaceOnUse" id="clipPath20">
        <path d="M35 299 L35 370 L185 370 L185 299 Z"/>
      </clipPath>
      <clipPath clipPathUnits="userSpaceOnUse" id="clipPath21">
        <path d="M-21 449 L-21 477 L58 477 L58 449 Z"/>
      </clipPath>
      <clipPath clipPathUnits="userSpaceOnUse" id="clipPath22">
        <path d="M806 549 L806 577 L898 577 L898 549 Z"/>
      </clipPath>
      <clipPath clipPathUnits="userSpaceOnUse" id="clipPath23">
        <path d="M866 607 L866 635 L958 635 L958 607 Z"/>
      </clipPath>
    </defs>
    <g fill="white" text-rendering="geometricPrecision" shape-rendering="geometricPrecision" transform="translate(124,-54)" stroke="white">
      <rect x="-124" width="1098" height="597" y="54" clip-path="url(#clipPath2)" stroke="none"/>
    </g>
    <g fill="rgb(204,255,255)" text-rendering="geometricPrecision" shape-rendering="geometricPrecision" transform="matrix(1,0,0,1,124,-54)" stroke="rgb(204,255,255)">
      <rect x="201" width="117" height="26" y="70" clip-path="url(#clipPath2)" stroke="none"/>
      <rect x="200" y="69" clip-path="url(#clipPath2)" fill="white" width="1" height="28" stroke="none"/>
      <rect x="201" y="69" clip-path="url(#clipPath2)" fill="white" width="117" height="1" stroke="none"/>
      <rect x="201" y="96" clip-path="url(#clipPath2)" fill="rgb(142,178,178)" width="118" height="1" stroke="none"/>
      <rect x="318" y="69" clip-path="url(#clipPath2)" fill="rgb(142,178,178)" width="1" height="27" stroke="none"/>
    </g>
    <g font-size="13px" stroke-linecap="butt" transform="matrix(1,0,0,1,124,-54)" text-rendering="geometricPrecision" font-family="sans-serif" shape-rendering="geometricPrecision" font-weight="bold" stroke-miterlimit="1.45">
      <text x="209.6606" xml:space="preserve" y="86.0669" clip-path="url(#clipPath3)" stroke="none">ArbreAbstrait</text>
    </g>
    <g fill="rgb(204,255,255)" text-rendering="geometricPrecision" shape-rendering="geometricPrecision" transform="matrix(1,0,0,1,124,-54)" stroke="rgb(204,255,255)">
      <rect x="205" width="107" height="26" y="134" clip-path="url(#clipPath2)" stroke="none"/>
      <rect x="204" y="133" clip-path="url(#clipPath2)" fill="white" width="1" height="28" stroke="none"/>
      <rect x="205" y="133" clip-path="url(#clipPath2)" fill="white" width="107" height="1" stroke="none"/>
      <rect x="205" y="160" clip-path="url(#clipPath2)" fill="rgb(142,178,178)" width="108" height="1" stroke="none"/>
      <rect x="312" y="133" clip-path="url(#clipPath2)" fill="rgb(142,178,178)" width="1" height="27" stroke="none"/>
    </g>
    <g font-size="13px" stroke-linecap="butt" transform="matrix(1,0,0,1,124,-54)" text-rendering="geometricPrecision" font-family="sans-serif" shape-rendering="geometricPrecision" font-weight="bold" stroke-miterlimit="1.45">
      <text x="219.7915" xml:space="preserve" y="150.0669" clip-path="url(#clipPath4)" stroke="none">Expression</text>
    </g>
    <g fill="rgb(204,255,255)" text-rendering="geometricPrecision" shape-rendering="geometricPrecision" transform="matrix(1,0,0,1,124,-54)" stroke="rgb(204,255,255)">
      <rect x="-108" width="148" height="52" y="203" clip-path="url(#clipPath2)" stroke="none"/>
      <rect x="-109" y="202" clip-path="url(#clipPath2)" fill="white" width="1" height="54" stroke="none"/>
      <rect x="-108" y="202" clip-path="url(#clipPath2)" fill="white" width="148" height="1" stroke="none"/>
      <rect x="-108" y="255" clip-path="url(#clipPath2)" fill="rgb(142,178,178)" width="149" height="1" stroke="none"/>
      <rect x="40" y="202" clip-path="url(#clipPath2)" fill="rgb(142,178,178)" width="1" height="53" stroke="none"/>
    </g>
    <g font-size="13px" stroke-linecap="butt" transform="matrix(1,0,0,1,124,-54)" text-rendering="geometricPrecision" font-family="sans-serif" shape-rendering="geometricPrecision" font-weight="bold" stroke-miterlimit="1.45">
      <text x="-62.5703" xml:space="preserve" y="219.0669" clip-path="url(#clipPath5)" stroke="none">Nombre</text>
      <text x="-106.4644" xml:space="preserve" y="234.1997" clip-path="url(#clipPath5)" stroke="none">---------------------------</text>
      <text x="-69.4702" xml:space="preserve" y="249.3325" clip-path="url(#clipPath5)" stroke="none">valeur:Int</text>
    </g>
    <g fill="rgb(204,255,255)" text-rendering="geometricPrecision" shape-rendering="geometricPrecision" transform="matrix(1,0,0,1,124,-54)" stroke="rgb(204,255,255)">
      <rect x="148" width="117" height="26" y="450" clip-path="url(#clipPath2)" stroke="none"/>
      <rect x="147" y="449" clip-path="url(#clipPath2)" fill="white" width="1" height="28" stroke="none"/>
      <rect x="148" y="449" clip-path="url(#clipPath2)" fill="white" width="117" height="1" stroke="none"/>
      <rect x="148" y="476" clip-path="url(#clipPath2)" fill="rgb(142,178,178)" width="118" height="1" stroke="none"/>
      <rect x="265" y="449" clip-path="url(#clipPath2)" fill="rgb(142,178,178)" width="1" height="27" stroke="none"/>
    </g>
    <g font-size="13px" stroke-linecap="butt" transform="matrix(1,0,0,1,124,-54)" text-rendering="geometricPrecision" font-family="sans-serif" shape-rendering="geometricPrecision" font-weight="bold" stroke-miterlimit="1.45">
      <text x="159.0959" xml:space="preserve" y="466.0669" clip-path="url(#clipPath6)" stroke="none">Arithmetique</text>
    </g>
    <g fill="rgb(204,255,255)" text-rendering="geometricPrecision" shape-rendering="geometricPrecision" transform="matrix(1,0,0,1,124,-54)" stroke="rgb(204,255,255)">
      <rect x="69" width="82" height="26" y="549" clip-path="url(#clipPath2)" stroke="none"/>
      <rect x="68" y="548" clip-path="url(#clipPath2)" fill="white" width="1" height="28" stroke="none"/>
      <rect x="69" y="548" clip-path="url(#clipPath2)" fill="white" width="82" height="1" stroke="none"/>
      <rect x="69" y="575" clip-path="url(#clipPath2)" fill="rgb(142,178,178)" width="83" height="1" stroke="none"/>
      <rect x="151" y="548" clip-path="url(#clipPath2)" fill="rgb(142,178,178)" width="1" height="27" stroke="none"/>
    </g>
    <g font-size="13px" stroke-linecap="butt" transform="matrix(1,0,0,1,124,-54)" text-rendering="geometricPrecision" font-family="sans-serif" shape-rendering="geometricPrecision" font-weight="bold" stroke-miterlimit="1.45">
      <text x="79.7576" xml:space="preserve" y="565.0669" clip-path="url(#clipPath7)" stroke="none">Addition</text>
    </g>
    <g fill="rgb(204,255,255)" text-rendering="geometricPrecision" shape-rendering="geometricPrecision" transform="matrix(1,0,0,1,124,-54)" stroke="rgb(204,255,255)">
      <rect x="127" width="107" height="26" y="608" clip-path="url(#clipPath2)" stroke="none"/>
      <rect x="126" y="607" clip-path="url(#clipPath2)" fill="white" width="1" height="28" stroke="none"/>
      <rect x="127" y="607" clip-path="url(#clipPath2)" fill="white" width="107" height="1" stroke="none"/>
      <rect x="127" y="634" clip-path="url(#clipPath2)" fill="rgb(142,178,178)" width="108" height="1" stroke="none"/>
      <rect x="234" y="607" clip-path="url(#clipPath2)" fill="rgb(142,178,178)" width="1" height="27" stroke="none"/>
    </g>
    <g font-size="13px" stroke-linecap="butt" transform="matrix(1,0,0,1,124,-54)" text-rendering="geometricPrecision" font-family="sans-serif" shape-rendering="geometricPrecision" font-weight="bold" stroke-miterlimit="1.45">
      <text x="135.1265" xml:space="preserve" y="624.5669" clip-path="url(#clipPath8)" stroke="none">Soustraction</text>
    </g>
    <g fill="rgb(204,255,255)" text-rendering="geometricPrecision" shape-rendering="geometricPrecision" transform="matrix(1,0,0,1,124,-54)" stroke="rgb(204,255,255)">
      <rect x="320" width="148" height="69" y="300" clip-path="url(#clipPath2)" stroke="none"/>
      <rect x="319" y="299" clip-path="url(#clipPath2)" fill="white" width="1" height="71" stroke="none"/>
      <rect x="320" y="299" clip-path="url(#clipPath2)" fill="white" width="148" height="1" stroke="none"/>
      <rect x="320" y="369" clip-path="url(#clipPath2)" fill="rgb(142,178,178)" width="149" height="1" stroke="none"/>
      <rect x="468" y="299" clip-path="url(#clipPath2)" fill="rgb(142,178,178)" width="1" height="70" stroke="none"/>
    </g>
    <g font-size="13px" stroke-linecap="butt" transform="matrix(1,0,0,1,124,-54)" text-rendering="geometricPrecision" font-family="sans-serif" shape-rendering="geometricPrecision" font-weight="bold" stroke-miterlimit="1.45">
      <text x="368.7119" xml:space="preserve" y="316.0669" clip-path="url(#clipPath9)" stroke="none">Binaire</text>
      <text x="321.9106" xml:space="preserve" y="331.1997" clip-path="url(#clipPath9)" stroke="none">---------------------------</text>
      <text x="328.2361" xml:space="preserve" y="346.3325" clip-path="url(#clipPath9)" stroke="none">gaucheExpression</text>
      <text x="332.7239" xml:space="preserve" y="361.4653" clip-path="url(#clipPath9)" stroke="none">droiteExpression</text>
    </g>
    <g fill="rgb(204,255,255)" text-rendering="geometricPrecision" shape-rendering="geometricPrecision" transform="matrix(1,0,0,1,124,-54)" stroke="rgb(204,255,255)">
      <rect x="442" width="148" height="52" y="203" clip-path="url(#clipPath2)" stroke="none"/>
      <rect x="441" y="202" clip-path="url(#clipPath2)" fill="white" width="1" height="54" stroke="none"/>
      <rect x="442" y="202" clip-path="url(#clipPath2)" fill="white" width="148" height="1" stroke="none"/>
      <rect x="442" y="255" clip-path="url(#clipPath2)" fill="rgb(142,178,178)" width="149" height="1" stroke="none"/>
      <rect x="590" y="202" clip-path="url(#clipPath2)" fill="rgb(142,178,178)" width="1" height="53" stroke="none"/>
    </g>
    <g font-size="13px" stroke-linecap="butt" transform="matrix(1,0,0,1,124,-54)" text-rendering="geometricPrecision" font-family="sans-serif" shape-rendering="geometricPrecision" font-weight="bold" stroke-miterlimit="1.45">
      <text x="478.5059" xml:space="preserve" y="219.0669" clip-path="url(#clipPath10)" stroke="none">Identifiant</text>
      <text x="444.2856" xml:space="preserve" y="234.1997" clip-path="url(#clipPath10)" stroke="none">---------------------------</text>
      <text x="476.1572" xml:space="preserve" y="249.3325" clip-path="url(#clipPath10)" stroke="none">nom:String</text>
    </g>
    <g fill="rgb(204,255,255)" text-rendering="geometricPrecision" shape-rendering="geometricPrecision" transform="matrix(1,0,0,1,124,-54)" stroke="rgb(204,255,255)">
      <rect x="545" width="117" height="26" y="450" clip-path="url(#clipPath2)" stroke="none"/>
      <rect x="544" y="449" clip-path="url(#clipPath2)" fill="white" width="1" height="28" stroke="none"/>
      <rect x="545" y="449" clip-path="url(#clipPath2)" fill="white" width="117" height="1" stroke="none"/>
      <rect x="545" y="476" clip-path="url(#clipPath2)" fill="rgb(142,178,178)" width="118" height="1" stroke="none"/>
      <rect x="662" y="449" clip-path="url(#clipPath2)" fill="rgb(142,178,178)" width="1" height="27" stroke="none"/>
    </g>
    <g font-size="13px" stroke-linecap="butt" transform="matrix(1,0,0,1,124,-54)" text-rendering="geometricPrecision" font-family="sans-serif" shape-rendering="geometricPrecision" font-weight="bold" stroke-miterlimit="1.45">
      <text x="573.6689" xml:space="preserve" y="466.0669" clip-path="url(#clipPath11)" stroke="none">Relation</text>
    </g>
    <g fill="rgb(204,255,255)" text-rendering="geometricPrecision" shape-rendering="geometricPrecision" transform="matrix(1,0,0,1,124,-54)" stroke="rgb(204,255,255)">
      <rect x="211" width="77" height="26" y="550" clip-path="url(#clipPath2)" stroke="none"/>
      <rect x="210" y="549" clip-path="url(#clipPath2)" fill="white" width="1" height="28" stroke="none"/>
      <rect x="211" y="549" clip-path="url(#clipPath2)" fill="white" width="77" height="1" stroke="none"/>
      <rect x="211" y="576" clip-path="url(#clipPath2)" fill="rgb(142,178,178)" width="78" height="1" stroke="none"/>
      <rect x="288" y="549" clip-path="url(#clipPath2)" fill="rgb(142,178,178)" width="1" height="27" stroke="none"/>
    </g>
    <g font-size="13px" stroke-linecap="butt" transform="matrix(1,0,0,1,124,-54)" text-rendering="geometricPrecision" font-family="sans-serif" shape-rendering="geometricPrecision" font-weight="bold" stroke-miterlimit="1.45">
      <text x="223.1995" xml:space="preserve" y="566.5669" clip-path="url(#clipPath12)" stroke="none">Produit</text>
    </g>
    <g fill="rgb(204,255,255)" text-rendering="geometricPrecision" shape-rendering="geometricPrecision" transform="matrix(1,0,0,1,124,-54)" stroke="rgb(204,255,255)">
      <rect x="283" width="77" height="26" y="608" clip-path="url(#clipPath2)" stroke="none"/>
      <rect x="282" y="607" clip-path="url(#clipPath2)" fill="white" width="1" height="28" stroke="none"/>
      <rect x="283" y="607" clip-path="url(#clipPath2)" fill="white" width="77" height="1" stroke="none"/>
      <rect x="283" y="634" clip-path="url(#clipPath2)" fill="rgb(142,178,178)" width="78" height="1" stroke="none"/>
      <rect x="360" y="607" clip-path="url(#clipPath2)" fill="rgb(142,178,178)" width="1" height="27" stroke="none"/>
    </g>
    <g font-size="13px" stroke-linecap="butt" transform="matrix(1,0,0,1,124,-54)" text-rendering="geometricPrecision" font-family="sans-serif" shape-rendering="geometricPrecision" font-weight="bold" stroke-miterlimit="1.45">
      <text x="293.2214" xml:space="preserve" y="624.5669" clip-path="url(#clipPath13)" stroke="none">Division</text>
    </g>
    <g fill="rgb(204,255,255)" text-rendering="geometricPrecision" shape-rendering="geometricPrecision" transform="matrix(1,0,0,1,124,-54)" stroke="rgb(204,255,255)">
      <rect x="431" width="82" height="26" y="549" clip-path="url(#clipPath2)" stroke="none"/>
      <rect x="430" y="548" clip-path="url(#clipPath2)" fill="white" width="1" height="28" stroke="none"/>
      <rect x="431" y="548" clip-path="url(#clipPath2)" fill="white" width="82" height="1" stroke="none"/>
      <rect x="431" y="575" clip-path="url(#clipPath2)" fill="rgb(142,178,178)" width="83" height="1" stroke="none"/>
      <rect x="513" y="548" clip-path="url(#clipPath2)" fill="rgb(142,178,178)" width="1" height="27" stroke="none"/>
    </g>
    <g font-size="13px" stroke-linecap="butt" transform="matrix(1,0,0,1,124,-54)" text-rendering="geometricPrecision" font-family="sans-serif" shape-rendering="geometricPrecision" font-weight="bold" stroke-miterlimit="1.45">
      <text x="441.7104" xml:space="preserve" y="565.0669" clip-path="url(#clipPath14)" stroke="none">EgalEgal</text>
    </g>
    <g fill="rgb(204,255,255)" text-rendering="geometricPrecision" shape-rendering="geometricPrecision" transform="matrix(1,0,0,1,124,-54)" stroke="rgb(204,255,255)">
      <rect x="481" width="82" height="26" y="607" clip-path="url(#clipPath2)" stroke="none"/>
      <rect x="480" y="606" clip-path="url(#clipPath2)" fill="white" width="1" height="28" stroke="none"/>
      <rect x="481" y="606" clip-path="url(#clipPath2)" fill="white" width="82" height="1" stroke="none"/>
      <rect x="481" y="633" clip-path="url(#clipPath2)" fill="rgb(142,178,178)" width="83" height="1" stroke="none"/>
      <rect x="563" y="606" clip-path="url(#clipPath2)" fill="rgb(142,178,178)" width="1" height="27" stroke="none"/>
    </g>
    <g font-size="13px" stroke-linecap="butt" transform="matrix(1,0,0,1,124,-54)" text-rendering="geometricPrecision" font-family="sans-serif" shape-rendering="geometricPrecision" font-weight="bold" stroke-miterlimit="1.45">
      <text x="497.5439" xml:space="preserve" y="623.0669" clip-path="url(#clipPath15)" stroke="none">InfEgal</text>
    </g>
    <g fill="rgb(204,255,255)" text-rendering="geometricPrecision" shape-rendering="geometricPrecision" transform="matrix(1,0,0,1,124,-54)" stroke="rgb(204,255,255)">
      <rect x="554" width="82" height="26" y="549" clip-path="url(#clipPath2)" stroke="none"/>
      <rect x="553" y="548" clip-path="url(#clipPath2)" fill="white" width="1" height="28" stroke="none"/>
      <rect x="554" y="548" clip-path="url(#clipPath2)" fill="white" width="82" height="1" stroke="none"/>
      <rect x="554" y="575" clip-path="url(#clipPath2)" fill="rgb(142,178,178)" width="83" height="1" stroke="none"/>
      <rect x="636" y="548" clip-path="url(#clipPath2)" fill="rgb(142,178,178)" width="1" height="27" stroke="none"/>
    </g>
    <g font-size="13px" stroke-linecap="butt" transform="matrix(1,0,0,1,124,-54)" text-rendering="geometricPrecision" font-family="sans-serif" shape-rendering="geometricPrecision" font-weight="bold" stroke-miterlimit="1.45">
      <text x="563.6677" xml:space="preserve" y="565.0669" clip-path="url(#clipPath16)" stroke="none">Inferieur</text>
    </g>
    <g fill="rgb(204,255,255)" text-rendering="geometricPrecision" shape-rendering="geometricPrecision" transform="matrix(1,0,0,1,124,-54)" stroke="rgb(204,255,255)">
      <rect x="614" width="82" height="26" y="607" clip-path="url(#clipPath2)" stroke="none"/>
      <rect x="613" y="606" clip-path="url(#clipPath2)" fill="white" width="1" height="28" stroke="none"/>
      <rect x="614" y="606" clip-path="url(#clipPath2)" fill="white" width="82" height="1" stroke="none"/>
      <rect x="614" y="633" clip-path="url(#clipPath2)" fill="rgb(142,178,178)" width="83" height="1" stroke="none"/>
      <rect x="696" y="606" clip-path="url(#clipPath2)" fill="rgb(142,178,178)" width="1" height="27" stroke="none"/>
    </g>
    <g font-size="13px" stroke-linecap="butt" transform="matrix(1,0,0,1,124,-54)" text-rendering="geometricPrecision" font-family="sans-serif" shape-rendering="geometricPrecision" font-weight="bold" stroke-miterlimit="1.45">
      <text x="623.0886" xml:space="preserve" y="623.0669" clip-path="url(#clipPath17)" stroke="none">Different</text>
    </g>
    <g fill="rgb(204,255,255)" text-rendering="geometricPrecision" shape-rendering="geometricPrecision" transform="matrix(1,0,0,1,124,-54)" stroke="rgb(204,255,255)">
      <rect x="676" width="90" height="26" y="549" clip-path="url(#clipPath2)" stroke="none"/>
      <rect x="675" y="548" clip-path="url(#clipPath2)" fill="white" width="1" height="28" stroke="none"/>
      <rect x="676" y="548" clip-path="url(#clipPath2)" fill="white" width="90" height="1" stroke="none"/>
      <rect x="676" y="575" clip-path="url(#clipPath2)" fill="rgb(142,178,178)" width="91" height="1" stroke="none"/>
      <rect x="766" y="548" clip-path="url(#clipPath2)" fill="rgb(142,178,178)" width="1" height="27" stroke="none"/>
    </g>
    <g font-size="13px" stroke-linecap="butt" transform="matrix(1,0,0,1,124,-54)" text-rendering="geometricPrecision" font-family="sans-serif" shape-rendering="geometricPrecision" font-weight="bold" stroke-miterlimit="1.45">
      <text x="686.0798" xml:space="preserve" y="565.0669" clip-path="url(#clipPath18)" stroke="none">Supérieur</text>
    </g>
    <g fill="rgb(204,255,255)" text-rendering="geometricPrecision" shape-rendering="geometricPrecision" transform="matrix(1,0,0,1,124,-54)" stroke="rgb(204,255,255)">
      <rect x="736" width="90" height="26" y="607" clip-path="url(#clipPath2)" stroke="none"/>
      <rect x="735" y="606" clip-path="url(#clipPath2)" fill="white" width="1" height="28" stroke="none"/>
      <rect x="736" y="606" clip-path="url(#clipPath2)" fill="white" width="90" height="1" stroke="none"/>
      <rect x="736" y="633" clip-path="url(#clipPath2)" fill="rgb(142,178,178)" width="91" height="1" stroke="none"/>
      <rect x="826" y="606" clip-path="url(#clipPath2)" fill="rgb(142,178,178)" width="1" height="27" stroke="none"/>
    </g>
    <g font-size="13px" stroke-linecap="butt" transform="matrix(1,0,0,1,124,-54)" text-rendering="geometricPrecision" font-family="sans-serif" shape-rendering="geometricPrecision" font-weight="bold" stroke-miterlimit="1.45">
      <text x="752.4561" xml:space="preserve" y="623.0669" clip-path="url(#clipPath19)" stroke="none">SupEgal</text>
    </g>
    <g fill="rgb(204,255,255)" text-rendering="geometricPrecision" shape-rendering="geometricPrecision" transform="matrix(1,0,0,1,124,-54)" stroke="rgb(204,255,255)">
      <rect x="36" width="148" height="69" y="300" clip-path="url(#clipPath2)" stroke="none"/>
      <rect x="35" y="299" clip-path="url(#clipPath2)" fill="white" width="1" height="71" stroke="none"/>
      <rect x="36" y="299" clip-path="url(#clipPath2)" fill="white" width="148" height="1" stroke="none"/>
      <rect x="36" y="369" clip-path="url(#clipPath2)" fill="rgb(142,178,178)" width="149" height="1" stroke="none"/>
      <rect x="184" y="299" clip-path="url(#clipPath2)" fill="rgb(142,178,178)" width="1" height="70" stroke="none"/>
    </g>
    <g font-size="13px" stroke-linecap="butt" transform="matrix(1,0,0,1,124,-54)" text-rendering="geometricPrecision" font-family="sans-serif" shape-rendering="geometricPrecision" font-weight="bold" stroke-miterlimit="1.45">
      <text x="86.6162" xml:space="preserve" y="316.0669" clip-path="url(#clipPath20)" stroke="none">Unaire</text>
      <text x="37.9106" xml:space="preserve" y="331.1997" clip-path="url(#clipPath20)" stroke="none">---------------------------</text>
      <text x="70.7915" xml:space="preserve" y="346.3325" clip-path="url(#clipPath20)" stroke="none">Expression</text>
    </g>
    <g fill="rgb(204,255,255)" text-rendering="geometricPrecision" shape-rendering="geometricPrecision" transform="matrix(1,0,0,1,124,-54)" stroke="rgb(204,255,255)">
      <rect x="-20" width="77" height="26" y="450" clip-path="url(#clipPath2)" stroke="none"/>
      <rect x="-21" y="449" clip-path="url(#clipPath2)" fill="white" width="1" height="28" stroke="none"/>
      <rect x="-20" y="449" clip-path="url(#clipPath2)" fill="white" width="77" height="1" stroke="none"/>
      <rect x="-20" y="476" clip-path="url(#clipPath2)" fill="rgb(142,178,178)" width="78" height="1" stroke="none"/>
      <rect x="57" y="449" clip-path="url(#clipPath2)" fill="rgb(142,178,178)" width="1" height="27" stroke="none"/>
    </g>
    <g font-size="13px" stroke-linecap="butt" transform="matrix(1,0,0,1,124,-54)" text-rendering="geometricPrecision" font-family="sans-serif" shape-rendering="geometricPrecision" font-weight="bold" stroke-miterlimit="1.45">
      <text x="4.217" xml:space="preserve" y="466.0669" clip-path="url(#clipPath21)" stroke="none">Non</text>
    </g>
    <g fill="rgb(204,255,255)" text-rendering="geometricPrecision" shape-rendering="geometricPrecision" transform="matrix(1,0,0,1,124,-54)" stroke="rgb(204,255,255)">
      <rect x="807" width="90" height="26" y="550" clip-path="url(#clipPath2)" stroke="none"/>
      <rect x="806" y="549" clip-path="url(#clipPath2)" fill="white" width="1" height="28" stroke="none"/>
      <rect x="807" y="549" clip-path="url(#clipPath2)" fill="white" width="90" height="1" stroke="none"/>
      <rect x="807" y="576" clip-path="url(#clipPath2)" fill="rgb(142,178,178)" width="91" height="1" stroke="none"/>
      <rect x="897" y="549" clip-path="url(#clipPath2)" fill="rgb(142,178,178)" width="1" height="27" stroke="none"/>
    </g>
    <g font-size="13px" stroke-linecap="butt" transform="matrix(1,0,0,1,124,-54)" text-rendering="geometricPrecision" font-family="sans-serif" shape-rendering="geometricPrecision" font-weight="bold" stroke-miterlimit="1.45">
      <text x="845.0776" xml:space="preserve" y="566.5669" clip-path="url(#clipPath22)" stroke="none">Et</text>
    </g>
    <g fill="rgb(204,255,255)" text-rendering="geometricPrecision" shape-rendering="geometricPrecision" transform="matrix(1,0,0,1,124,-54)" stroke="rgb(204,255,255)">
      <rect x="867" width="90" height="26" y="608" clip-path="url(#clipPath2)" stroke="none"/>
      <rect x="866" y="607" clip-path="url(#clipPath2)" fill="white" width="1" height="28" stroke="none"/>
      <rect x="867" y="607" clip-path="url(#clipPath2)" fill="white" width="90" height="1" stroke="none"/>
      <rect x="867" y="634" clip-path="url(#clipPath2)" fill="rgb(142,178,178)" width="91" height="1" stroke="none"/>
      <rect x="957" y="607" clip-path="url(#clipPath2)" fill="rgb(142,178,178)" width="1" height="27" stroke="none"/>
    </g>
    <g font-size="13px" stroke-linecap="butt" transform="matrix(1,0,0,1,124,-54)" text-rendering="geometricPrecision" font-family="sans-serif" shape-rendering="geometricPrecision" font-weight="bold" stroke-miterlimit="1.45">
      <text x="902.4719" xml:space="preserve" y="624.5669" clip-path="url(#clipPath23)" stroke="none">Ou</text>
      <path fill="none" d="M259.75 132.9688 L259.75 105.0049" clip-path="url(#clipPath2)"/>
      <path d="M259.75 97.0049 L254.75 109.0049 L259.75 106.0049 L264.75 109.0049 Z" stroke="none" clip-path="url(#clipPath2)"/>
      <path fill="none" d="M-33.625 201.998 L-33.625 179 L196.8968 153.8557" clip-path="url(#clipPath2)"/>
      <path d="M204.8496 152.9883 L192.3782 149.319 L195.9027 153.9642 L193.4625 159.26 Z" stroke="none" clip-path="url(#clipPath2)"/>
      <path fill="none" d="M110.75 548.0352 L110.75 518 L175.9089 480.9587" clip-path="url(#clipPath2)"/>
      <path d="M182.8637 477.0051 L169.9605 478.5888 L175.0396 481.4529 L174.9026 487.2823 Z" stroke="none" clip-path="url(#clipPath2)"/>
      <path fill="none" d="M181.75 607.5154 L181.75 538 L200.0866 484.5923" clip-path="url(#clipPath2)"/>
      <path d="M202.6844 477.0259 L194.0587 486.7519 L199.7619 485.5381 L203.5168 489.9992 Z" stroke="none" clip-path="url(#clipPath2)"/>
      <path fill="none" d="M207.5 449.0293 L207.5 417 L312.0445 370.939" clip-path="url(#clipPath2)"/>
      <path d="M319.3654 367.7135 L306.3681 367.9762 L311.1294 371.3422 L310.4 377.1274 Z" stroke="none" clip-path="url(#clipPath2)"/>
      <path fill="none" d="M369.1903 299.0004 L274.4974 167.4825" clip-path="url(#clipPath2)"/>
      <path d="M269.823 160.9903 L272.777 173.6502 L275.0818 168.2941 L280.8923 167.8072 Z" stroke="none" clip-path="url(#clipPath2)"/>
      <path fill="none" d="M517.125 201.9639 L517.125 180 L322.572 155.0549" clip-path="url(#clipPath2)"/>
      <path d="M314.637 154.0375 L325.9037 160.523 L323.5639 155.1821 L327.1754 150.6042 Z" stroke="none" clip-path="url(#clipPath2)"/>
      <path fill="none" d="M604.125 448.9814 L604.125 418 L477.5528 367.5222" clip-path="url(#clipPath2)"/>
      <path d="M470.1219 364.5588 L479.416 373.6483 L478.4817 367.8927 L483.1204 364.3597 Z" stroke="none" clip-path="url(#clipPath2)"/>
      <path fill="none" d="M244.2905 549.4899 L216.5776 484.3402" clip-path="url(#clipPath2)"/>
      <path d="M213.4461 476.9786 L213.5422 489.9782 L216.969 485.2604 L222.7443 486.0639 Z" stroke="none" clip-path="url(#clipPath2)"/>
      <path fill="none" d="M322.5 607.5159 L322.5 530 L238.4175 481.0128" clip-path="url(#clipPath2)"/>
      <path d="M231.5051 476.9856 L239.3567 487.3467 L239.2816 481.5162 L244.3908 478.7062 Z" stroke="none" clip-path="url(#clipPath2)"/>
      <path fill="none" d="M473.125 547.9814 L473.125 517 L562.7954 480.0366" clip-path="url(#clipPath2)"/>
      <path d="M570.1917 476.9878 L557.1918 476.9384 L561.8708 480.4177 L561.0028 486.1837 Z" stroke="none" clip-path="url(#clipPath2)"/>
      <path fill="none" d="M523.125 605.9778 L523.125 515 L575.6004 481.3121" clip-path="url(#clipPath2)"/>
      <path d="M582.3325 476.9902 L569.5331 479.2655 L574.7589 481.8523 L574.9355 487.6806 Z" stroke="none" clip-path="url(#clipPath2)"/>
      <path fill="none" d="M595.625 548.017 L595.625 485.0234" clip-path="url(#clipPath2)"/>
      <path d="M595.625 477.0234 L590.625 489.0234 L595.625 486.0234 L600.625 489.0234 Z" stroke="none" clip-path="url(#clipPath2)"/>
      <path fill="none" d="M656.125 606.0278 L656.125 523 L621.4758 483.0201" clip-path="url(#clipPath2)"/>
      <path d="M616.2363 476.9746 L620.3171 489.3175 L622.1307 483.7758 L627.874 482.7682 Z" stroke="none" clip-path="url(#clipPath2)"/>
      <path fill="none" d="M722.125 548.0166 L722.125 519 L640.8812 480.4436" clip-path="url(#clipPath2)"/>
      <path d="M633.6538 477.0137 L642.3512 486.6758 L641.7847 480.8724 L646.6386 477.6415 Z" stroke="none" clip-path="url(#clipPath2)"/>
      <path fill="none" d="M782.125 606.0435 L782.125 519 L656.2997 479.4145" clip-path="url(#clipPath2)"/>
      <path d="M648.6685 477.0137 L658.6148 485.3845 L657.2536 479.7146 L661.6158 475.8454 Z" stroke="none" clip-path="url(#clipPath2)"/>
      <path fill="none" d="M138.9603 299.0004 L243.6552 167.2535" clip-path="url(#clipPath2)"/>
      <path d="M248.6324 160.9903 L237.2521 167.2744 L243.0331 168.0364 L245.0811 173.4958 Z" stroke="none" clip-path="url(#clipPath2)"/>
      <path fill="none" d="M28.79 448.9767 L80.6605 376.5272" clip-path="url(#clipPath2)"/>
      <path d="M85.3176 370.0224 L74.2665 376.8689 L80.0784 377.3403 L82.3974 382.6902 Z" stroke="none" clip-path="url(#clipPath2)"/>
      <path fill="none" d="M852.625 549.5278 L852.625 515 L671.684 477.1371" clip-path="url(#clipPath2)"/>
      <path d="M663.8536 475.4985 L674.5751 482.8504 L672.6628 477.3419 L676.6233 473.0624 Z" stroke="none" clip-path="url(#clipPath2)"/>
      <path fill="none" d="M912.625 607.4855 L912.625 515 L671.7781 474.4034" clip-path="url(#clipPath2)"/>
      <path d="M663.8893 473.0737 L674.8914 479.9987 L672.7642 474.5696 L676.5535 470.1378 Z" stroke="none" clip-path="url(#clipPath2)"/>
    </g>
  </g>
</svg>
