<?xml version="1.0" encoding="UTF-8"?><svg xmlns="http://www.w3.org/2000/svg" xmlns:xlink="http://www.w3.org/1999/xlink" fill-opacity="1" color-rendering="auto" color-interpolation="auto" text-rendering="auto" stroke="black" stroke-linecap="square" width="409" stroke-miterlimit="10" shape-rendering="auto" stroke-opacity="1" fill="black" stroke-dasharray="none" font-weight="normal" stroke-width="1" height="315" font-family="'Dialog'" font-style="normal" stroke-linejoin="miter" font-size="12px" stroke-dashoffset="0" image-rendering="auto">
  <!--Generated by ySVG 2.5-->
  <defs id="genericDefs"/>
  <g>
    <defs id="defs1">
      <clipPath clipPathUnits="userSpaceOnUse" id="clipPath1">
        <path d="M0 0 L409 0 L409 315 L0 315 L0 0 Z"/>
      </clipPath>
      <clipPath clipPathUnits="userSpaceOnUse" id="clipPath2">
        <path d="M5 54 L414 54 L414 369 L5 369 L5 54 Z"/>
      </clipPath>
      <clipPath clipPathUnits="userSpaceOnUse" id="clipPath3">
        <path d="M200 69 L200 97 L300 97 L300 69 Z"/>
      </clipPath>
      <clipPath clipPathUnits="userSpaceOnUse" id="clipPath4">
        <path d="M102 163 L102 191 L241 191 L241 163 Z"/>
      </clipPath>
      <clipPath clipPathUnits="userSpaceOnUse" id="clipPath5">
        <path d="M260 163 L260 191 L399 191 L399 163 Z"/>
      </clipPath>
      <clipPath clipPathUnits="userSpaceOnUse" id="clipPath6">
        <path d="M20 257 L20 285 L159 285 L159 257 Z"/>
      </clipPath>
      <clipPath clipPathUnits="userSpaceOnUse" id="clipPath7">
        <path d="M180 257 L180 285 L319 285 L319 257 Z"/>
      </clipPath>
      <clipPath clipPathUnits="userSpaceOnUse" id="clipPath8">
        <path d="M102 326 L102 354 L241 354 L241 326 Z"/>
      </clipPath>
    </defs>
    <g fill="white" text-rendering="geometricPrecision" shape-rendering="geometricPrecision" transform="translate(-5,-54)" stroke="white">
      <rect x="5" width="409" height="315" y="54" clip-path="url(#clipPath2)" stroke="none"/>
    </g>
    <g fill="rgb(204,255,255)" text-rendering="geometricPrecision" shape-rendering="geometricPrecision" transform="matrix(1,0,0,1,-5,-54)" stroke="rgb(204,255,255)">
      <rect x="201" width="98" height="26" y="70" clip-path="url(#clipPath2)" stroke="none"/>
      <rect x="200" y="69" clip-path="url(#clipPath2)" fill="white" width="1" height="28" stroke="none"/>
      <rect x="201" y="69" clip-path="url(#clipPath2)" fill="white" width="98" height="1" stroke="none"/>
      <rect x="201" y="96" clip-path="url(#clipPath2)" fill="rgb(142,178,178)" width="99" height="1" stroke="none"/>
      <rect x="299" y="69" clip-path="url(#clipPath2)" fill="rgb(142,178,178)" width="1" height="27" stroke="none"/>
    </g>
    <g font-size="13px" stroke-linecap="butt" transform="matrix(1,0,0,1,-5,-54)" text-rendering="geometricPrecision" font-family="sans-serif" shape-rendering="geometricPrecision" font-weight="bold" stroke-miterlimit="1.45">
      <text x="225.8027" xml:space="preserve" y="86.0669" clip-path="url(#clipPath3)" stroke="none">Entree</text>
    </g>
    <g fill="rgb(204,255,255)" text-rendering="geometricPrecision" shape-rendering="geometricPrecision" transform="matrix(1,0,0,1,-5,-54)" stroke="rgb(204,255,255)">
      <rect x="103" width="137" height="26" y="164" clip-path="url(#clipPath2)" stroke="none"/>
      <rect x="102" y="163" clip-path="url(#clipPath2)" fill="white" width="1" height="28" stroke="none"/>
      <rect x="103" y="163" clip-path="url(#clipPath2)" fill="white" width="137" height="1" stroke="none"/>
      <rect x="103" y="190" clip-path="url(#clipPath2)" fill="rgb(142,178,178)" width="138" height="1" stroke="none"/>
      <rect x="240" y="163" clip-path="url(#clipPath2)" fill="rgb(142,178,178)" width="1" height="27" stroke="none"/>
    </g>
    <g font-size="13px" stroke-linecap="butt" transform="matrix(1,0,0,1,-5,-54)" text-rendering="geometricPrecision" font-family="sans-serif" shape-rendering="geometricPrecision" font-weight="bold" stroke-miterlimit="1.45">
      <text x="116.7769" xml:space="preserve" y="180.0669" clip-path="url(#clipPath4)" stroke="none">EntreeVariable</text>
    </g>
    <g fill="rgb(204,255,255)" text-rendering="geometricPrecision" shape-rendering="geometricPrecision" transform="matrix(1,0,0,1,-5,-54)" stroke="rgb(204,255,255)">
      <rect x="261" width="137" height="26" y="164" clip-path="url(#clipPath2)" stroke="none"/>
      <rect x="260" y="163" clip-path="url(#clipPath2)" fill="white" width="1" height="28" stroke="none"/>
      <rect x="261" y="163" clip-path="url(#clipPath2)" fill="white" width="137" height="1" stroke="none"/>
      <rect x="261" y="190" clip-path="url(#clipPath2)" fill="rgb(142,178,178)" width="138" height="1" stroke="none"/>
      <rect x="398" y="163" clip-path="url(#clipPath2)" fill="rgb(142,178,178)" width="1" height="27" stroke="none"/>
    </g>
    <g font-size="13px" stroke-linecap="butt" transform="matrix(1,0,0,1,-5,-54)" text-rendering="geometricPrecision" font-family="sans-serif" shape-rendering="geometricPrecision" font-weight="bold" stroke-miterlimit="1.45">
      <text x="273.4883" xml:space="preserve" y="180.0669" clip-path="url(#clipPath5)" stroke="none">EntreeFonction</text>
    </g>
    <g fill="rgb(204,255,255)" text-rendering="geometricPrecision" shape-rendering="geometricPrecision" transform="matrix(1,0,0,1,-5,-54)" stroke="rgb(204,255,255)">
      <rect x="21" width="137" height="26" y="258" clip-path="url(#clipPath2)" stroke="none"/>
      <rect x="20" y="257" clip-path="url(#clipPath2)" fill="white" width="1" height="28" stroke="none"/>
      <rect x="21" y="257" clip-path="url(#clipPath2)" fill="white" width="137" height="1" stroke="none"/>
      <rect x="21" y="284" clip-path="url(#clipPath2)" fill="rgb(142,178,178)" width="138" height="1" stroke="none"/>
      <rect x="158" y="257" clip-path="url(#clipPath2)" fill="rgb(142,178,178)" width="1" height="27" stroke="none"/>
    </g>
    <g font-size="13px" stroke-linecap="butt" transform="matrix(1,0,0,1,-5,-54)" text-rendering="geometricPrecision" font-family="sans-serif" shape-rendering="geometricPrecision" font-weight="bold" stroke-miterlimit="1.45">
      <text x="39.0361" xml:space="preserve" y="274.0669" clip-path="url(#clipPath6)" stroke="none">EntreeIntBool</text>
    </g>
    <g fill="rgb(204,255,255)" text-rendering="geometricPrecision" shape-rendering="geometricPrecision" transform="matrix(1,0,0,1,-5,-54)" stroke="rgb(204,255,255)">
      <rect x="181" width="137" height="26" y="258" clip-path="url(#clipPath2)" stroke="none"/>
      <rect x="180" y="257" clip-path="url(#clipPath2)" fill="white" width="1" height="28" stroke="none"/>
      <rect x="181" y="257" clip-path="url(#clipPath2)" fill="white" width="137" height="1" stroke="none"/>
      <rect x="181" y="284" clip-path="url(#clipPath2)" fill="rgb(142,178,178)" width="138" height="1" stroke="none"/>
      <rect x="318" y="257" clip-path="url(#clipPath2)" fill="rgb(142,178,178)" width="1" height="27" stroke="none"/>
    </g>
    <g font-size="13px" stroke-linecap="butt" transform="matrix(1,0,0,1,-5,-54)" text-rendering="geometricPrecision" font-family="sans-serif" shape-rendering="geometricPrecision" font-weight="bold" stroke-miterlimit="1.45">
      <text x="203.2209" xml:space="preserve" y="274.0669" clip-path="url(#clipPath7)" stroke="none">EntreeStruct</text>
    </g>
    <g fill="rgb(204,255,255)" text-rendering="geometricPrecision" shape-rendering="geometricPrecision" transform="matrix(1,0,0,1,-5,-54)" stroke="rgb(204,255,255)">
      <rect x="103" width="137" height="26" y="327" clip-path="url(#clipPath2)" stroke="none"/>
      <rect x="102" y="326" clip-path="url(#clipPath2)" fill="white" width="1" height="28" stroke="none"/>
      <rect x="103" y="326" clip-path="url(#clipPath2)" fill="white" width="137" height="1" stroke="none"/>
      <rect x="103" y="353" clip-path="url(#clipPath2)" fill="rgb(142,178,178)" width="138" height="1" stroke="none"/>
      <rect x="240" y="326" clip-path="url(#clipPath2)" fill="rgb(142,178,178)" width="1" height="27" stroke="none"/>
    </g>
    <g font-size="13px" stroke-linecap="butt" transform="matrix(1,0,0,1,-5,-54)" text-rendering="geometricPrecision" font-family="sans-serif" shape-rendering="geometricPrecision" font-weight="bold" stroke-miterlimit="1.45">
      <text x="118.1797" xml:space="preserve" y="343.0669" clip-path="url(#clipPath8)" stroke="none">EntreeTableau</text>
      <path fill="none" d="M183.2098 162.978 L228.6936 108.5133" clip-path="url(#clipPath2)"/>
    </g>
    <g stroke-linecap="butt" transform="matrix(1,0,0,1,-5,-54)" fill="white" text-rendering="geometricPrecision" shape-rendering="geometricPrecision" stroke="white" stroke-miterlimit="1.45">
      <path d="M238.3085 97.0001 L223.4474 105.435 L232.658 113.1268 Z" stroke="none" clip-path="url(#clipPath2)"/>
      <path fill="none" d="M238.3085 97.0001 L223.4474 105.435 L232.658 113.1268 Z" clip-path="url(#clipPath2)" stroke="black"/>
      <path fill="none" d="M317.641 162.978 L271.5269 108.4532" clip-path="url(#clipPath2)" stroke="black"/>
      <path d="M261.8405 97.0001 L267.5914 113.0913 L276.7539 105.3421 Z" clip-path="url(#clipPath2)" stroke="none"/>
      <path fill="none" d="M261.8405 97.0001 L267.5914 113.0913 L276.7539 105.3421 Z" clip-path="url(#clipPath2)" stroke="black"/>
      <path fill="none" d="M101.7319 256.978 L149.4267 202.3036" clip-path="url(#clipPath2)" stroke="black"/>
      <path d="M159.2872 191.0001 L144.2479 199.1129 L153.2907 207.0014 Z" clip-path="url(#clipPath2)" stroke="none"/>
      <path fill="none" d="M159.2872 191.0001 L144.2479 199.1129 L153.2907 207.0014 Z" clip-path="url(#clipPath2)" stroke="black"/>
      <path fill="none" d="M238.2902 256.978 L192.8064 202.5133" clip-path="url(#clipPath2)" stroke="black"/>
      <path d="M183.1915 191.0001 L188.842 207.1268 L198.0526 199.435 Z" clip-path="url(#clipPath2)" stroke="none"/>
      <path fill="none" d="M183.1915 191.0001 L188.842 207.1268 L198.0526 199.435 Z" clip-path="url(#clipPath2)" stroke="black"/>
      <path fill="none" d="M171.5 326.032 L171.5 206.0081" clip-path="url(#clipPath2)" stroke="black"/>
      <path d="M171.5 191.0081 L165.5 207.0081 L177.5 207.0081 Z" clip-path="url(#clipPath2)" stroke="none"/>
      <path fill="none" d="M171.5 191.0081 L165.5 207.0081 L177.5 207.0081 Z" clip-path="url(#clipPath2)" stroke="black"/>
    </g>
  </g>
</svg>
