<?xml version="1.0" encoding="UTF-8"?><svg xmlns="http://www.w3.org/2000/svg" xmlns:xlink="http://www.w3.org/1999/xlink" fill-opacity="1" color-rendering="auto" color-interpolation="auto" text-rendering="auto" stroke="black" stroke-linecap="square" width="832" stroke-miterlimit="10" shape-rendering="auto" stroke-opacity="1" fill="black" stroke-dasharray="none" font-weight="normal" stroke-width="1" height="591" font-family="'Dialog'" font-style="normal" stroke-linejoin="miter" font-size="12px" stroke-dashoffset="0" image-rendering="auto">
  <!--Generated by ySVG 2.5-->
  <defs id="genericDefs"/>
  <g>
    <defs id="defs1">
      <clipPath clipPathUnits="userSpaceOnUse" id="clipPath1">
        <path d="M0 0 L832 0 L832 591 L0 591 L0 0 Z"/>
      </clipPath>
      <clipPath clipPathUnits="userSpaceOnUse" id="clipPath2">
        <path d="M-187 48 L645 48 L645 639 L-187 639 L-187 48 Z"/>
      </clipPath>
      <clipPath clipPathUnits="userSpaceOnUse" id="clipPath3">
        <path d="M-171 162 L-171 184 L-56 184 L-56 162 Z"/>
      </clipPath>
    </defs>
    <g fill="white" text-rendering="geometricPrecision" shape-rendering="geometricPrecision" transform="translate(187,-48)" stroke="white">
      <rect x="-187" width="832" height="591" y="48" clip-path="url(#clipPath2)" stroke="none"/>
    </g>
    <g text-rendering="geometricPrecision" stroke-miterlimit="1.45" shape-rendering="geometricPrecision" transform="matrix(1,0,0,1,187,-48)" stroke-linecap="butt">
      <rect fill="none" x="-162.9583" width="97.8333" height="22" y="138.5" clip-path="url(#clipPath2)"/>
      <rect fill="none" x="-162.9583" width="97.8333" height="22" y="113.5" clip-path="url(#clipPath2)"/>
      <rect fill="none" x="-162.9583" width="97.8333" height="22" y="88.5" clip-path="url(#clipPath2)"/>
      <rect fill="none" x="-162.9583" width="97.8333" height="22" y="63.5" clip-path="url(#clipPath2)"/>
      <rect fill="none" x="-47.5833" width="68.0833" height="22" y="299.5" clip-path="url(#clipPath2)"/>
      <rect fill="none" x="-47.5833" width="68.0833" height="22" y="274.5" clip-path="url(#clipPath2)"/>
      <text x="-26.485" xml:space="preserve" y="264.6543" clip-path="url(#clipPath2)" font-family="sans-serif" stroke="none">Egal</text>
      <rect fill="none" x="-47.5833" width="68.0833" height="22" y="249.5" clip-path="url(#clipPath2)"/>
      <text x="-71.0101" xml:space="preserve" y="391.6543" clip-path="url(#clipPath2)" font-family="sans-serif" stroke="none">a</text>
      <rect fill="none" x="-101.375" width="68.0833" height="22" y="376.5" clip-path="url(#clipPath2)"/>
      <text x="-75.0238" xml:space="preserve" y="366.6543" clip-path="url(#clipPath2)" font-family="sans-serif" stroke="none">Idf</text>
      <rect fill="none" x="-101.375" width="68.0833" height="22" y="351.5" clip-path="url(#clipPath2)"/>
      <text x="45.4831" xml:space="preserve" y="391.6543" clip-path="url(#clipPath2)" font-family="sans-serif" stroke="none">b</text>
      <rect fill="none" x="15.25" width="68.0833" height="22" y="376.5" clip-path="url(#clipPath2)"/>
      <text x="41.6012" xml:space="preserve" y="366.6543" clip-path="url(#clipPath2)" font-family="sans-serif" stroke="none">Idf</text>
      <rect fill="none" x="15.25" width="68.0833" height="22" y="351.5" clip-path="url(#clipPath2)"/>
      <text x="-152.0419" font-size="13px" y="179.0669" clip-path="url(#clipPath3)" font-family="sans-serif" stroke="none" font-weight="bold" xml:space="preserve">PileArbres</text>
      <rect fill="none" x="134.0833" width="97.8333" height="22" y="113.5" clip-path="url(#clipPath2)"/>
      <rect fill="none" x="134.0833" width="97.8333" height="22" y="88.5" clip-path="url(#clipPath2)"/>
      <text x="177.5244" xml:space="preserve" y="78.6543" clip-path="url(#clipPath2)" font-family="sans-serif" stroke="none">Si</text>
      <rect fill="none" x="134.0833" width="97.8333" height="22" y="63.5" clip-path="url(#clipPath2)"/>
      <rect fill="none" x="142.1667" width="115.5" height="22" y="274.5" clip-path="url(#clipPath2)"/>
      <text x="146.362" xml:space="preserve" y="264.6543" clip-path="url(#clipPath2)" font-family="sans-serif" stroke="none">Liste d'instruction</text>
      <rect fill="none" x="142.1667" width="115.5" height="22" y="249.5" clip-path="url(#clipPath2)"/>
      <rect fill="none" x="379.3333" width="115.5" height="22" y="274.5" clip-path="url(#clipPath2)"/>
      <text x="383.5287" xml:space="preserve" y="264.6543" clip-path="url(#clipPath2)" font-family="sans-serif" stroke="none">Liste d'instruction</text>
      <rect fill="none" x="379.3333" width="115.5" height="22" y="249.5" clip-path="url(#clipPath2)"/>
      <rect fill="none" x="151" width="97.8333" height="22" y="393" clip-path="url(#clipPath2)"/>
      <rect fill="none" x="151" width="97.8333" height="22" y="368" clip-path="url(#clipPath2)"/>
      <text x="167.0749" xml:space="preserve" y="358.1543" clip-path="url(#clipPath2)" font-family="sans-serif" stroke="none">Affectation</text>
      <rect fill="none" x="151" width="97.8333" height="22" y="343" clip-path="url(#clipPath2)"/>
      <rect fill="none" x="388.1667" width="97.8333" height="22" y="393" clip-path="url(#clipPath2)"/>
      <rect fill="none" x="388.1667" width="97.8333" height="22" y="368" clip-path="url(#clipPath2)"/>
      <text x="404.2415" xml:space="preserve" y="358.1543" clip-path="url(#clipPath2)" font-family="sans-serif" stroke="none">Affectation</text>
      <rect fill="none" x="388.1667" width="97.8333" height="22" y="343" clip-path="url(#clipPath2)"/>
      <text x="122.7409" xml:space="preserve" y="497.1543" clip-path="url(#clipPath2)" font-family="sans-serif" stroke="none">x</text>
      <rect fill="none" x="92.25" width="68.0833" height="22" y="482" clip-path="url(#clipPath2)"/>
      <text x="118.6012" xml:space="preserve" y="472.1543" clip-path="url(#clipPath2)" font-family="sans-serif" stroke="none">Idf</text>
      <rect fill="none" x="92.25" width="68.0833" height="22" y="457" clip-path="url(#clipPath2)"/>
      <text x="262.9326" xml:space="preserve" y="497.1543" clip-path="url(#clipPath2)" font-family="sans-serif" stroke="none">1</text>
      <rect fill="none" x="232.7083" width="68.0833" height="22" y="482" clip-path="url(#clipPath2)"/>
      <text x="242.7793" xml:space="preserve" y="472.1543" clip-path="url(#clipPath2)" font-family="sans-serif" stroke="none">Nombre</text>
      <rect fill="none" x="232.7083" width="68.0833" height="22" y="457" clip-path="url(#clipPath2)"/>
      <text x="363.6159" xml:space="preserve" y="497.1543" clip-path="url(#clipPath2)" font-family="sans-serif" stroke="none">x</text>
      <rect fill="none" x="333.125" width="68.0833" height="22" y="482" clip-path="url(#clipPath2)"/>
      <text x="359.4762" xml:space="preserve" y="472.1543" clip-path="url(#clipPath2)" font-family="sans-serif" stroke="none">Idf</text>
      <rect fill="none" x="333.125" width="68.0833" height="22" y="457" clip-path="url(#clipPath2)"/>
      <text x="453.4899" xml:space="preserve" y="617.1543" clip-path="url(#clipPath2)" font-family="sans-serif" stroke="none">a</text>
      <rect fill="none" x="423.125" width="68.0833" height="22" y="602" clip-path="url(#clipPath2)"/>
      <text x="433.196" xml:space="preserve" y="592.1543" clip-path="url(#clipPath2)" font-family="sans-serif" stroke="none">Nombre</text>
      <rect fill="none" x="423.125" width="68.0833" height="22" y="577" clip-path="url(#clipPath2)"/>
      <rect fill="none" x="134.0833" width="97.8333" height="22" y="139" clip-path="url(#clipPath2)"/>
      <rect fill="none" x="477.6042" width="97.8333" height="22" y="507" clip-path="url(#clipPath2)"/>
      <rect fill="none" x="477.6042" width="97.8333" height="22" y="482" clip-path="url(#clipPath2)"/>
      <text x="505.1341" xml:space="preserve" y="472.1543" clip-path="url(#clipPath2)" font-family="sans-serif" stroke="none">Produit</text>
      <rect fill="none" x="477.6042" width="97.8333" height="22" y="457" clip-path="url(#clipPath2)"/>
      <text x="591.8242" xml:space="preserve" y="617.1543" clip-path="url(#clipPath2)" font-family="sans-serif" stroke="none">x</text>
      <rect fill="none" x="561.3333" width="68.0833" height="22" y="602" clip-path="url(#clipPath2)"/>
      <text x="587.6846" xml:space="preserve" y="592.1543" clip-path="url(#clipPath2)" font-family="sans-serif" stroke="none">Idf</text>
      <rect fill="none" x="561.3333" width="68.0833" height="22" y="577" clip-path="url(#clipPath2)"/>
      <path fill="none" d="M-47.5833 285.5 L-67.3333 285.5 L-67.3333 343.5" clip-path="url(#clipPath2)"/>
      <path d="M-67.3333 351.5 L-62.3333 339.5 L-67.3333 342.5 L-72.3333 339.5 Z" clip-path="url(#clipPath2)" stroke="none"/>
      <path fill="none" d="M20.5 310.5 L49.2917 310.5 L49.2917 343.5" clip-path="url(#clipPath2)"/>
      <path d="M49.2917 351.5 L54.2917 339.5 L49.2917 342.5 L44.2917 339.5 Z" clip-path="url(#clipPath2)" stroke="none"/>
      <path fill="none" d="M134.0833 99.5 L-15.8333 99.5 L-13.8121 241.5008" clip-path="url(#clipPath2)"/>
      <path d="M-13.6982 249.5 L-8.8695 237.4301 L-13.8263 240.5009 L-18.8685 237.5724 Z" clip-path="url(#clipPath2)" stroke="none"/>
      <path fill="none" d="M-65.125 74.5 L126.0833 74.5" clip-path="url(#clipPath2)"/>
      <path d="M134.0833 74.5 L122.0833 69.5 L125.0833 74.5 L122.0833 79.5 Z" clip-path="url(#clipPath2)" stroke="none"/>
      <path fill="none" d="M134.0833 124.5 L100.1667 124.5 L100.1667 206 L199.9167 206 L199.9167 241.5" clip-path="url(#clipPath2)"/>
      <path d="M199.9167 249.5 L204.9167 237.5 L199.9167 240.5 L194.9167 237.5 Z" clip-path="url(#clipPath2)" stroke="none"/>
      <path fill="none" d="M199.9167 296.5 L199.9167 335" clip-path="url(#clipPath2)"/>
      <path d="M199.9167 343 L204.9167 331 L199.9167 334 L194.9167 331 Z" clip-path="url(#clipPath2)" stroke="none"/>
      <path fill="none" d="M437.0833 296.5 L437.0833 335" clip-path="url(#clipPath2)"/>
      <path d="M437.0833 343 L442.0833 331 L437.0833 334 L432.0833 331 Z" clip-path="url(#clipPath2)" stroke="none"/>
      <path fill="none" d="M151 379 L126.2917 379 L126.2917 449" clip-path="url(#clipPath2)"/>
      <path d="M126.2917 457 L131.2917 445 L126.2917 448 L121.2917 445 Z" clip-path="url(#clipPath2)" stroke="none"/>
      <path fill="none" d="M248.8333 404 L266.75 404 L266.75 449" clip-path="url(#clipPath2)"/>
      <path d="M266.75 457 L271.75 445 L266.75 448 L261.75 445 Z" clip-path="url(#clipPath2)" stroke="none"/>
      <path fill="none" d="M388.1667 379 L367.1667 379 L367.1667 449" clip-path="url(#clipPath2)"/>
      <path d="M367.1667 457 L372.1667 445 L367.1667 448 L362.1667 445 Z" clip-path="url(#clipPath2)" stroke="none"/>
      <path fill="none" d="M231.9167 150 L437.0833 150 L437.0833 241.5" clip-path="url(#clipPath2)"/>
      <path d="M437.0833 249.5 L442.0833 237.5 L437.0833 240.5 L432.0833 237.5 Z" clip-path="url(#clipPath2)" stroke="none"/>
      <path fill="none" d="M477.6042 493 L457.1667 493 L457.1667 569" clip-path="url(#clipPath2)"/>
      <path d="M457.1667 577 L462.1667 565 L457.1667 568 L452.1667 565 Z" clip-path="url(#clipPath2)" stroke="none"/>
      <path fill="none" d="M486 404 L526.5208 404 L526.5208 449" clip-path="url(#clipPath2)"/>
      <path d="M526.5208 457 L531.5208 445 L526.5208 448 L521.5208 445 Z" clip-path="url(#clipPath2)" stroke="none"/>
      <path fill="none" d="M575.4375 518 L595.375 518 L595.375 569" clip-path="url(#clipPath2)"/>
      <path d="M595.375 577 L600.375 565 L595.375 568 L590.375 565 Z" clip-path="url(#clipPath2)" stroke="none"/>
    </g>
  </g>
</svg>
