<?xml version="1.0" encoding="UTF-8"?><svg xmlns="http://www.w3.org/2000/svg" xmlns:xlink="http://www.w3.org/1999/xlink" fill-opacity="1" color-rendering="auto" color-interpolation="auto" text-rendering="auto" stroke="black" stroke-linecap="square" width="839" stroke-miterlimit="10" shape-rendering="auto" stroke-opacity="1" fill="black" stroke-dasharray="none" font-weight="normal" stroke-width="1" height="519" font-family="'Dialog'" font-style="normal" stroke-linejoin="miter" font-size="12px" stroke-dashoffset="0" image-rendering="auto">
  <!--Generated by ySVG 2.5-->
  <defs id="genericDefs"/>
  <g>
    <defs id="defs1">
      <clipPath clipPathUnits="userSpaceOnUse" id="clipPath1">
        <path d="M0 0 L839 0 L839 519 L0 519 L0 0 Z"/>
      </clipPath>
      <clipPath clipPathUnits="userSpaceOnUse" id="clipPath2">
        <path d="M-207 48 L632 48 L632 567 L-207 567 L-207 48 Z"/>
      </clipPath>
      <clipPath clipPathUnits="userSpaceOnUse" id="clipPath3">
        <path d="M200 85 L200 114 L357 114 L357 85 Z"/>
      </clipPath>
      <clipPath clipPathUnits="userSpaceOnUse" id="clipPath4">
        <path d="M221 144 L221 173 L336 173 L336 144 Z"/>
      </clipPath>
      <clipPath clipPathUnits="userSpaceOnUse" id="clipPath5">
        <path d="M221 203 L221 232 L336 232 L336 203 Z"/>
      </clipPath>
      <clipPath clipPathUnits="userSpaceOnUse" id="clipPath6">
        <path d="M-192 312 L-192 334 L-148 334 L-148 312 Z"/>
      </clipPath>
      <clipPath clipPathUnits="userSpaceOnUse" id="clipPath7">
        <path d="M28 312 L28 334 L72 334 L72 312 Z"/>
      </clipPath>
      <clipPath clipPathUnits="userSpaceOnUse" id="clipPath8">
        <path d="M111 308 L111 337 L268 337 L268 308 Z"/>
      </clipPath>
      <clipPath clipPathUnits="userSpaceOnUse" id="clipPath9">
        <path d="M292 312 L292 334 L336 334 L336 312 Z"/>
      </clipPath>
      <clipPath clipPathUnits="userSpaceOnUse" id="clipPath10">
        <path d="M352 308 L352 337 L497 337 L497 308 Z"/>
      </clipPath>
      <clipPath clipPathUnits="userSpaceOnUse" id="clipPath11">
        <path d="M541 312 L541 334 L585 334 L585 312 Z"/>
      </clipPath>
      <clipPath clipPathUnits="userSpaceOnUse" id="clipPath12">
        <path d="M-92 308 L-92 337 L-28 337 L-28 308 Z"/>
      </clipPath>
      <clipPath clipPathUnits="userSpaceOnUse" id="clipPath13">
        <path d="M-153 388 L-153 417 L-89 417 L-89 388 Z"/>
      </clipPath>
      <clipPath clipPathUnits="userSpaceOnUse" id="clipPath14">
        <path d="M-82 391 L-82 413 L-38 413 L-38 391 Z"/>
      </clipPath>
      <clipPath clipPathUnits="userSpaceOnUse" id="clipPath15">
        <path d="M-24 388 L-24 417 L40 417 L40 388 Z"/>
      </clipPath>
      <clipPath clipPathUnits="userSpaceOnUse" id="clipPath16">
        <path d="M132 388 L132 417 L247 417 L247 388 Z"/>
      </clipPath>
      <clipPath clipPathUnits="userSpaceOnUse" id="clipPath17">
        <path d="M367 388 L367 417 L482 417 L482 388 Z"/>
      </clipPath>
      <clipPath clipPathUnits="userSpaceOnUse" id="clipPath18">
        <path d="M-143 443 L-143 465 L-99 465 L-99 443 Z"/>
      </clipPath>
      <clipPath clipPathUnits="userSpaceOnUse" id="clipPath19">
        <path d="M-14 443 L-14 465 L30 465 L30 443 Z"/>
      </clipPath>
      <clipPath clipPathUnits="userSpaceOnUse" id="clipPath20">
        <path d="M-171 162 L-171 184 L-56 184 L-56 162 Z"/>
      </clipPath>
    </defs>
    <g fill="white" text-rendering="geometricPrecision" shape-rendering="geometricPrecision" transform="translate(207,-48)" stroke="white">
      <rect x="-207" width="839" height="519" y="48" clip-path="url(#clipPath2)" stroke="none"/>
    </g>
    <g fill="rgb(204,255,255)" text-rendering="geometricPrecision" shape-rendering="geometricPrecision" transform="matrix(1,0,0,1,207,-48)" stroke="rgb(204,255,255)">
      <rect x="201" width="155" height="27" y="86" clip-path="url(#clipPath2)" stroke="none"/>
      <rect x="200" y="85" clip-path="url(#clipPath2)" fill="white" width="1" height="29" stroke="none"/>
      <rect x="201" y="85" clip-path="url(#clipPath2)" fill="white" width="155" height="1" stroke="none"/>
      <rect x="201" y="113" clip-path="url(#clipPath2)" fill="rgb(142,178,178)" width="156" height="1" stroke="none"/>
      <rect x="356" y="85" clip-path="url(#clipPath2)" fill="rgb(142,178,178)" width="1" height="28" stroke="none"/>
    </g>
    <g font-size="13px" stroke-linecap="butt" transform="matrix(1,0,0,1,207,-48)" text-rendering="geometricPrecision" font-family="sans-serif" shape-rendering="geometricPrecision" font-weight="bold" stroke-miterlimit="1.45">
      <text x="216.9905" xml:space="preserve" y="102.0669" clip-path="url(#clipPath3)" stroke="none">ListeInstructions</text>
    </g>
    <g fill="rgb(204,255,255)" text-rendering="geometricPrecision" shape-rendering="geometricPrecision" transform="matrix(1,0,0,1,207,-48)" stroke="rgb(204,255,255)">
      <rect x="222" width="113" height="27" y="145" clip-path="url(#clipPath2)" stroke="none"/>
      <rect x="221" y="144" clip-path="url(#clipPath2)" fill="white" width="1" height="29" stroke="none"/>
      <rect x="222" y="144" clip-path="url(#clipPath2)" fill="white" width="113" height="1" stroke="none"/>
      <rect x="222" y="172" clip-path="url(#clipPath2)" fill="rgb(142,178,178)" width="114" height="1" stroke="none"/>
      <rect x="335" y="144" clip-path="url(#clipPath2)" fill="rgb(142,178,178)" width="1" height="28" stroke="none"/>
    </g>
    <g font-size="13px" stroke-linecap="butt" transform="matrix(1,0,0,1,207,-48)" text-rendering="geometricPrecision" font-family="sans-serif" shape-rendering="geometricPrecision" font-weight="bold" stroke-miterlimit="1.45">
      <text x="238.6138" xml:space="preserve" y="161.0669" clip-path="url(#clipPath4)" stroke="none">Instruction</text>
    </g>
    <g fill="rgb(204,255,255)" text-rendering="geometricPrecision" shape-rendering="geometricPrecision" transform="matrix(1,0,0,1,207,-48)" stroke="rgb(204,255,255)">
      <rect x="222" width="113" height="27" y="204" clip-path="url(#clipPath2)" stroke="none"/>
      <rect x="221" y="203" clip-path="url(#clipPath2)" fill="white" width="1" height="29" stroke="none"/>
      <rect x="222" y="203" clip-path="url(#clipPath2)" fill="white" width="113" height="1" stroke="none"/>
      <rect x="222" y="231" clip-path="url(#clipPath2)" fill="rgb(142,178,178)" width="114" height="1" stroke="none"/>
      <rect x="335" y="203" clip-path="url(#clipPath2)" fill="rgb(142,178,178)" width="1" height="28" stroke="none"/>
    </g>
    <g font-size="13px" stroke-linecap="butt" transform="matrix(1,0,0,1,207,-48)" text-rendering="geometricPrecision" font-family="sans-serif" shape-rendering="geometricPrecision" font-weight="bold" stroke-miterlimit="1.45">
      <text x="243.5776" xml:space="preserve" y="220.0669" clip-path="url(#clipPath5)" stroke="none">Condition</text>
      <text x="-176.6594" xml:space="preserve" y="329.0669" clip-path="url(#clipPath6)" stroke="none">Si</text>
      <text x="32.0957" xml:space="preserve" y="329.0669" clip-path="url(#clipPath7)" stroke="none">alors</text>
    </g>
    <g fill="rgb(204,255,255)" text-rendering="geometricPrecision" shape-rendering="geometricPrecision" transform="matrix(1,0,0,1,207,-48)" stroke="rgb(204,255,255)">
      <rect x="112" width="155" height="27" y="309" clip-path="url(#clipPath2)" stroke="none"/>
      <rect x="111" y="308" clip-path="url(#clipPath2)" fill="white" width="1" height="29" stroke="none"/>
      <rect x="112" y="308" clip-path="url(#clipPath2)" fill="white" width="155" height="1" stroke="none"/>
      <rect x="112" y="336" clip-path="url(#clipPath2)" fill="rgb(142,178,178)" width="156" height="1" stroke="none"/>
      <rect x="267" y="308" clip-path="url(#clipPath2)" fill="rgb(142,178,178)" width="1" height="28" stroke="none"/>
    </g>
    <g font-size="13px" stroke-linecap="butt" transform="matrix(1,0,0,1,207,-48)" text-rendering="geometricPrecision" font-family="sans-serif" shape-rendering="geometricPrecision" font-weight="bold" stroke-miterlimit="1.45">
      <text x="127.9905" xml:space="preserve" y="325.5669" clip-path="url(#clipPath8)" stroke="none">ListeInstructions</text>
      <text x="294.4326" xml:space="preserve" y="329.0669" clip-path="url(#clipPath9)" stroke="none">sinon</text>
    </g>
    <g fill="rgb(204,255,255)" text-rendering="geometricPrecision" shape-rendering="geometricPrecision" transform="matrix(1,0,0,1,207,-48)" stroke="rgb(204,255,255)">
      <rect x="353" width="143" height="27" y="309" clip-path="url(#clipPath2)" stroke="none"/>
      <rect x="352" y="308" clip-path="url(#clipPath2)" fill="white" width="1" height="29" stroke="none"/>
      <rect x="353" y="308" clip-path="url(#clipPath2)" fill="white" width="143" height="1" stroke="none"/>
      <rect x="353" y="336" clip-path="url(#clipPath2)" fill="rgb(142,178,178)" width="144" height="1" stroke="none"/>
      <rect x="496" y="308" clip-path="url(#clipPath2)" fill="rgb(142,178,178)" width="1" height="28" stroke="none"/>
    </g>
    <g font-size="13px" stroke-linecap="butt" transform="matrix(1,0,0,1,207,-48)" text-rendering="geometricPrecision" font-family="sans-serif" shape-rendering="geometricPrecision" font-weight="bold" stroke-miterlimit="1.45">
      <text x="363.9905" xml:space="preserve" y="325.5669" clip-path="url(#clipPath10)" stroke="none">ListeInstructions</text>
      <text x="547.4697" xml:space="preserve" y="329.0669" clip-path="url(#clipPath11)" stroke="none">finsi</text>
    </g>
    <g fill="rgb(204,255,255)" text-rendering="geometricPrecision" shape-rendering="geometricPrecision" transform="matrix(1,0,0,1,207,-48)" stroke="rgb(204,255,255)">
      <rect x="-91" width="62" height="27" y="309" clip-path="url(#clipPath2)" stroke="none"/>
      <rect x="-92" y="308" clip-path="url(#clipPath2)" fill="white" width="1" height="29" stroke="none"/>
      <rect x="-91" y="308" clip-path="url(#clipPath2)" fill="white" width="62" height="1" stroke="none"/>
      <rect x="-91" y="336" clip-path="url(#clipPath2)" fill="rgb(142,178,178)" width="63" height="1" stroke="none"/>
      <rect x="-29" y="308" clip-path="url(#clipPath2)" fill="rgb(142,178,178)" width="1" height="28" stroke="none"/>
    </g>
    <g font-size="13px" stroke-linecap="butt" transform="matrix(1,0,0,1,207,-48)" text-rendering="geometricPrecision" font-family="sans-serif" shape-rendering="geometricPrecision" font-weight="bold" stroke-miterlimit="1.45">
      <text x="-76.2412" xml:space="preserve" y="325.5669" clip-path="url(#clipPath12)" stroke="none">Expr</text>
    </g>
    <g fill="rgb(204,255,255)" text-rendering="geometricPrecision" shape-rendering="geometricPrecision" transform="matrix(1,0,0,1,207,-48)" stroke="rgb(204,255,255)">
      <rect x="-152" width="62" height="27" y="389" clip-path="url(#clipPath2)" stroke="none"/>
      <rect x="-153" y="388" clip-path="url(#clipPath2)" fill="white" width="1" height="29" stroke="none"/>
      <rect x="-152" y="388" clip-path="url(#clipPath2)" fill="white" width="62" height="1" stroke="none"/>
      <rect x="-152" y="416" clip-path="url(#clipPath2)" fill="rgb(142,178,178)" width="63" height="1" stroke="none"/>
      <rect x="-90" y="388" clip-path="url(#clipPath2)" fill="rgb(142,178,178)" width="1" height="28" stroke="none"/>
    </g>
    <g font-size="13px" stroke-linecap="butt" transform="matrix(1,0,0,1,207,-48)" text-rendering="geometricPrecision" font-family="sans-serif" shape-rendering="geometricPrecision" font-weight="bold" stroke-miterlimit="1.45">
      <text x="-137.7412" xml:space="preserve" y="405.0669" clip-path="url(#clipPath13)" stroke="none">Expr</text>
      <text x="-70.6426" xml:space="preserve" y="408.5669" clip-path="url(#clipPath14)" stroke="none">==</text>
    </g>
    <g fill="rgb(204,255,255)" text-rendering="geometricPrecision" shape-rendering="geometricPrecision" transform="matrix(1,0,0,1,207,-48)" stroke="rgb(204,255,255)">
      <rect x="-23" width="62" height="27" y="389" clip-path="url(#clipPath2)" stroke="none"/>
      <rect x="-24" y="388" clip-path="url(#clipPath2)" fill="white" width="1" height="29" stroke="none"/>
      <rect x="-23" y="388" clip-path="url(#clipPath2)" fill="white" width="62" height="1" stroke="none"/>
      <rect x="-23" y="416" clip-path="url(#clipPath2)" fill="rgb(142,178,178)" width="63" height="1" stroke="none"/>
      <rect x="39" y="388" clip-path="url(#clipPath2)" fill="rgb(142,178,178)" width="1" height="28" stroke="none"/>
    </g>
    <g font-size="13px" stroke-linecap="butt" transform="matrix(1,0,0,1,207,-48)" text-rendering="geometricPrecision" font-family="sans-serif" shape-rendering="geometricPrecision" font-weight="bold" stroke-miterlimit="1.45">
      <text x="-8.7412" xml:space="preserve" y="405.0669" clip-path="url(#clipPath15)" stroke="none">Expr</text>
    </g>
    <g fill="rgb(204,255,255)" text-rendering="geometricPrecision" shape-rendering="geometricPrecision" transform="matrix(1,0,0,1,207,-48)" stroke="rgb(204,255,255)">
      <rect x="133" width="113" height="27" y="389" clip-path="url(#clipPath2)" stroke="none"/>
      <rect x="132" y="388" clip-path="url(#clipPath2)" fill="white" width="1" height="29" stroke="none"/>
      <rect x="133" y="388" clip-path="url(#clipPath2)" fill="white" width="113" height="1" stroke="none"/>
      <rect x="133" y="416" clip-path="url(#clipPath2)" fill="rgb(142,178,178)" width="114" height="1" stroke="none"/>
      <rect x="246" y="388" clip-path="url(#clipPath2)" fill="rgb(142,178,178)" width="1" height="28" stroke="none"/>
    </g>
    <g font-size="13px" stroke-linecap="butt" transform="matrix(1,0,0,1,207,-48)" text-rendering="geometricPrecision" font-family="sans-serif" shape-rendering="geometricPrecision" font-weight="bold" stroke-miterlimit="1.45">
      <text x="149.6138" xml:space="preserve" y="405.0669" clip-path="url(#clipPath16)" stroke="none">Instruction</text>
    </g>
    <g fill="rgb(204,255,255)" text-rendering="geometricPrecision" shape-rendering="geometricPrecision" transform="matrix(1,0,0,1,207,-48)" stroke="rgb(204,255,255)">
      <rect x="368" width="113" height="27" y="389" clip-path="url(#clipPath2)" stroke="none"/>
      <rect x="367" y="388" clip-path="url(#clipPath2)" fill="white" width="1" height="29" stroke="none"/>
      <rect x="368" y="388" clip-path="url(#clipPath2)" fill="white" width="113" height="1" stroke="none"/>
      <rect x="368" y="416" clip-path="url(#clipPath2)" fill="rgb(142,178,178)" width="114" height="1" stroke="none"/>
      <rect x="481" y="388" clip-path="url(#clipPath2)" fill="rgb(142,178,178)" width="1" height="28" stroke="none"/>
    </g>
    <g font-size="13px" stroke-linecap="butt" transform="matrix(1,0,0,1,207,-48)" text-rendering="geometricPrecision" font-family="sans-serif" shape-rendering="geometricPrecision" font-weight="bold" stroke-miterlimit="1.45">
      <text x="385.6138" xml:space="preserve" y="405.0669" clip-path="url(#clipPath17)" stroke="none">Instruction</text>
    </g>
    <g fill="rgb(204,255,255)" text-rendering="geometricPrecision" shape-rendering="geometricPrecision" transform="matrix(1,0,0,1,207,-48)" stroke="rgb(204,255,255)">
      <path d="M425.75 456.5 L493.75 551.5 L357.75 551.5 Z" fill-rule="evenodd" clip-path="url(#clipPath2)" stroke="none"/>
    </g>
    <g text-rendering="geometricPrecision" stroke-miterlimit="1.45" shape-rendering="geometricPrecision" font-family="sans-serif" transform="matrix(1,0,0,1,207,-48)" stroke-linecap="butt">
      <text x="404.8789" xml:space="preserve" y="494.1855" clip-path="url(#clipPath2)" stroke="none">Nouvel</text>
      <text x="409.2119" xml:space="preserve" y="508.1543" clip-path="url(#clipPath2)" stroke="none">Arbre</text>
      <text x="420.0283" xml:space="preserve" y="522.123" clip-path="url(#clipPath2)" stroke="none">...</text>
      <path fill="none" d="M425.75 456.5 L493.75 551.5 L357.75 551.5 Z" clip-path="url(#clipPath2)" fill-rule="evenodd"/>
    </g>
    <g fill="rgb(204,255,255)" text-rendering="geometricPrecision" shape-rendering="geometricPrecision" transform="matrix(1,0,0,1,207,-48)" stroke="rgb(204,255,255)">
      <path d="M189.75 456.5 L257.75 551.5 L121.75 551.5 Z" fill-rule="evenodd" clip-path="url(#clipPath2)" stroke="none"/>
    </g>
    <g text-rendering="geometricPrecision" stroke-miterlimit="1.45" shape-rendering="geometricPrecision" font-family="sans-serif" transform="matrix(1,0,0,1,207,-48)" stroke-linecap="butt">
      <text x="168.8789" xml:space="preserve" y="494.1855" clip-path="url(#clipPath2)" stroke="none">Nouvel</text>
      <text x="173.2119" xml:space="preserve" y="508.1543" clip-path="url(#clipPath2)" stroke="none">Arbre</text>
      <text x="184.0283" xml:space="preserve" y="522.123" clip-path="url(#clipPath2)" stroke="none">...</text>
      <path fill="none" d="M189.75 456.5 L257.75 551.5 L121.75 551.5 Z" clip-path="url(#clipPath2)" fill-rule="evenodd"/>
    </g>
    <g fill="rgb(255,204,0)" text-rendering="geometricPrecision" shape-rendering="geometricPrecision" transform="matrix(1,0,0,1,207,-48)" stroke="rgb(255,204,0)">
      <circle r="15" clip-path="url(#clipPath2)" cx="68" cy="402.5" stroke="none"/>
    </g>
    <g text-rendering="geometricPrecision" stroke-miterlimit="1.45" shape-rendering="geometricPrecision" font-family="sans-serif" transform="matrix(1,0,0,1,207,-48)" stroke-linecap="butt">
      <text x="60.3652" xml:space="preserve" y="406.6543" clip-path="url(#clipPath2)" stroke="none">13</text>
      <circle fill="none" r="15" clip-path="url(#clipPath2)" cx="68" cy="402.5"/>
    </g>
    <g fill="rgb(204,255,255)" text-rendering="geometricPrecision" shape-rendering="geometricPrecision" transform="matrix(1,0,0,1,207,-48)" stroke="rgb(204,255,255)">
      <rect x="-142" width="42" height="20" y="444" clip-path="url(#clipPath2)" stroke="none"/>
      <rect x="-143" y="443" clip-path="url(#clipPath2)" fill="white" width="1" height="22" stroke="none"/>
      <rect x="-142" y="443" clip-path="url(#clipPath2)" fill="white" width="42" height="1" stroke="none"/>
      <rect x="-142" y="464" clip-path="url(#clipPath2)" fill="rgb(142,178,178)" width="43" height="1" stroke="none"/>
      <rect x="-100" y="443" clip-path="url(#clipPath2)" fill="rgb(142,178,178)" width="1" height="21" stroke="none"/>
    </g>
    <g font-size="13px" stroke-linecap="butt" transform="matrix(1,0,0,1,207,-48)" text-rendering="geometricPrecision" font-family="sans-serif" shape-rendering="geometricPrecision" font-weight="bold" stroke-miterlimit="1.45">
      <text x="-130.9587" xml:space="preserve" y="460.5669" clip-path="url(#clipPath18)" stroke="none">idf</text>
    </g>
    <g fill="rgb(204,255,255)" text-rendering="geometricPrecision" shape-rendering="geometricPrecision" transform="matrix(1,0,0,1,207,-48)" stroke="rgb(204,255,255)">
      <rect x="-13" width="42" height="20" y="444" clip-path="url(#clipPath2)" stroke="none"/>
      <rect x="-14" y="443" clip-path="url(#clipPath2)" fill="white" width="1" height="22" stroke="none"/>
      <rect x="-13" y="443" clip-path="url(#clipPath2)" fill="white" width="42" height="1" stroke="none"/>
      <rect x="-13" y="464" clip-path="url(#clipPath2)" fill="rgb(142,178,178)" width="43" height="1" stroke="none"/>
      <rect x="29" y="443" clip-path="url(#clipPath2)" fill="rgb(142,178,178)" width="1" height="21" stroke="none"/>
    </g>
    <g font-size="13px" stroke-linecap="butt" transform="matrix(1,0,0,1,207,-48)" text-rendering="geometricPrecision" font-family="sans-serif" shape-rendering="geometricPrecision" font-weight="bold" stroke-miterlimit="1.45">
      <text x="-1.9587" xml:space="preserve" y="460.5669" clip-path="url(#clipPath19)" stroke="none">idf</text>
    </g>
    <g fill="rgb(255,204,0)" text-rendering="geometricPrecision" shape-rendering="geometricPrecision" transform="matrix(1,0,0,1,207,-48)" stroke="rgb(255,204,0)">
      <ellipse rx="10.75" ry="11" clip-path="url(#clipPath2)" cx="56.75" cy="454.5" stroke="none"/>
    </g>
    <g text-rendering="geometricPrecision" stroke-miterlimit="1.45" shape-rendering="geometricPrecision" font-family="sans-serif" transform="matrix(1,0,0,1,207,-48)" stroke-linecap="butt">
      <text x="52.9326" xml:space="preserve" y="458.6543" clip-path="url(#clipPath2)" stroke="none">8</text>
      <ellipse rx="10.75" fill="none" ry="11" clip-path="url(#clipPath2)" cx="56.75" cy="454.5"/>
    </g>
    <g fill="rgb(255,204,0)" text-rendering="geometricPrecision" shape-rendering="geometricPrecision" transform="matrix(1,0,0,1,207,-48)" stroke="rgb(255,204,0)">
      <ellipse rx="10.75" ry="11" clip-path="url(#clipPath2)" cx="-74.25" cy="454.5" stroke="none"/>
    </g>
    <g text-rendering="geometricPrecision" stroke-miterlimit="1.45" shape-rendering="geometricPrecision" font-family="sans-serif" transform="matrix(1,0,0,1,207,-48)" stroke-linecap="butt">
      <text x="-78.0674" xml:space="preserve" y="458.6543" clip-path="url(#clipPath2)" stroke="none">8</text>
      <ellipse rx="10.75" fill="none" ry="11" clip-path="url(#clipPath2)" cx="-74.25" cy="454.5"/>
    </g>
    <g fill="rgb(204,255,255)" text-rendering="geometricPrecision" shape-rendering="geometricPrecision" transform="matrix(1,0,0,1,207,-48)" stroke="rgb(204,255,255)">
      <ellipse rx="10.75" ry="11" clip-path="url(#clipPath2)" cx="-121.25" cy="491" stroke="none"/>
    </g>
    <g text-rendering="geometricPrecision" stroke-miterlimit="1.45" shape-rendering="geometricPrecision" font-family="sans-serif" transform="matrix(1,0,0,1,207,-48)" stroke-linecap="butt">
      <text x="-124.9268" xml:space="preserve" y="495.1543" clip-path="url(#clipPath2)" stroke="none">a</text>
      <ellipse rx="10.75" fill="none" ry="11" clip-path="url(#clipPath2)" cx="-121.25" cy="491"/>
    </g>
    <g fill="rgb(204,255,255)" text-rendering="geometricPrecision" shape-rendering="geometricPrecision" transform="matrix(1,0,0,1,207,-48)" stroke="rgb(204,255,255)">
      <ellipse rx="10.75" ry="11" clip-path="url(#clipPath2)" cx="7.75" cy="491" stroke="none"/>
    </g>
    <g text-rendering="geometricPrecision" stroke-miterlimit="1.45" shape-rendering="geometricPrecision" font-family="sans-serif" transform="matrix(1,0,0,1,207,-48)" stroke-linecap="butt">
      <text x="3.9414" xml:space="preserve" y="495.1543" clip-path="url(#clipPath2)" stroke="none">b</text>
      <ellipse rx="10.75" fill="none" ry="11" clip-path="url(#clipPath2)" cx="7.75" cy="491"/>
    </g>
    <g fill="rgb(255,204,0)" text-rendering="geometricPrecision" shape-rendering="geometricPrecision" transform="matrix(1,0,0,1,207,-48)" stroke="rgb(255,204,0)">
      <ellipse rx="10.75" ry="11" clip-path="url(#clipPath2)" cx="605.75" cy="323" stroke="none"/>
    </g>
    <g text-rendering="geometricPrecision" stroke-miterlimit="1.45" shape-rendering="geometricPrecision" font-family="sans-serif" transform="matrix(1,0,0,1,207,-48)" stroke-linecap="butt">
      <text x="601.9326" xml:space="preserve" y="327.1543" clip-path="url(#clipPath2)" stroke="none">4</text>
      <ellipse rx="10.75" fill="none" ry="11" clip-path="url(#clipPath2)" cx="605.75" cy="323"/>
      <rect fill="none" x="-162.9583" width="97.8333" height="22" y="138.5" clip-path="url(#clipPath2)"/>
      <rect fill="none" x="-162.9583" width="97.8333" height="22" y="113.5" clip-path="url(#clipPath2)"/>
      <rect fill="none" x="-162.9583" width="97.8333" height="22" y="88.5" clip-path="url(#clipPath2)"/>
      <rect fill="none" x="-162.9583" width="97.8333" height="22" y="63.5" clip-path="url(#clipPath2)"/>
      <rect fill="none" x="27.5" width="68.0833" height="22" y="113.5" clip-path="url(#clipPath2)"/>
      <rect fill="none" x="27.5" width="68.0833" height="22" y="88.5" clip-path="url(#clipPath2)"/>
      <text x="48.5983" xml:space="preserve" y="78.6543" clip-path="url(#clipPath2)" stroke="none">Egal</text>
      <rect fill="none" x="27.5" width="68.0833" height="22" y="63.5" clip-path="url(#clipPath2)"/>
      <text x="4.0732" xml:space="preserve" y="205.6543" clip-path="url(#clipPath2)" stroke="none">a</text>
      <rect fill="none" x="-26.2917" width="68.0833" height="22" y="190.5" clip-path="url(#clipPath2)"/>
      <text x="0.0596" xml:space="preserve" y="180.6543" clip-path="url(#clipPath2)" stroke="none">Idf</text>
      <rect fill="none" x="-26.2917" width="68.0833" height="22" y="165.5" clip-path="url(#clipPath2)"/>
      <text x="120.5664" xml:space="preserve" y="205.6543" clip-path="url(#clipPath2)" stroke="none">b</text>
      <rect fill="none" x="90.3333" width="68.0833" height="22" y="190.5" clip-path="url(#clipPath2)"/>
      <text x="116.6846" xml:space="preserve" y="180.6543" clip-path="url(#clipPath2)" stroke="none">Idf</text>
      <rect fill="none" x="90.3333" width="68.0833" height="22" y="165.5" clip-path="url(#clipPath2)"/>
      <text x="-164.1723" font-size="13px" y="179.0669" clip-path="url(#clipPath20)" stroke="none" font-weight="bold" xml:space="preserve">Piles d'arbres</text>
      <path fill="none" d="M278.75 144.0093 L278.75 121.9742" clip-path="url(#clipPath2)"/>
      <path d="M278.75 113.9742 L273.75 125.9742 L278.75 122.9742 L283.75 125.9742 Z" clip-path="url(#clipPath2)" stroke="none"/>
      <path fill="none" d="M278.75 203.0093 L278.75 180.9742" clip-path="url(#clipPath2)"/>
      <path d="M278.75 172.9742 L273.75 184.9742 L278.75 181.9742 L283.75 184.9742 Z" clip-path="url(#clipPath2)" stroke="none"/>
      <path fill="none" d="M-147.4947 317.7649 L213.2332 232.9114" clip-path="url(#clipPath2)"/>
      <path d="M221.0207 231.0796 L208.1946 228.9602 L212.2598 233.1404 L210.4844 238.6945 Z" clip-path="url(#clipPath2)" stroke="none"/>
      <path fill="none" d="M72.4808 312.7359 L240.0881 235.3504" clip-path="url(#clipPath2)"/>
      <path d="M247.3513 231.997 L234.3606 232.4877 L239.1802 235.7696 L238.5524 241.5667 Z" clip-path="url(#clipPath2)" stroke="none"/>
      <path fill="none" d="M201.9832 308.4989 L261.3531 238.1222" clip-path="url(#clipPath2)"/>
      <path d="M266.5115 232.0074 L254.9521 237.9555 L260.7083 238.8865 L262.5956 244.4036 Z" clip-path="url(#clipPath2)" stroke="none"/>
      <path fill="none" d="M310.5492 312.0018 L286.1924 239.6174" clip-path="url(#clipPath2)"/>
      <path d="M283.641 232.0352 L282.7291 245.0032 L286.5113 240.5652 L292.2069 241.814 Z" clip-path="url(#clipPath2)" stroke="none"/>
      <path fill="none" d="M405.5447 308.4989 L305.4635 236.6719" clip-path="url(#clipPath2)"/>
      <path d="M298.9641 232.0074 L305.7979 243.0663 L306.2759 237.255 L311.6285 234.942 Z" clip-path="url(#clipPath2)" stroke="none"/>
      <path fill="none" d="M540.9887 314.7449 L325.337 234.7757" clip-path="url(#clipPath2)"/>
      <path d="M317.8361 231.9942 L327.349 240.8545 L326.2746 235.1234 L330.8259 231.4784 Z" clip-path="url(#clipPath2)" stroke="none"/>
      <path fill="none" d="M-27.4785 312.942 L224.5725 234.3855" clip-path="url(#clipPath2)"/>
      <path d="M232.2102 232.005 L219.2659 230.8021 L223.6178 234.683 L222.2415 240.3492 Z" clip-path="url(#clipPath2)" stroke="none"/>
      <path fill="none" d="M-110.0491 388.0208 L-75.8689 343.8367" clip-path="url(#clipPath2)"/>
      <path d="M-70.974 337.509 L-82.2712 343.9411 L-76.4808 344.6276 L-74.3617 350.0599 Z" clip-path="url(#clipPath2)" stroke="none"/>
      <path fill="none" d="M-59.75 391.5144 L-59.75 345.4857" clip-path="url(#clipPath2)"/>
      <path d="M-59.75 337.4857 L-64.75 349.4857 L-59.75 346.4857 L-54.75 349.4857 Z" clip-path="url(#clipPath2)" stroke="none"/>
      <path fill="none" d="M-4.5602 388.0013 L-42.2568 343.6031" clip-path="url(#clipPath2)"/>
      <path d="M-47.4347 337.5047 L-43.4794 349.8884 L-41.6096 344.3654 L-35.8565 343.4161 Z" clip-path="url(#clipPath2)" stroke="none"/>
      <path fill="none" d="M189.75 388.0208 L189.75 345.509" clip-path="url(#clipPath2)"/>
      <path d="M189.75 337.509 L184.75 349.509 L189.75 346.509 L194.75 349.509 Z" clip-path="url(#clipPath2)" stroke="none"/>
      <path fill="none" d="M425.75 388.0208 L425.75 345.509" clip-path="url(#clipPath2)"/>
      <path d="M425.75 337.509 L420.75 349.509 L425.75 346.509 L430.75 349.509 Z" clip-path="url(#clipPath2)" stroke="none"/>
      <path fill="none" d="M425.75 456.4714 L425.75 425.0206" clip-path="url(#clipPath2)"/>
      <path d="M425.75 417.0206 L420.75 429.0206 L425.75 426.0206 L430.75 429.0206 Z" clip-path="url(#clipPath2)" stroke="none"/>
      <path fill="none" d="M189.75 456.4714 L189.75 425.0206" clip-path="url(#clipPath2)"/>
      <path d="M189.75 417.0206 L184.75 429.0206 L189.75 426.0206 L194.75 429.0206 Z" clip-path="url(#clipPath2)" stroke="none"/>
      <path fill="none" d="M-121.25 443.5059 L-121.25 425.0363" clip-path="url(#clipPath2)"/>
      <path d="M-121.25 417.0363 L-126.25 429.0363 L-121.25 426.0363 L-116.25 429.0363 Z" clip-path="url(#clipPath2)" stroke="none"/>
      <path fill="none" d="M7.75 443.5059 L7.75 425.0363" clip-path="url(#clipPath2)"/>
      <path d="M7.75 417.0363 L2.75 429.0363 L7.75 426.0363 L12.75 429.0363 Z" clip-path="url(#clipPath2)" stroke="none"/>
      <path fill="none" d="M-65.125 74.5 L19.5 74.5" clip-path="url(#clipPath2)"/>
      <path d="M27.5 74.5 L15.5 69.5 L18.5 74.5 L15.5 79.5 Z" clip-path="url(#clipPath2)" stroke="none"/>
      <path fill="none" d="M27.5 99.5 L7.75 99.5 L7.75 157.5" clip-path="url(#clipPath2)"/>
      <path d="M7.75 165.5 L12.75 153.5 L7.75 156.5 L2.75 153.5 Z" clip-path="url(#clipPath2)" stroke="none"/>
      <path fill="none" d="M95.5833 124.5 L124.375 124.5 L124.375 157.5" clip-path="url(#clipPath2)"/>
      <path d="M124.375 165.5 L129.375 153.5 L124.375 156.5 L119.375 153.5 Z" clip-path="url(#clipPath2)" stroke="none"/>
    </g>
  </g>
</svg>
