<?xml version="1.0" encoding="UTF-8"?><svg xmlns="http://www.w3.org/2000/svg" xmlns:xlink="http://www.w3.org/1999/xlink" fill-opacity="1" color-rendering="auto" color-interpolation="auto" text-rendering="auto" stroke="black" stroke-linecap="square" width="401" stroke-miterlimit="10" shape-rendering="auto" stroke-opacity="1" fill="black" stroke-dasharray="none" font-weight="normal" stroke-width="1" height="486" font-family="'Dialog'" font-style="normal" stroke-linejoin="miter" font-size="12px" stroke-dashoffset="0" image-rendering="auto">
  <!--Generated by ySVG 2.5-->
  <defs id="genericDefs"/>
  <g>
    <defs id="defs1">
      <linearGradient x1="340.208" gradientUnits="userSpaceOnUse" x2="577.904" y1="239.296" y2="304.024" id="linearGradient1" spreadMethod="reflect">
        <stop stop-opacity="1" stop-color="rgb(232,238,247)" offset="0%"/>
        <stop stop-opacity="1" stop-color="rgb(183,201,227)" offset="100%"/>
      </linearGradient>
      <linearGradient x1="348.4" gradientUnits="userSpaceOnUse" x2="569.712" y1="486.4814" y2="587.9214" id="linearGradient2" spreadMethod="reflect">
        <stop stop-opacity="1" stop-color="rgb(232,238,247)" offset="0%"/>
        <stop stop-opacity="1" stop-color="rgb(183,201,227)" offset="100%"/>
      </linearGradient>
      <linearGradient x1="630.376" gradientUnits="userSpaceOnUse" x2="710.632" y1="444.9334" y2="484.5734" id="linearGradient3" spreadMethod="reflect">
        <stop stop-opacity="1" stop-color="rgb(232,238,247)" offset="0%"/>
        <stop stop-opacity="1" stop-color="rgb(183,201,227)" offset="100%"/>
      </linearGradient>
      <linearGradient x1="348.4" gradientUnits="userSpaceOnUse" x2="569.712" y1="341.0748" y2="442.5148" id="linearGradient4" spreadMethod="reflect">
        <stop stop-opacity="1" stop-color="rgb(232,238,247)" offset="0%"/>
        <stop stop-opacity="1" stop-color="rgb(183,201,227)" offset="100%"/>
      </linearGradient>
      <linearGradient x1="359.408" gradientUnits="userSpaceOnUse" x2="558.704" y1="636.368" y2="694.44" id="linearGradient5" spreadMethod="reflect">
        <stop stop-opacity="1" stop-color="rgb(232,238,247)" offset="0%"/>
        <stop stop-opacity="1" stop-color="rgb(183,201,227)" offset="100%"/>
      </linearGradient>
      <clipPath clipPathUnits="userSpaceOnUse" id="clipPath1">
        <path d="M0 0 L401 0 L401 486 L0 486 L0 0 Z"/>
      </clipPath>
      <clipPath clipPathUnits="userSpaceOnUse" id="clipPath2">
        <path d="M325 224 L726 224 L726 710 L325 710 L325 224 Z"/>
      </clipPath>
    </defs>
    <g fill="white" text-rendering="geometricPrecision" shape-rendering="geometricPrecision" transform="translate(-325,-224)" stroke="white">
      <rect x="325" width="401" height="486" y="224" clip-path="url(#clipPath2)" stroke="none"/>
    </g>
    <g fill="url(#linearGradient1)" text-rendering="geometricPrecision" shape-rendering="geometricPrecision" transform="matrix(1,0,0,1,-325,-224)" stroke="url(#linearGradient1)">
      <path d="M340.208 239.296 L577.904 239.296 L577.904 304.024 L340.208 304.024 Z" stroke="none" clip-path="url(#clipPath2)"/>
    </g>
    <g text-rendering="geometricPrecision" stroke-miterlimit="1.45" shape-rendering="geometricPrecision" transform="matrix(1,0,0,1,-325,-224)" stroke-linecap="butt">
      <path fill="none" d="M340.208 239.296 L577.904 239.296 L577.904 304.024 L340.208 304.024 Z" clip-path="url(#clipPath2)"/>
      <text x="347.9212" xml:space="preserve" y="268.8299" clip-path="url(#clipPath2)" font-family="sans-serif" stroke="none">Parser myP = new Parser(myLexical)</text>
      <text x="347.9212" xml:space="preserve" y="282.7987" clip-path="url(#clipPath2)" font-family="sans-serif" stroke="none">Parser myP.parse()</text>
    </g>
    <g fill="url(#linearGradient2)" text-rendering="geometricPrecision" shape-rendering="geometricPrecision" transform="matrix(1,0,0,1,-325,-224)" stroke="url(#linearGradient2)">
      <path d="M459.056 486.4814 L569.712 537.2014 L459.056 587.9214 L348.4 537.2014 Z" stroke="none" clip-path="url(#clipPath2)"/>
    </g>
    <g text-rendering="geometricPrecision" stroke-miterlimit="1.45" shape-rendering="geometricPrecision" transform="matrix(1,0,0,1,-325,-224)" stroke-linecap="butt">
      <path fill="none" d="M459.056 486.4814 L569.712 537.2014 L459.056 587.9214 L348.4 537.2014 Z" clip-path="url(#clipPath2)"/>
      <text x="383.4144" xml:space="preserve" y="534.3713" clip-path="url(#clipPath2)" font-family="sans-serif" stroke="none">myP.abstractTreeStack : </text>
      <text x="381.4193" xml:space="preserve" y="548.3401" clip-path="url(#clipPath2)" font-family="sans-serif" stroke="none">semanticErrorsDetected()</text>
    </g>
    <g fill="url(#linearGradient3)" text-rendering="geometricPrecision" shape-rendering="geometricPrecision" transform="matrix(1,0,0,1,-325,-224)" stroke="url(#linearGradient3)">
      <path d="M630.376 444.9334 L710.632 444.9334 L710.632 484.5734 L630.376 484.5734 Z" stroke="none" clip-path="url(#clipPath2)"/>
    </g>
    <g text-rendering="geometricPrecision" stroke-miterlimit="1.45" shape-rendering="geometricPrecision" transform="matrix(1,0,0,1,-325,-224)" stroke-linecap="butt">
      <path fill="none" d="M630.376 444.9334 L710.632 444.9334 L710.632 484.5734 L630.376 484.5734 Z" clip-path="url(#clipPath2)"/>
      <text x="659.2423" xml:space="preserve" y="468.9077" clip-path="url(#clipPath2)" font-family="sans-serif" stroke="none">exit</text>
    </g>
    <g fill="url(#linearGradient4)" text-rendering="geometricPrecision" shape-rendering="geometricPrecision" transform="matrix(1,0,0,1,-325,-224)" stroke="url(#linearGradient4)">
      <path d="M459.056 341.0748 L569.712 391.7948 L459.056 442.5148 L348.4 391.7948 Z" stroke="none" clip-path="url(#clipPath2)"/>
    </g>
    <g text-rendering="geometricPrecision" stroke-miterlimit="1.45" shape-rendering="geometricPrecision" transform="matrix(1,0,0,1,-325,-224)" stroke-linecap="butt">
      <path fill="none" d="M459.056 341.0748 L569.712 391.7948 L459.056 442.5148 L348.4 391.7948 Z" clip-path="url(#clipPath2)"/>
      <text x="386.7308" xml:space="preserve" y="388.9647" clip-path="url(#clipPath2)" font-family="sans-serif" stroke="none">Syntax errors detected?</text>
      <text x="395.6107" xml:space="preserve" y="402.9335" clip-path="url(#clipPath2)" font-family="sans-serif" stroke="none">(Exception occured?)</text>
    </g>
    <g fill="url(#linearGradient5)" text-rendering="geometricPrecision" shape-rendering="geometricPrecision" transform="matrix(1,0,0,1,-325,-224)" stroke="url(#linearGradient5)">
      <path d="M359.408 636.368 L558.704 636.368 L558.704 694.44 L359.408 694.44 Z" stroke="none" clip-path="url(#clipPath2)"/>
    </g>
    <g text-rendering="geometricPrecision" stroke-miterlimit="1.45" shape-rendering="geometricPrecision" transform="matrix(1,0,0,1,-325,-224)" stroke-linecap="butt">
      <path fill="none" d="M359.408 636.368 L558.704 636.368 L558.704 694.44 L359.408 694.44 Z" clip-path="url(#clipPath2)"/>
      <text x="370.3744" xml:space="preserve" y="669.5583" clip-path="url(#clipPath2)" font-family="sans-serif" stroke="none">CodeProducer.produceCode()</text>
    </g>
    <g text-rendering="geometricPrecision" stroke-miterlimit="1.45" shape-rendering="geometricPrecision" transform="matrix(1,0,0,1,-325,-224)" stroke-linecap="butt">
      <path fill="none" d="M569.71 537.2014 L670.504 537.2014 L670.504 492.5988" clip-path="url(#clipPath2)"/>
    </g>
    <g text-rendering="geometricPrecision" stroke-miterlimit="1.45" shape-rendering="geometricPrecision" transform="matrix(1,0,0,1,-325,-224)" stroke-linecap="butt">
      <path d="M670.504 484.5988 L665.504 496.5988 L670.504 493.5988 L675.504 496.5988 Z" stroke="none" clip-path="url(#clipPath2)"/>
      <text x="599.4662" xml:space="preserve" y="523.5192" clip-path="url(#clipPath2)" font-family="sans-serif" stroke="none">yes</text>
      <path fill="none" d="M459.056 304.0107 L459.056 333.0875" clip-path="url(#clipPath2)"/>
      <path d="M459.056 341.0875 L464.056 329.0875 L459.056 332.0875 L454.056 329.0875 Z" clip-path="url(#clipPath2)" stroke="none"/>
      <path fill="none" d="M459.056 442.5238 L459.056 478.4879" clip-path="url(#clipPath2)"/>
      <path d="M459.056 486.4879 L464.056 474.4879 L459.056 477.4879 L454.056 474.4879 Z" clip-path="url(#clipPath2)" stroke="none"/>
      <text x="435.6726" xml:space="preserve" y="465.0479" clip-path="url(#clipPath2)" font-family="sans-serif" stroke="none">no</text>
      <path fill="none" d="M569.71 391.7948 L670.504 391.7948 L670.504 436.9106" clip-path="url(#clipPath2)"/>
      <path d="M670.504 444.9106 L675.504 432.9106 L670.504 435.9106 L665.504 432.9106 Z" clip-path="url(#clipPath2)" stroke="none"/>
      <text x="614.8195" xml:space="preserve" y="380.0393" clip-path="url(#clipPath2)" font-family="sans-serif" stroke="none">yes</text>
      <path fill="none" d="M459.056 587.9378 L459.056 628.392" clip-path="url(#clipPath2)"/>
      <path d="M459.056 636.392 L464.056 624.392 L459.056 627.392 L454.056 624.392 Z" clip-path="url(#clipPath2)" stroke="none"/>
      <text x="436.0003" xml:space="preserve" y="613.6776" clip-path="url(#clipPath2)" font-family="sans-serif" stroke="none">no</text>
      <path fill="none" d="M558.7143 665.404 L670.504 665.404 L670.504 492.5739" clip-path="url(#clipPath2)"/>
      <path d="M670.504 484.5739 L665.504 496.5739 L670.504 493.5739 L675.504 496.5739 Z" clip-path="url(#clipPath2)" stroke="none"/>
    </g>
  </g>
</svg>
